<svg xmlns="http://www.w3.org/2000/svg" width="375"  height="375" viewBox="0 0 375 375" version="1.0">
    <defs>
        <clipPath id="a">
            <path d="M40 1h318v200H40Zm0 0"/>
        </clipPath>
        <clipPath id="b">
            <path d="m463.027 174.844-256.164 269.75L-61.254 189.98 194.91-79.77Zm0 0"/>
        </clipPath>
        <clipPath id="c">
            <path d="m-60.805 190.02 256.16-269.75 268.118 254.613-256.16 269.75Zm0 0"/>
        </clipPath>
        <clipPath id="d">
            <path d="m-60.805 190.02 256.16-269.75 268.118 254.613-256.16 269.75Zm0 0"/>
        </clipPath>
        <clipPath id="e">
            <path d="M66 216h12v41H66Zm0 0"/>
        </clipPath>
        <clipPath id="f">
            <path d="m463.027 174.844-256.164 269.75L-61.254 189.98 194.91-79.77Zm0 0"/>
        </clipPath>
        <clipPath id="g">
            <path d="m-60.805 190.02 256.16-269.75 268.118 254.613-256.16 269.75Zm0 0"/>
        </clipPath>
        <clipPath id="h">
            <path d="m-60.805 190.02 256.16-269.75 268.118 254.613-256.16 269.75Zm0 0"/>
        </clipPath>
        <clipPath id="i">
            <path d="M336 279h2v2h-2Zm0 0"/>
        </clipPath>
        <clipPath id="j">
            <path d="m463.027 174.844-256.164 269.75L-61.254 189.98 194.91-79.77Zm0 0"/>
        </clipPath>
        <clipPath id="k">
            <path d="m-60.805 190.02 256.16-269.75 268.118 254.613-256.16 269.75Zm0 0"/>
        </clipPath>
        <clipPath id="l">
            <path d="m-60.805 190.02 256.16-269.75 268.118 254.613-256.16 269.75Zm0 0"/>
        </clipPath>
        <clipPath id="m">
            <path d="M5 177h347v197H5Zm0 0"/>
        </clipPath>
        <clipPath id="n">
            <path d="m463.027 174.844-256.164 269.75L-61.254 189.98 194.91-79.77Zm0 0"/>
        </clipPath>
        <clipPath id="o">
            <path d="m-60.805 190.02 256.16-269.75 268.118 254.613-256.16 269.75Zm0 0"/>
        </clipPath>
        <clipPath id="p">
            <path d="m-60.805 190.02 256.16-269.75 268.118 254.613-256.16 269.75Zm0 0"/>
        </clipPath>
        <clipPath id="q">
            <path d="M212 280h7v8h-7Zm0 0"/>
        </clipPath>
        <clipPath id="r">
            <path d="m463.027 174.844-256.164 269.75L-61.254 189.98 194.91-79.77Zm0 0"/>
        </clipPath>
        <clipPath id="s">
            <path d="m-60.805 190.02 256.16-269.75 268.118 254.613-256.16 269.75Zm0 0"/>
        </clipPath>
        <clipPath id="t">
            <path d="m-60.805 190.02 256.16-269.75 268.118 254.613-256.16 269.75Zm0 0"/>
        </clipPath>
        <clipPath id="u">
            <path d="M215 288h2v3h-2Zm0 0"/>
        </clipPath>
        <clipPath id="v">
            <path d="m463.027 174.844-256.164 269.75L-61.254 189.98 194.91-79.77Zm0 0"/>
        </clipPath>
        <clipPath id="w">
            <path d="m-60.805 190.02 256.16-269.75 268.118 254.613-256.16 269.75Zm0 0"/>
        </clipPath>
        <clipPath id="x">
            <path d="m-60.805 190.02 256.16-269.75 268.118 254.613-256.16 269.75Zm0 0"/>
        </clipPath>
        <clipPath id="y">
            <path d="M217 286h3v2h-3Zm0 0"/>
        </clipPath>
        <clipPath id="z">
            <path d="m463.027 174.844-256.164 269.75L-61.254 189.98 194.91-79.77Zm0 0"/>
        </clipPath>
        <clipPath id="A">
            <path d="m-60.805 190.02 256.16-269.75 268.118 254.613-256.16 269.75Zm0 0"/>
        </clipPath>
        <clipPath id="B">
            <path d="m-60.805 190.02 256.16-269.75 268.118 254.613-256.16 269.75Zm0 0"/>
        </clipPath>
        <clipPath id="C">
            <path d="M218 278h3v3h-3Zm0 0"/>
        </clipPath>
        <clipPath id="D">
            <path d="m463.027 174.844-256.164 269.75L-61.254 189.98 194.91-79.77Zm0 0"/>
        </clipPath>
        <clipPath id="E">
            <path d="m-60.805 190.02 256.16-269.75 268.118 254.613-256.16 269.75Zm0 0"/>
        </clipPath>
        <clipPath id="F">
            <path d="m-60.805 190.02 256.16-269.75 268.118 254.613-256.16 269.75Zm0 0"/>
        </clipPath>
        <clipPath id="G">
            <path d="M220 277h1v2h-1Zm0 0"/>
        </clipPath>
        <clipPath id="H">
            <path d="m463.027 174.844-256.164 269.75L-61.254 189.98 194.91-79.77Zm0 0"/>
        </clipPath>
        <clipPath id="I">
            <path d="m-60.805 190.02 256.16-269.75 268.118 254.613-256.16 269.75Zm0 0"/>
        </clipPath>
        <clipPath id="J">
            <path d="m-60.805 190.02 256.16-269.75 268.118 254.613-256.16 269.75Zm0 0"/>
        </clipPath>
        <clipPath id="K">
            <path d="M211 279h2v2h-2Zm0 0"/>
        </clipPath>
        <clipPath id="L">
            <path d="m463.027 174.844-256.164 269.75L-61.254 189.98 194.91-79.77Zm0 0"/>
        </clipPath>
        <clipPath id="M">
            <path d="m-60.805 190.02 256.16-269.75 268.118 254.613-256.16 269.75Zm0 0"/>
        </clipPath>
        <clipPath id="N">
            <path d="m-60.805 190.02 256.16-269.75 268.118 254.613-256.16 269.75Zm0 0"/>
        </clipPath>
        <clipPath id="O">
            <path d="M208 283h2v3h-2Zm0 0"/>
        </clipPath>
        <clipPath id="P">
            <path d="m463.027 174.844-256.164 269.75L-61.254 189.98 194.91-79.77Zm0 0"/>
        </clipPath>
        <clipPath id="Q">
            <path d="m-60.805 190.02 256.16-269.75 268.118 254.613-256.16 269.75Zm0 0"/>
        </clipPath>
        <clipPath id="R">
            <path d="m-60.805 190.02 256.16-269.75 268.118 254.613-256.16 269.75Zm0 0"/>
        </clipPath>
    </defs>
    <g clip-path="url(#a)">
        <g clip-path="url(#b)">
            <g clip-path="url(#c)">
                <g clip-path="url(#d)">
                    <path d="M84.418 50.84A157.908 157.908 0 0 0 65.84 74.508a159.021 159.021 0 0 0-7.512 13.055 158.606 158.606 0 0 0-6.23 13.714 157.866 157.866 0 0 0-10.5 43.809c-.461 5.008-.68 10.023-.66 15.047a4.81 4.81 0 0 1 2.433-.149c-.004-2.754.063-5.504.2-8.254a156.829 156.829 0 0 1 1.706-16.421c.43-2.72.934-5.426 1.504-8.121a157.808 157.808 0 0 1 1.934-8.028 157.37 157.37 0 0 1 5.125-15.695c.992-2.567 2.055-5.11 3.18-7.621A154.851 154.851 0 0 1 68.915 74.14c1.51-2.301 3.081-4.563 4.71-6.782a157.322 157.322 0 0 1 5.066-6.523 155.26 155.26 0 0 1 23.488-23.137 156.515 156.515 0 0 1 6.598-4.969 158.955 158.955 0 0 1 6.852-4.609 156.346 156.346 0 0 1 21.879-11.562 154.684 154.684 0 0 1 15.488-5.719 156.929 156.929 0 0 1 7.95-2.238 157.866 157.866 0 0 1 16.199-3.192 160.68 160.68 0 0 1 8.203-.95c2.746-.241 5.492-.413 8.242-.51 2.754-.098 5.508-.122 8.262-.075 2.75.047 5.5.168 8.25.363a156.8 156.8 0 0 1 16.382 2.035 155.761 155.761 0 0 1 23.95 6.266c2.597.91 5.171 1.883 7.722 2.926a158.431 158.431 0 0 1 7.559 3.332 153.043 153.043 0 0 1 7.367 3.726 152.886 152.886 0 0 1 7.164 4.11 157.868 157.868 0 0 1 6.938 4.484c2.27 1.559 4.5 3.172 6.687 4.848a157.225 157.225 0 0 1 12.559 10.722 155.336 155.336 0 0 1 11.351 11.989A154.759 154.759 0 0 1 327.805 71.8a159.119 159.119 0 0 1 4.476 6.941 152.796 152.796 0 0 1 4.098 7.168 156.854 156.854 0 0 1 3.719 7.375 156.61 156.61 0 0 1 8.734 23.16 156.852 156.852 0 0 1 2.078 7.993 149.982 149.982 0 0 1 1.652 8.093c.481 2.711.891 5.434 1.223 8.168.336 2.73.602 5.473.79 8.219a157.28 157.28 0 0 1 .266 16.508 156.446 156.446 0 0 1-2.879 24.586c-.536 2.699-1.142 5.383-1.821 8.05a36.032 36.032 0 0 1 1.816 2.43 161.3 161.3 0 0 0 1.547-6.344c.473-2.125.902-4.257 1.285-6.398.387-2.145.727-4.293 1.02-6.45a157 157 0 0 0 .753-6.488c.208-2.164.372-4.335.489-6.507a158.108 158.108 0 0 0-.164-19.578 156.856 156.856 0 0 0-2.578-19.407 154.552 154.552 0 0 0-1.391-6.379 147.067 147.067 0 0 0-1.652-6.316 157.536 157.536 0 0 0-9.168-24.426 159.48 159.48 0 0 0-2.91-5.844 159.6 159.6 0 0 0-3.153-5.722 158.176 158.176 0 0 0-28.242-35.742 155.729 155.729 0 0 0-4.832-4.387 165.292 165.292 0 0 0-5.012-4.188 164.002 164.002 0 0 0-5.183-3.972 154.208 154.208 0 0 0-5.34-3.758 156.022 156.022 0 0 0-11.121-6.84 156.332 156.332 0 0 0-5.766-3.07 156.329 156.329 0 0 0-11.879-5.41 157.876 157.876 0 0 0-12.289-4.418 159.53 159.53 0 0 0-19.008-4.684 157.697 157.697 0 0 0-12.93-1.805c-2.167-.21-4.34-.375-6.511-.496-2.172-.125-4.348-.199-6.524-.23-2.18-.035-4.355-.02-6.53.039-2.177.055-4.352.16-6.524.305a156.978 156.978 0 0 0-12.977 1.426 155.81 155.81 0 0 0-12.816 2.488c-2.117.5-4.223 1.046-6.32 1.636-2.094.59-4.176 1.223-6.247 1.899a159.993 159.993 0 0 0-12.23 4.562 150.573 150.573 0 0 0-5.965 2.657 156.478 156.478 0 0 0-11.574 6.035 161.855 161.855 0 0 0-5.59 3.37 162.063 162.063 0 0 0-5.45 3.602 163.778 163.778 0 0 0-5.292 3.82 155.183 155.183 0 0 0-5.13 4.036 160.53 160.53 0 0 0-4.96 4.246 160.858 160.858 0 0 0-4.781 4.445 160.816 160.816 0 0 0-4.594 4.64Zm0 0"/>
                </g>
            </g>
        </g>
    </g>
    <g clip-path="url(#e)">
        <g clip-path="url(#f)">
            <g clip-path="url(#g)">
                <g clip-path="url(#h)">
                    <path d="M72.54 216.98c-.106-.187-.466-.128-.45.122a33.41 33.41 0 0 1-.793 11.277c-1.004 3.633-2.867 6.937-3.734 10.637-1.137 4.832-1.485 11.636 1.914 15.8.273.645.593 1.262.964 1.856.125.117.375.172.43-.043l.059-.063a.461.461 0 0 0 .152-.16l.332-.351c.063-.121.043-.23-.059-.328-.097-.094-.207-.106-.328-.04l-.058.063c-.364-1.031.21-2.445.531-3.383.406-1.168.93-2.3 1.387-3.453 1.496-3.605 3.113-6.809 3.675-10.629a30.28 30.28 0 0 0-.359-12.215c-.512-1.863-1.219-3.656-1.8-5.496a10.801 10.801 0 0 0-1.641-3.402.158.158 0 0 0-.059-.16.15.15 0 0 0-.164-.032Zm1.355 4.868c.601 1.96 1.406 3.816 1.828 5.84.812 4.585.59 9.12-.66 13.609a91.565 91.565 0 0 1-3.829 9.16 16.133 16.133 0 0 0-1.28 3.945c-1.454-4.047-.888-8.347.39-12.496.664-2.199 1.484-4.332 2.238-6.5a23.923 23.923 0 0 0 1.152-8.148c.004-.266-.43-.29-.421-.016a24.903 24.903 0 0 1-1.622 8.961c-.886 2.34-1.796 4.695-2.453 7.117a19.916 19.916 0 0 0-.707 7.957c-1.515-4.789-.84-10.246.692-14.84 1.066-3.273 2.793-6.308 3.363-9.734.477-2.91.504-5.828.082-8.75a35.154 35.154 0 0 1 1.227 3.895Zm0 0"/>
                </g>
            </g>
        </g>
    </g>
    <g clip-path="url(#i)">
        <g clip-path="url(#j)">
            <g clip-path="url(#k)">
                <g clip-path="url(#l)">
                    <path d="m337.313 279.824-.903.082a.407.407 0 0 0-.281.153.397.397 0 0 0-.094.304c.012.117.063.211.152.282.09.074.192.105.305.093l.89-.074a.416.416 0 0 0 .255-.164.399.399 0 0 0 .078-.29.401.401 0 0 0-.13-.269.405.405 0 0 0-.272-.117Zm0 0"/>
                </g>
            </g>
        </g>
    </g>
    <g clip-path="url(#m)">
        <g clip-path="url(#n)">
            <g clip-path="url(#o)">
                <g clip-path="url(#p)">
                    <path d="M334.234 270.926c-5.867-3.063-12.546-1.867-18.808-1.113a.52.52 0 0 0-.14-.137s-.052-.047-.079-.074c1.313-1.383 2.52-2.864 3.754-4.34a157.098 157.098 0 0 0 18.168-27.012 156.937 156.937 0 0 0 12.23-30.172c-.832.012-1.714.043-2.488.063l-.34 1.183a154.7 154.7 0 0 1-12.242 29.227.391.391 0 0 0-.441-.133c-.102.031-.207.05-.317.066-.539-.46-1.05-.949-1.539-1.464-1.004-1.184-1.945-2.399-3.055-3.485-1.957-1.86-4.035-3.11-6.714-2.086a.625.625 0 0 0-.375.336.638.638 0 0 0-.024.508c1.395 2.996 6.258 7.434 10.27 7.406a4.76 4.76 0 0 0 1.07.867 189.682 189.682 0 0 1-2.484 4.239.407.407 0 0 0-.278.117l-.027.027c-2.563-1.043-5.75-.77-8.383-.59a36.505 36.505 0 0 0-11.762 3c-4.82 1.989-14.878 7.325-20.714 4.68a14.316 14.316 0 0 1-2.164-1.687.294.294 0 0 0-.133-.125c-.387-.368-1.04.054-.692.48a7.262 7.262 0 0 0 2.047 1.797c6.125 4.61 14.754 4.98 22.153 4.07a33.476 33.476 0 0 0 9.558-2.969 33.407 33.407 0 0 0 8.262-5.652l.305-.164a156.046 156.046 0 0 1-26.809 31.758.405.405 0 0 0-.313-.07.405.405 0 0 0-.277.164l-.082.086a.407.407 0 0 0-.36.062 5.215 5.215 0 0 0-2.386 2.758l-.176.183c-2.289.825-5.094.07-7.508-.628a63.745 63.745 0 0 1-9.93-3.903c-6.491-3.152-12.562-7.058-18.808-10.66a83.574 83.574 0 0 0-18.933-8.516 43.489 43.489 0 0 0-9.836-1.62c-2.184-.098-5.57-.52-6.836 1.73a.82.82 0 0 0-.082.36.819.819 0 0 0 .074.362.87.87 0 0 0 .547.477c6.468 1.926 12.191 5.176 17.168 9.738 4.312 3.961 7.593 8.887 11.84 12.918a29.385 29.385 0 0 0 13.96 7.95c5.364 1.078 10.692.925 15.985-.465a59.605 59.605 0 0 0 3.941-1.098 156.581 156.581 0 0 1-14.539 9.523c-.219-.054-.379.016-.476.22a168.89 168.89 0 0 1-5.965 3.245c-1.465.75-2.942 1.477-4.418 2.184-.278.008-.559.008-.84.039-.91.094-1.844.176-2.719.25-.316.02-.832.047-1.383.047-.109-.293-.32-.45-.628-.465a6.874 6.874 0 0 1-2.82-1.004.37.37 0 0 0-.177-.242.387.387 0 0 0-.293-.055c-2.671-1.879-4.468-5.262-6.953-7.39-1.16-1-3.777-2.512-4.402-.09-.563 2.16 2.285 5.035 3.559 6.375a12.453 12.453 0 0 0 3.906 2.851 12.462 12.462 0 0 0 4.695 1.164c.25.106.504.211.762.29-4.14.671-8.215 1.19-12.535-.649l-.434-.195a.486.486 0 0 0-.746-.324 47.99 47.99 0 0 1-5.285-2.692.422.422 0 0 0 .082-.305.417.417 0 0 0-.149-.277c-2.168-2.059-2.812-3.793-3.574-6.59a12.294 12.294 0 0 0-2.137-4.527 5.053 5.053 0 0 0-.445-2.969c3.883-.7 7.203-2.187 7.844-6.902.601-4.32-2.973-8.016-6.586-9.84-2.082-1.055-4.258-.914-6.504-1.3-2.242-.392-4.406-2.294-6.879-2.282a3.762 3.762 0 0 0-2.41.773c-.348.262-.64.578-.879.942-.238.36-.406.754-.512 1.175-1.289-1.996-3.921-2.168-6.168-2.324-5.43-.316-8.98 3.864-8.906 9.114.031 2.136.387 4.3-1.488 5.87-.813.45-1.55 1-2.207 1.657-1.41 2.012-.317 4.723 1.098 6.32a6.496 6.496 0 0 0 1.812 1.574c.352.204.715.372 1.098.504.379.133.77.23 1.168.29.398.062.8.081 1.203.066.402-.016.8-.07 1.195-.164.395-.09.774-.219 1.145-.383.367-.164.718-.36 1.047-.59-1.239 3.176-1.286 6.649 2.777 7.66 1.55.414 2.094-.09 3.578 1.524.656.703 1.008 1.71 1.621 2.476a7.481 7.481 0 0 0 3.492 2.446 7.722 7.722 0 0 0 3.758.309 7.816 7.816 0 0 0 1.824-.532 7.822 7.822 0 0 0 1.637-.961c1.195-1.012 3.492-4.774 5.02-8.637 2.12 4.38 7.152 7.18 11.476 9.227-3.363 1.613-7.945-.156-10.45 3.293a.515.515 0 0 0-.097.453.53.53 0 0 0 .29.367c4.183 2.176 8.296-.5 12.077-2.133a.735.735 0 0 0 .414-.43.72.72 0 0 0 .04-.3.69.69 0 0 0-.086-.293 26.447 26.447 0 0 0 11.543 1.496 154.62 154.62 0 0 1-38.016 10.043c-5.64-13.11-18.707-21.785-30.219-29.3-5.89-3.919-11.91-8.063-18.762-10.231-6.394-2-13.05-2.344-19.582-3.758a.396.396 0 0 0-.371.113.383.383 0 0 0-.09.371c-.101.137-.093.266.02.387 2.328 2.078 5.18 3.363 7.461 5.547 2.644 2.512 4.848 5.304 7.187 8.027 4.348 5.07 8.504 10.324 13.266 15.012 1.95 2 4.043 3.828 6.29 5.488a51.92 51.92 0 0 0 14.776 7.629 51.76 51.76 0 0 0 8.114 1.95c-12.32.702-24.555-.052-36.7-2.259.079-.226.16-.468.258-.695.192-.504-.574-.863-.773-.348-.477 1.223-.781.344-1.336-.484a16.55 16.55 0 0 1-1.328-2.832c-.625-1.496-1.145-3.031-1.836-4.492a44.172 44.172 0 0 0-6.406-9.43c-3.95-4.66-8.762-6.648-14.614-7.347a.61.61 0 0 1 .422-.145.618.618 0 0 1 .41.164c.247.234.829.016.739-.387l-.184-.828a.822.822 0 0 0-.148-.367.794.794 0 0 0-1.07-.203c-7.579 3.992-.473 15.21 3.21 19.445a18.69 18.69 0 0 0 4.032 3.426c-4.457-1.406-8.836-3-13.141-4.773a15.98 15.98 0 0 1-.902-2.114 33.81 33.81 0 0 1-1.72-6.008 86.051 86.051 0 0 0-3.245-13.71 20.937 20.937 0 0 0-3.2-6.133 21.05 21.05 0 0 0-5.011-4.766c-2.012-1.41-4.13-2.867-6.168-4.351a20.166 20.166 0 0 0-5.664-3.016.385.385 0 0 0-.2.012c.169.46.344.91.52 1.363l.309.078.75.711.054.05c.016.094.07.145.164.157l.434.41a27.954 27.954 0 0 1 2.64 3.38 23.265 23.265 0 0 1 3.407 7.257c1.488 4.945 2.496 10.039 4.305 14.871 1.156 3.184 3 5.902 5.523 8.156-.36-.168-.707-.347-1.062-.52a43.881 43.881 0 0 1-4.872-3.956 26.565 26.565 0 0 1-5.007-6.282 48.472 48.472 0 0 1-3.75-7.46c-.786-1.985-1.668-3.946-2.34-5.973a.316.316 0 0 0-.102-.297c-.039-.156-.094-.309-.14-.469.648-.844.34-2.441-.961-1.902-1.301.543-.5 2.558.64 2.855.754 2.172 1.711 4.285 2.582 6.418a50.718 50.718 0 0 0 3.907 7.563 25.611 25.611 0 0 0 5.046 6.047c.88.84 1.778 1.554 2.707 2.304-.226-.117-.453-.246-.68-.363-.226-.113-.698-.46-1.007-.703a75.342 75.342 0 0 1-5.645-4.941 40.075 40.075 0 0 1-5.21-5.852 35.935 35.935 0 0 1-2.07-3.91c.491-.254.542-.942.402-1.461-.493-1.707-3.094-1.629-2.31.418a.44.44 0 0 0 .31.293c.175.262.398.472.668.637.914 1.386 1.57 2.898 2.558 4.273a40.934 40.934 0 0 0 4.488 5.098 118.84 118.84 0 0 0 5.446 4.851 154.114 154.114 0 0 1-18.504-11.808 6.05 6.05 0 0 1-.364-3.426c.258-1.262.684-2.485.993-3.746.664-2.145.894-4.332.691-6.567-.344-2.148-1.316-3.968-2.91-5.457a18.444 18.444 0 0 0-5.113-3.082c-.223-.043-.442-.082-.664-.144-.383-.004-.762.015-1.141.054.016.051.05.086.105.102 1.63 1.312 2.684 4.227 3.43 6.14a13.392 13.392 0 0 1 .656 7.051c-.453 1.73-.55 3.48-.293 5.25.02.098.047.196.079.29a157.844 157.844 0 0 1-17.629-16.402 15.908 15.908 0 0 0 3.554-3.177 21.105 21.105 0 0 0 2.27-4.86 25.18 25.18 0 0 0 1.941-11.339c-.336-3.883-2.433-7.336-3.496-11.14a18.52 18.52 0 0 1-.683-6.563c.148-1.781.648-3.418.937-5.172a.236.236 0 0 0-.039-.203.245.245 0 0 0-.176-.117.166.166 0 0 0-.148-.059.163.163 0 0 0-.14.086 23.22 23.22 0 0 0-3.067 5.629 31.058 31.058 0 0 0-2.086 5.723 25.572 25.572 0 0 0-.508 6c.004.738.004 1.46.059 2.183-.243-.332-.48-.64-.766-.96-1.715-1.934-3.336-.489-4.457 1.308a14.672 14.672 0 0 0-1.832 4 14.566 14.566 0 0 0-.567 4.36c.043 1.265.188 2.519.434 3.761l-.062-.059a.566.566 0 0 0-.157-.148l-.257-.246a.194.194 0 0 0-.086-.082 155.726 155.726 0 0 1-7.543-10.879 78.69 78.69 0 0 0-1-8.172c-.133-1.078-.153-4.215-1.508-4.781-1.551-.715-1.676 2.613-1.727 3.387a12.753 12.753 0 0 0 .371 3.332c-.379-.66-.746-1.313-1.109-1.973a2.205 2.205 0 0 1-.262-.113 54.713 54.713 0 0 0-2.343-6.582 20.686 20.686 0 0 0 2.304-2.551 21.477 21.477 0 0 0 3.895-7.203 25.255 25.255 0 0 0 1.52-7.653c.1-1.054.1-2.109.003-3.16-.152-1.039-.894-1.824-.992-2.836l.031-.191c.035-.266-.422-.402-.496-.149a.413.413 0 0 0-.316-.14.423.423 0 0 0-.317.137 28.978 28.978 0 0 0-4.847 6.82 29.068 29.068 0 0 0-2.711 7.914 20.55 20.55 0 0 0-.282 5.039 38.369 38.369 0 0 0-2.398-3.082 123.07 123.07 0 0 1-.95-3.164c-1.75-5.828-3.491-11.688-5.089-17.574.418.59.934 1.078 1.543 1.464 1.625 1.055 1.672-.085 3.113-.562 2.242-.719 5.067 3.488 7.621 3.668 4.5.289 1.094-6.16.582-7.984-.406-1.442-.355-3.153-.64-4.618a5.232 5.232 0 0 0 2.023.266 5.344 5.344 0 0 0 1.98-.512c1.528-.71 1.965-2.07 2.704-3.465 1.039-2.046 3.015-1.96 4.703-3.187a.391.391 0 0 0 .156-.441.394.394 0 0 0-.34-.32c-2.808-.34-5.105-.356-7.308-2.184-1.563-1.282-2.934-2.536-4.989-2.895a5.572 5.572 0 0 0-2.187.012 5.626 5.626 0 0 0-2.02.836c-.246.164-.464.36-.652.582a7.69 7.69 0 0 0-.934-4.191 7.657 7.657 0 0 0-3.035-3.044c-2.57-1.316-5.226-.492-7.652.723a16.552 16.552 0 0 1-4.922 1.828 15.462 15.462 0 0 1-5.426-.3.394.394 0 0 0-.41.195.393.393 0 0 0-.004.453c1.309 2.148 2.242 4.691 3.883 6.668a.39.39 0 0 0 .082.078c.106.098.211.2.316.3.106.098.133.126.204.192a4.787 4.787 0 0 0-2.012.36 4.813 4.813 0 0 0-1.688 1.152c-4.101 4.215.848 11.86 4.164 15.48.16.184.336.348.528.5a11.501 11.501 0 0 0 1.613 1.532c.145.12.3.136.469.05a.401.401 0 0 0 .226-.414 2.544 2.544 0 0 1 .028-.925.602.602 0 0 0 .062-.243l.106-.52c.03-.116.047-.237.043-.362a5.929 5.929 0 0 1 2.215-3.09c.324-.145 1.039 0 1.43-.13a3.72 3.72 0 0 0 1.714-1.12l.395-.414c.074.593.238 1.18.355 1.726.117.547.355 1.18.543 1.758a.508.508 0 0 0 .004.172c.105.453.23.906.371 1.375.066.652.219 1.281.46 1.894a.24.24 0 0 0 .099.09c1.375 5.344 2.828 10.66 4.441 15.946-.5-.477-1.004-.954-1.504-1.43a57.307 57.307 0 0 0-16.074-10.809l.008-.129c.136-.035.27-.078.398-.14a.347.347 0 0 0 .227-.332.347.347 0 0 0-.2-.348 2.616 2.616 0 0 0-.468-.176 6.325 6.325 0 0 0-1.532-2.605.699.699 0 0 0-.21-.203l-.067-.23a8.272 8.272 0 0 1 1.152-3.31c.274-.445-.296-.937-.773-.738-.406.153-.75.391-1.031.72a2.419 2.419 0 0 0-.555 1.128 16.073 16.073 0 0 0-5.383-4.547 19.228 19.228 0 0 0-8.222-1.926 29.343 29.343 0 0 0-4.336.368l-.242.042c-.77.106-1.56.196-2.32.223a10.578 10.578 0 0 1-3.973-.758c-.22-.09-.41-.05-.57.125a.41.41 0 0 0-.321.184.396.396 0 0 0-.063.36 23.076 23.076 0 0 0 7.184 11.96 23.145 23.145 0 0 0 3.836 2.742 9.556 9.556 0 0 0 3.863 1.305 9.603 9.603 0 0 0 4.063-.394 25.297 25.297 0 0 0 3.031-1.055c-.031.855.266 1.574.898 2.156.395.38 1.004-.066.922-.547a.68.68 0 0 0 .078-.258 4.056 4.056 0 0 1 .797-2.375.597.597 0 0 0 .672.266 1.89 1.89 0 0 0 1.461.316 1.915 1.915 0 0 0 1.238-.832 44.24 44.24 0 0 1 15.067 11.141 50.883 50.883 0 0 1 3.566 4.61 27.06 27.06 0 0 0-3.21-2.532 26.372 26.372 0 0 0-4.778-2.273 16.66 16.66 0 0 0-4.68-.68c-.133-.707-1.015-.695-1.52-.285-.081.016-.132.066-.144.148l-.133.141a.517.517 0 0 0-.074.25.603.603 0 0 0 .04.262.585.585 0 0 0 .152.21.541.541 0 0 0 .23.13c.086.125.195.226.328.308.563.25.973-.215 1.035-.687 2.98.41 5.785 1.336 8.426 2.773.707.418 1.383.879 2.027 1.39a28.892 28.892 0 0 0-1.957-.57 55.528 55.528 0 0 0-8.511-.898 35.167 35.167 0 0 0-3.903-.172c-1.175.04-2.332.25-3.5.313a.676.676 0 0 0-.203-.297c-.137-.313-.375-.469-.719-.477a.589.589 0 0 0-.425.188.588.588 0 0 0-.168.437c-.11.043-.22.098-.32.16-.137.102-.176.23-.122.39a.94.94 0 0 0 .782.556l.085.086a.77.77 0 0 0 .637-.047.765.765 0 0 0 .246-.215.763.763 0 0 0 .137-.297c1.895-.059 3.727-.398 5.672-.242 2.246.14 4.516.27 6.75.496 2.133.187 4.203.66 6.21 1.414.122.059.247.11.376.152.289.278.582.551.879.836.59.563 1.328 1.074 1.89 1.696a42.593 42.593 0 0 0 1.97 4.597 18.685 18.685 0 0 0 2.304 4.117c-.07-.078-.149-.148-.227-.218a49.091 49.091 0 0 0-5.023-3.813A34.057 34.057 0 0 0 41 230.238c-2.148-.363-4.164-.906-6.285-1.21-2.121-.31-4.352-.2-6.485-.532-3.52-.543-7.25-.973-10.527.77-.265.136-.039.55.227.449a15.918 15.918 0 0 1 5.722-.86c1.926.02 3.743.504 5.645.586 4.375.204 8.691.836 12.945 1.891a35.844 35.844 0 0 1 12.23 5.469c1.13.804 2.286 1.648 3.34 2.566a40.84 40.84 0 0 0-4.39-1.27c-3.207-1.1-6.457-2.124-9.633-3.35a78.615 78.615 0 0 0-9.64-3.13c-1.56-.387-3.169-.578-4.743-.898a11.831 11.831 0 0 0-4.207-.278c-.265.047-.238.461.035.418 2.73-.386 5.637.73 8.235 1.438 3.176.836 6.3 1.832 9.375 2.988 2.593.957 5.164 2.078 7.82 2.809 1.574.422 3.125.906 4.684 1.363 1.129.246 2.199.648 3.21 1.207-.578.063-1.148.16-1.71.3-1.868.434-3.762.661-5.68.688a29.018 29.018 0 0 1-5.813-.492 18.147 18.147 0 0 1-5.64-2.21c-1.863-1.016-3.488-2.36-5.403-3.305a95.89 95.89 0 0 0-6.105-2.747 38.272 38.272 0 0 0-5.531-1.601c-1.207-.297-4.149-.711-4.95-1.723-.195-.183-.515.031-.343.242a5.112 5.112 0 0 0 2.738 1.243c2.059.617 4.18 1.191 6.176 1.964 1.996.774 4.031 1.72 6.02 2.622a56.315 56.315 0 0 1 6.261 3.53 19.205 19.205 0 0 0 10.188 3.21 43.288 43.288 0 0 0 6.12-.233c1.384-.226 3.09-.984 4.532-.718.004.109.05.195.145.254l.082.074c.03.136.117.215.253.242a157.217 157.217 0 0 0 10.196 15.726c-.117-.109-.305-.156-.446-.218-1.125-.582-2.171-1.242-3.253-1.867-3.325-1.934-6.239-4.016-10.02-5.094a30.37 30.37 0 0 0-12.156-1.313c-1.91.246-3.79.707-5.68 1.024-1.266.18-2.465.57-3.594 1.175a.169.169 0 0 0-.125.13c-.195.081-.187.445.063.464 3.812.149 7.492.914 11.047 2.301 3.468 1.5 6.457 3.785 10.03 5.172 4.567 1.754 11.145 3.012 15.716.367a160.869 160.869 0 0 0 6.789 8.274c-.676-.56-1.324-1.258-1.875-1.665a16.926 16.926 0 0 0-3.324-2.05c-1.973-.871-4.57-1.594-6.391.043-2.95 2.644 1.672 7.285 4.71 6.52a.421.421 0 0 0 .266-.324.404.404 0 0 0-.136-.392c-.297-.183-.156-.453.203-.515.371.105.723.258 1.05.465.485.195.981.359 1.489.492 1.215.367 2.453.5 3.715.394a4.346 4.346 0 0 0 2.23-.797A157.403 157.403 0 0 0 96.2 285.438c1.438 1.199 2.895 2.363 4.38 3.503a.622.622 0 0 0-.224.09 71.158 71.158 0 0 0-9.578-4.183 31.753 31.753 0 0 0-4.129-.946 15.523 15.523 0 0 1-2.027-.882 14.096 14.096 0 0 1-3.387-2.73 5.4 5.4 0 0 0-1.816-1.798 5.488 5.488 0 0 0-2.434-.785 13.125 13.125 0 0 1-3.535-1.18c-.828-.449-1.59-1.023-2.402-1.507-1.508-1.008-3.164-1.465-4.977-1.38-.742-.117-.73.329-1.695-.753a8.44 8.44 0 0 1-.973-1.813 5.155 5.155 0 0 0-1.668-2.054 9.556 9.556 0 0 0-5.578-1.43c-1.636-.008-3.086.5-4.351 1.531a7.921 7.921 0 0 0-.098-.797 4.037 4.037 0 0 1-.113-2.078c.14-.703.445-1.324.91-1.867a3.714 3.714 0 0 0 1.246-1.313.365.365 0 0 0-.012-.336.36.36 0 0 0-.273-.19c-1.89-.216-3.578.858-5.457.948-1.727-.05-3.262.461-4.61 1.535-1.671 1.426-2.25 3.692-3.492 5.446a1.478 1.478 0 0 0-.183 1.601 2.542 2.542 0 0 0-1.223.043 2.543 2.543 0 0 0-1.063.598 3.958 3.958 0 0 0-.769 1.613 3.936 3.936 0 0 0 .008 1.785c.101.899.328 1.77.445 2.668.035.903.258 1.758.668 2.563.43.676 1.156 1.094 1.5 1.84.211.445.402.898.57 1.36a5.204 5.204 0 0 0 1.332 2.339c.567.355 1.024.172 1.407-.34.308-.453.488-.953.539-1.5.062-.559-.067-1.113.008-1.664.085-.45.214-.89.378-1.316-.101 1.457.055 2.89.461 4.293.598 2.421 1.614 3.789 4.114 4.488a11.542 11.542 0 0 1 4.379 2.219 8.786 8.786 0 0 0 3.378 1.734c1.668.36 4.696.469 6.075-.7a.275.275 0 0 0 .125-.222.275.275 0 0 0-.114-.234c-1.668-1.77-3.535-3.457-3.918-5.996a9.917 9.917 0 0 0-1.234-4.524 11.891 11.891 0 0 0-4.016-3.46l-.304-.192c.25.105.504.21.754.3.015.09.066.137.16.15 3.527 1.577 6.746 3.476 10.582 3.87 1.746.18 3.496.266 5.254.25a12.536 12.536 0 0 0-2.934 1.887 16.233 16.233 0 0 0-2.047 2.16 7.148 7.148 0 0 1-1.449 1.523c-.59.41-1.246.606-1.8 1.051-.102.082-.13.188-.083.313.047.12.137.183.266.18 1.383-.364 2.851.21 4.266.132a5.26 5.26 0 0 0 2.855-.926c1.906-1.355 2.336-4.226 2.824-6.378l.121-.004a.394.394 0 0 0 .32.144.39.39 0 0 0 .32-.152c1.438-.012 2.852-.02 4.282.012 4.418-.028 8.79.406 13.117 1.304a65.59 65.59 0 0 1 10.868 4.203l.253.243a35.009 35.009 0 0 0-5.113-1.372 26.28 26.28 0 0 0-9.316.766c-2.504.57-5.27 1.613-6.883 3.715-.91 1.262-2.05 3.36-1.094 4.855a.216.216 0 0 0-.18.075.215.215 0 0 0-.062.183l.094.356c.05.23.367.148.406-.035l.102-.32c.093 0 .168-.04.222-.118a.26.26 0 0 0 .028-.25.944.944 0 0 0-.051-.18c2.113-4.691 10.129-2.105 14.031-2.02 3.902.09 7.418-1.796 10.566-3.948.196.003.391-.012.586-.047 13.621 10.047 28.477 17.691 44.567 22.941-3.438-.262-6.91-.328-10.324-.86a168.857 168.857 0 0 1-17.32-4.183c-5-1.316-9.91-2.598-15.094-2.61-5.18-.015-10.813-.96-16.036.833-.312.12-.394.664-.023.781 5.84 1.895 10.59 5.734 15.848 8.77a83.28 83.28 0 0 0 14.378 6.52 56.958 56.958 0 0 0 14.997 3.151 47.801 47.801 0 0 0 15.605-1.93c6.45-1.73 12.695-4.14 19.309-5.109l.05-.054c.293.062.586.105.88.148a16.29 16.29 0 0 0-1.27 2.012l-.88.836a18.14 18.14 0 0 0-3.46 5.41c-1.777 2.363-3.606 4.695-5.176 7.21a40.685 40.685 0 0 0-5.48 17.169 3.03 3.03 0 0 0-1.403.348c-.132.054-.191.152-.18.296a5.015 5.015 0 0 0 .883 2.829c.07.101.168.156.29.164a.382.382 0 0 0 .312-.13c.563-.714.773-1.519.625-2.417-.016-.106-.074-.16-.176-.168l.028-.227a.906.906 0 0 1 .527.504c.21.434.203 1.129-.387 1.305-.23.066-.144.453.098.41.871-.106 1.094-1.152.785-1.867a1.39 1.39 0 0 0-.953-.903 43.599 43.599 0 0 1 5.91-16.964c.934-1.461 1.953-2.868 2.992-4.262a47.995 47.995 0 0 0-2.465 8.363c-1.164 6.516-.433 14.461 6.032 17.922 1.578.844 5.468 3.063 7.367 1.785.012.11.031.219.058.324-.054.164-.003.282.157.348.12.188.289.313.507.367a.22.22 0 0 0 .18-.07.219.219 0 0 0 .063-.184c.39.04.765-.03 1.117-.21.351-.18.625-.438.824-.778.102-.16.172-.332.211-.516.035-.187.04-.37.004-.558a1.52 1.52 0 0 0-.566-.938 1.729 1.729 0 0 0-1.41-.082 1.724 1.724 0 0 0-1.008.989c-.094.257-.153.52-.168.793a.13.13 0 0 0-.067.07c-1.152.918-3.562-.2-4.676-.668a14.222 14.222 0 0 1-3.886-2.219c-3.5-3.023-4.637-7.754-4.39-12.191a40.194 40.194 0 0 1 3.058-12.621c.332-.825.66-1.668 1.02-2.5l1.027-1.387c.98-1.332 1.976-2.68 2.875-4.067l.562-.875.84-.69c-.707 3.745 5.055 10.288 8.46 9.421 4.462-1.172-3.105-7.688-5.769-10.719a159.552 159.552 0 0 0 28.27 1.719c-3.23 1.727-5.258 5.394-8.918 6.992-.426.184-.328.926.176.836a40.387 40.387 0 0 0 11.48-3.922 16.53 16.53 0 0 0 4.98-4.308c3.489-.274 6.977-.66 10.462-1.157a12.564 12.564 0 0 0 4.542-.71c2.25-.387 4.489-.829 6.72-1.325-.5.196-1.005.387-1.49.598a94.136 94.136 0 0 0-15.894 9.172c-10.882 7.402-21.558 15.152-33.925 19.972a.76.76 0 0 0-.293 1.227.742.742 0 0 0 .425.238c5.395 1.274 10.887-.578 16.02-2.136a107.335 107.335 0 0 0 18.965-7.114 108.56 108.56 0 0 0 18.738-12.219c1.129-.937 2.352-1.855 3.59-2.804l-.707.617c-6.516 5.54-12.906 10.91-20.27 15.223-5.964 3.496-11.156 7.675-13.445 14.496-1.57 4.687-.781 9.308.504 13.879-.043 1.304.352 2.457 1.191 3.457.395.375 1.055-.07.7-.489-.075-.093-.149-.187-.215-.289l.527-.554c.379-.395-.281-.938-.617-.586l-.117.125a51.548 51.548 0 0 1-.489-1.707 13.898 13.898 0 0 1 2.567-7.325 28.18 28.18 0 0 1 10.566-8.39c6.77-3.356 13.516-6.207 19.352-11.152 7.101-6.016 19.137-19.274 12.68-29.461a157.46 157.46 0 0 0 20.738-8.946c-3.953 4.168-6.285 10.274-7.41 15.64-1.141 4.919-1.063 9.821.242 14.7a49.39 49.39 0 0 0 5.398 12.379c1.328 2.133 3.489 5.238 6.465 4.465.192-.02.29-.125.3-.317.477.153.97.227 1.47.223a.838.838 0 0 0 .586-.308.823.823 0 0 0 .187-.633c-.176-8.758 4.36-17.063 4.484-25.89a23.622 23.622 0 0 0-2.59-10.4c-1.785-3.886-3.94-7.827-3.41-12.28a.397.397 0 0 0-.18-.4.398.398 0 0 0-.433-.034 156.416 156.416 0 0 0 21.66-14.766c-1.144 5.156.239 13.07 6.535 11.73a.573.573 0 0 0 .485-.511c1.305-4.406-4.125-9.043-4.79-13.106a156.233 156.233 0 0 0 13.81-13.148c.296 2.227-.633 4.422-1.231 6.586a34.373 34.373 0 0 0-.969 5.945 22.029 22.029 0 0 0 2.145 12.188 44.442 44.442 0 0 1 3.945 15.25c.477 6.27-1.898 10.695-4.313 16.254a.652.652 0 0 0 .141.695c.188.203.414.27.68.203 4.797-1.91 8.449-6.46 11.238-10.633a28.579 28.579 0 0 0 3.777-7.386 28.49 28.49 0 0 0 1.504-8.16 35.051 35.051 0 0 0-.941-9.044 35.075 35.075 0 0 0-3.223-8.5 31.658 31.658 0 0 0-5.156-6.918 61.322 61.322 0 0 0 7.555 3.051 37.472 37.472 0 0 0 11.93 2.203c3.355.086 7.288.438 10.304-1.32.48-.297-.008-.98-.492-.719-2.883 1.551-6.75 1.16-9.906 1.063a37.916 37.916 0 0 1-11.418-2.086 44.21 44.21 0 0 1-10.082-4.434 23.232 23.232 0 0 1-1.555-1.89c4.566 3.445 11.055 5.117 16.379 5.687.535.055.71-.75.133-.828-5.625-.586-12.832-2.473-17.215-6.57 2.805 1.511 6.117 1.726 8.984 3.187.485.246.836-.527.348-.773-3.16-1.625-7-1.621-9.875-3.715a.403.403 0 0 0-.352-.066l-.086-.23c7.707-1.06 15.329-2.278 21.88 3.14 4.292 3.539 8.042 8.324 14.19 7.195.532-.082.466-.934-.081-.832-7.645 1.398-11.438-6.34-17.239-9.367Zm-10.78-38.48c3.093-.594 5.097 2.73 6.835 4.921.281.266.508.664.793 1.035a13.918 13.918 0 0 1-4.348-2.297 13.783 13.783 0 0 1-3.28-3.66Zm-2.595 17.335a67.015 67.015 0 0 1-11.207 2.489c-.539.074-.464.914.075.84a81.856 81.856 0 0 0 11.484-2.493c1.168-.351 2.437-.699 3.687-1.12-4.293 3.1-9.058 5.026-14.3 5.78-5.524.633-12.336.645-17.918-1.625 3.586.192 7.605-1.148 10.64-2.136 4.461-1.473 8.664-3.73 13.25-4.852 3.508-.855 8.254-1.441 12.051-.484a63.831 63.831 0 0 1-7.762 3.601Zm-88.144 46.465c.074.274.144.57.191.852-.086-.082-.183-.176-.222-.328-.243-.38-.993-1.512-.711-2a.554.554 0 0 0 .047-.157c.312.512.542 1.055.695 1.633Zm-.176-2.71a1.327 1.327 0 0 0-.535-.126l.21-.855c.13.324.224.648.325.98Zm-1.894-4.231a6.005 6.005 0 0 0-.797-.926c.445.14.718.441.82.898Zm-5.586 14.527a6.567 6.567 0 0 1-3.938 1.547 6.532 6.532 0 0 1-2.129-.246 6.6 6.6 0 0 1-1.941-.914c-1.672-1.29-2.086-3.66-4.012-4.684a9.845 9.845 0 0 0-2.207-.586c-2.598-.793-3.64-2.554-3.008-4.984.508-2.016 1.84-3.7 2.817-5.485a.573.573 0 0 0 0-.378.538.538 0 0 0-.235-.297.565.565 0 0 0-.71.082 21.398 21.398 0 0 0-1.766 2.777 5.388 5.388 0 0 1-2.563 1.793 5.317 5.317 0 0 1-3.129.07c-3.047-.832-6.496-5.066-3.265-7.941 1.824-1.617 2.941-2.23 3.093-5.02.157-1.925-.324-3.89.45-5.765.207-.567.48-1.094.824-1.586.34-.496.738-.938 1.195-1.324.457-.391.957-.715 1.496-.977a6.89 6.89 0 0 1 1.7-.562c1.96-.325 3.874-.141 5.742.55a3.63 3.63 0 0 1 1.43 1.114c.382.492.624 1.043.73 1.656a43.58 43.58 0 0 0-.207 4.344c-.012.156.054.261.199.32a.505.505 0 0 0 .379.32c.09.012.172.008.258-.023a.524.524 0 0 0 .21-.145c1.13-1.437.934-4.004.223-5.847l.082-.262c1.36-3.832 4.13-2.442 6.602-1.2 2.473 1.243 5.101 1.012 7.785 1.766 3.055.86 6.86 4.016 7.16 7.352.54 5.957-4.816 6.832-9.277 7.351a.774.774 0 0 0-.477.204.778.778 0 0 0-.246.453c-2.64-1.489-6.457-2.235-9.183-3.598-.489-.246-.828.52-.348.773 4.469 2.352 11.8 2.832 11.195 8.957a.33.33 0 0 0-.039.235c-.047.238-.074.48-.137.742-1.332 3.941-3.8 8.48-4.753 9.418Zm17.566 3.164.113.11c-2.972 1.578-6.222 3.484-9.539 2.261 2.293-2.41 6.309-1.347 9.293-2.547a.58.58 0 0 0 .133.176ZM54.941 185.344a5.554 5.554 0 0 1 4.625-.441c.508.175.977.417 1.414.73 1.66 1.058 2.852 2.71 4.786 3.355 1.191.375 2.41.578 3.66.614a9.48 9.48 0 0 0-2.57 1.242c-1.231 1.011-1.376 2.664-2.36 3.84a3.91 3.91 0 0 1-1.137.851c-.43.215-.886.348-1.363.395a3.982 3.982 0 0 1-2.7-.723 4.484 4.484 0 0 0-.628-.984 15.59 15.59 0 0 1-.266-.25 2.378 2.378 0 0 0-.773-1 2.349 2.349 0 0 0-1.172-.477.221.221 0 0 0-.172.02 6.402 6.402 0 0 0-2.2-.414 2.36 2.36 0 0 0-.042-.329 7.927 7.927 0 0 1 2.062.07c1.079.098 2.137.302 3.18.606.258.078.324-.344.074-.418a17.93 17.93 0 0 0-4.09-.648c-.222-.012-.43-.024-.652-.02.895-.351 1.82-.59 2.774-.715a12.584 12.584 0 0 1 5.152-.132c.25.09.437-.286.176-.399-1.856-.742-4.723-.316-6.551.176a8.97 8.97 0 0 0-2.348.937 2.065 2.065 0 0 0-.25-.406 9.117 9.117 0 0 1 2.797-1.797 9.554 9.554 0 0 1 3.805-1.078c.273-.008.238-.43-.035-.422-1.778.118-3.43.63-4.961 1.54-.7.382-1.332.851-1.899 1.413-.093-.093-.191-.183-.289-.277l.09-.2a5.541 5.541 0 0 1 2.508-2.64c.246-.136-.004-.472-.242-.347a5.797 5.797 0 0 0-2.235 1.964c-.183.297-.34.606-.464.93a2.588 2.588 0 0 0-.239-.222c1.008-1.325.98-3.293 2.516-4.364Zm-22.34-4.082c2.079.406 4.149.355 6.208-.153 2.629-.718 4.886-2.73 7.656-2.93 5.726-.406 8.617 7.282 4.707 11.169a3.705 3.705 0 0 0-1.719.047 7.66 7.66 0 0 0-.578-2.41 4.884 4.884 0 0 0-1.773-2.403 17.335 17.335 0 0 0-3.766-2.207c-.262-.078-.434.297-.172.39a11.194 11.194 0 0 1 4.25 3.27c.86 1.102 1.223 2.344 1.094 3.735a3.062 3.062 0 0 0-.371.265c-.508-2.426-3.086-4.488-5.282-5.23-.257-.082-.437.3-.18.398a8.105 8.105 0 0 1 2.735 1.973 7.17 7.17 0 0 1 1.735 2.37 12.475 12.475 0 0 0-2.364-2.077 9.738 9.738 0 0 0-4.797-1.707c-.265-.02-.359.379-.074.414a10.81 10.81 0 0 1 3.785 1.43 10.88 10.88 0 0 1 3.008 2.707 4.967 4.967 0 0 0-1.848-.293l-.05.05c-.649-.144-1.293-.257-1.899-.398a63.579 63.579 0 0 0-3.8-.692 10.992 10.992 0 0 0-1.665-.542c-2.414-1.758-3.511-4.676-4.84-7.176Zm9.712 19.37c-.715.243-1.575-.105-2.286.274-1.496.711-1.832 2.246-1.87 3.735l-.032.14-.07.602-.336-.317a.523.523 0 0 0-.149-.144 20.395 20.395 0 0 1-4.566-6.817c-1.297-3.222-2.129-9.207 3.281-8.87.403.035.793.109 1.176.226.027.02.05.039.07.066.961.637 1.996 1.118 3.106 1.442 1.715.488 3.468.75 5.25.785.203.07.406.125.617.164l-.207.074c-.555.074-1.05.156-1.317.153-2.003.007-4.335-.215-6.203.675-.246.118-.097.508.149.39a11.461 11.461 0 0 1 5.46-.456l-.433.156c-1.55.328-3.07.754-4.566 1.278a5.183 5.183 0 0 0-1.543.816c-.465.36-.86.789-1.176 1.285a5.047 5.047 0 0 0-.68 1.61 5.028 5.028 0 0 0-.101 1.742c.008.273.425.238.41-.047-.04-.27-.055-.543-.04-.82a4.118 4.118 0 0 1 .391-1.587 4.14 4.14 0 0 1 .422-.703c.164-.222.348-.425.551-.609.203-.188.422-.348.66-.492a4.264 4.264 0 0 1 1.535-.555c.97-.195 1.95-.433 2.946-.719a26.116 26.116 0 0 0 3.23-1.035l.563-.222c-.578.324-1.13.691-1.649 1.101a22.558 22.558 0 0 0-1.933 1.68c-.692.73-2.07 2.004-1.395 3.113.133.227.48-.012.344-.242-.656-1.074 1.492-2.734 2.176-3.313a11.093 11.093 0 0 1 2.535-1.507 3.4 3.4 0 0 0 .18.52c-.524 2.35-2.083 5.593-4.5 6.429Zm5.902 2.606a7.725 7.725 0 0 1-1.27-3.14 7.754 7.754 0 0 1 .18-3.387c.18-.434.32-.867.422-1.274.316.352.683.637 1.105.848.34.3.72.528 1.145.684-.031.226-.043.449-.055.636.051 1.008.235 1.993.551 2.954.066.261.48.254.437-.04a18.922 18.922 0 0 1-.19-2.44c0-.25-.024-.579-.044-.911.227.027.453.031.68.008a2.715 2.715 0 0 0 1.015-.278c.305.457.598.942.895 1.422.836 1.43 1.86 2.77 2.613 4.305.117.246.508.102.39-.145a41.729 41.729 0 0 0-2.37-3.925 72.932 72.932 0 0 0-1.164-1.809c.12-.11.234-.226.336-.355.441.09.87.226 1.28.414a8.717 8.717 0 0 1 2.786 2.36c.176.167.527.046.418-.208a5.33 5.33 0 0 0-1.61-2.082 5.29 5.29 0 0 0-2.41-1.063c.45-.75.665-1.562.645-2.437 1.992.422 3.89 1.387 4.492 3.398.352 1.184.215 2.579.488 3.809.27 1.23 1.364 2.973 1.403 4.379.062 1.082-.895 2.707-1.856 2.66a9.732 9.732 0 0 1-2.46-1.48c-1.61-.973-2.837-1.993-4.547-1.922-.47.023-.493.789-.836.883-.743.113-1.98-1.211-2.442-1.836Zm-18.305 3.203a7.668 7.668 0 0 0-.848-.656c-.16-.148-.777-.398-1.144-.664l.379.059c.55.097 1.035.34 1.445.718.067.176.113.375.168.543Zm-2.95 1.118c-.655.027-1.3.117-1.937.273a28.632 28.632 0 0 1-3.27-.242c-.265-.004-.23.418.044.43.57 0 4.566.765 5.523.218.133.344.309.66.532.957a21.388 21.388 0 0 1-5.887.184c-1.86-.41-3.684-.93-5.48-1.55-.27-.071-.337.35-.075.413 1.961.66 3.953 1.207 5.977 1.64 1.883.263 3.761.255 5.636-.023l.13-.011c.042.093.09.183.144.27a11.88 11.88 0 0 1-3.55 1.269c-1.45.398-2.84.097-4.267.402-.265.05-.23.469.036.418.84-.078 1.683-.086 2.527-.012a16.453 16.453 0 0 0 2.96-.367 9.745 9.745 0 0 0 1.794-.46 22.246 22.246 0 0 1-3.383 1.445c-3.5 1.148-6.254.324-9.152-1.825a22.967 22.967 0 0 1-4.676-4.386 22.993 22.993 0 0 1-3.29-5.504 22.73 22.73 0 0 0 4.161 2.507 23 23 0 0 0 14.25 1.707c.43.747.848 1.493 1.254 2.247Zm-1.46-3.313-.129.012c-.414-.61-.664-1.317-1.074-1.922-.078-.117-.176-.133-.293-.055-.113.082-.133.18-.05.293.362.551.57 1.164.937 1.746-.309.043-.625.094-.934.121l-.14-.136a6.25 6.25 0 0 1-.43-.711 4.93 4.93 0 0 1-.598-1.418c-.059-.258-.469-.227-.426.047.18.664.461 1.289.836 1.867.082.074.137.246.235.39l-.891.075a17.748 17.748 0 0 1-1.379-2.43c-.117-.246-.516-.09-.39.145.367.8.792 1.574 1.269 2.312-.324.008-.64.027-.961.008a13.34 13.34 0 0 1-.914-1.754c-.117-.246-.516-.106-.398.14.253.544.492 1.087.789 1.602-.25 0-.5-.004-.75-.023a5.347 5.347 0 0 1-1.262-2.305c-.031-.266-.453-.227-.418.04.183.831.55 1.57 1.105 2.218-.312-.024-.629-.043-.949-.078a12.939 12.939 0 0 1-1.375-2.078c-.144-.235-.492.003-.348.242.333.613.7 1.199 1.114 1.758l-.778-.133a10.64 10.64 0 0 1-1.617-2.39c-.101-.212-.48-.024-.363.187.367.754.816 1.46 1.34 2.113-.39-.078-.77-.172-1.14-.277a.234.234 0 0 0 .152-.125.237.237 0 0 0 .02-.2.254.254 0 0 0-.126-.152.262.262 0 0 0-.195-.02 3.551 3.551 0 0 1-1.676-1.921c-.133-.246-.473.004-.344.238.336.73.817 1.348 1.438 1.855-.371-.12-.742-.238-1.117-.375a.17.17 0 0 0 .09-.152.168.168 0 0 0-.083-.16c-.593-.445-.996-1.098-1.609-1.528-.102-.058-.188-.046-.27.036-.078.086-.085.175-.023.27.473.402.922.827 1.348 1.28a20.252 20.252 0 0 1-5.88-3.671c4.352 1.117 8.813-.758 13.278.027a14.54 14.54 0 0 1 7.426 3.434 8.005 8.005 0 0 1 1.828 2.292.508.508 0 0 0-.125-.117 5.063 5.063 0 0 0-1.555-.34c.184-.195-.011-.515-.238-.343l-.07.07c-.176-.254-.364-.48-.532-.727a.465.465 0 0 0-.238-.226.219.219 0 0 0-.023-.207 2.433 2.433 0 0 1-.489-.88c-.046-.265-.468-.23-.418.036.051.465.204.89.461 1.277-.246.102-.351.286-.32.551a.561.561 0 0 0-.328.172Zm31.582 25.856c-.125-.118-.2-.29-.289-.442a21.798 21.798 0 0 1 .477-7.168 28.705 28.705 0 0 1 2.593-6.926 28.754 28.754 0 0 1 4.27-6.035c-1.613 4.293-4.02 8.309-5.028 12.813-.468 2.097-.687 4.25-1.34 6.277-.16.488-.417 1.113-.581 1.727a.909.909 0 0 0-.102-.246Zm.441.804c.32-.957.707-1.886 1.157-2.789.675-2.02.8-4.18 1.308-6.246 1.032-4.176 3.117-7.887 4.578-11.879.055.266.13.524.22.778a8.393 8.393 0 0 1 .35 3.265 24.79 24.79 0 0 1-1.25 7.488c-1.21 3.606-3.027 7.473-6.038 9.977-.11-.207-.227-.398-.344-.613Zm7.141 14.617a6.63 6.63 0 0 1-.898-4.87c.07-.27-.344-.329-.418-.079a5.27 5.27 0 0 0-.121 2.196c-.29-.84-.504-1.696-.645-2.57a12.638 12.638 0 0 1-.086-3.434c.106-.887.266-2.293.93-.875a16.58 16.58 0 0 1 1.12 5.754c.141 1.507.352 2.996.505 4.496Zm13.422-.164c.227-.168.48-.238.762-.218.988.105 1.761 1.675 2.152 2.464a18.449 18.449 0 0 1 2.281 6.856c.344 2.262.453 4.539.324 6.824a15.495 15.495 0 0 1-.585 3.012c-.313 1.11-.594 2.918-1.473 3.808l-.617-.687c.195-4.008.047-8-.45-11.98-.335-1.997-.824-3.97-1.218-5.95a9.856 9.856 0 0 0-1.172-4.058Zm-.883 16.176c.383.953.66 1.95 1.129 2.867a150.7 150.7 0 0 1-3.23-3.941 17.365 17.365 0 0 1-.805-5.57 13.927 13.927 0 0 1 .723-4.598 13.944 13.944 0 0 1 2.187-4.113l.05-.051a16.14 16.14 0 0 0-.35 3.3c-.106 2.473.077 4.93.542 7.364.313 2.492.82 4.941 1.531 7.352.137.418.297.882.48 1.359a12.08 12.08 0 0 1-.89-1.582c-.382-.817-.629-1.703-.925-2.555-.168-.21-.57-.07-.461.184Zm2.043 1.942a51.239 51.239 0 0 1-1.328-6.454c-.39-1.98-.606-3.98-.652-6a23.819 23.819 0 0 1 .23-3.613c.074-.52.176-1.035.313-1.547.863 1.422.914 3.434 1.265 5.004.406 1.88.817 3.758 1.09 5.676a67.25 67.25 0 0 1 .27 10.305 20.758 20.758 0 0 1-1.196-3.364Zm-20.008-6.188c-2.086-.96-4.093-2.078-6.136-3.098a23.891 23.891 0 0 0-7.903-2.261c-.12.004-.187.066-.207.183-.015.117.028.196.14.239a24.774 24.774 0 0 1 8.65 2.835c2.202 1.208 4.406 2.41 6.71 3.391a19.825 19.825 0 0 0 7.778 1.793c-4.918.875-10.247-.57-14.614-2.691-3.105-1.508-5.867-3.63-9.195-4.66a28.806 28.806 0 0 0-8.602-1.352 33.865 33.865 0 0 1 3.996-.676c2.012-.351 3.989-.887 5.989-1.015 4.656-.176 9.12.66 13.398 2.507a92.866 92.866 0 0 1 8.578 5.082 18.922 18.922 0 0 0 3.29 1.684l.167.16c-4.074.817-8.187-.305-12.039-2.12Zm23.008 11.633a20.328 20.328 0 0 0 2.293-5.36 27.676 27.676 0 0 0 1.32-5.746 37.35 37.35 0 0 0-.039-5.8c-.007-.996.121-1.996.051-3a18.317 18.317 0 0 0-.777-3.22c-.067-.26-.469-.124-.403.142a18.43 18.43 0 0 1 .77 3.14c.016.906-.016 1.809-.094 2.711a50.765 50.765 0 0 1-.312 5.867c-.168 1.094-.352 2.258-.625 3.39.066-1.124.058-2.25-.028-3.374a23.75 23.75 0 0 0-2.129-9.543 25.396 25.396 0 0 1 .192-10.168 34.255 34.255 0 0 1 1.824-5.29c.508-1.273.988-2.558 1.602-3.769a16.985 16.985 0 0 0-.36 2.621 19.454 19.454 0 0 0 .133 5.153c.582 3.566 2.262 6.773 3.313 10.199a20.4 20.4 0 0 1 .64 6.281 20.54 20.54 0 0 1-1.285 6.184 50.231 50.231 0 0 1-2.008 5.078 13.297 13.297 0 0 1-3.996 4.578Zm-41.973 1.863.36-.379a8.58 8.58 0 0 1 .597-.84c.34-.535.618-1.09.938-1.656a6.212 6.212 0 0 1 1.437-2.113 6.274 6.274 0 0 1 2.157-1.375c1.16-.18 2.324-.305 3.496-.363a27.316 27.316 0 0 1 3.328-.844c-.469.375-.902.793-1.297 1.246a4.06 4.06 0 0 0-.543 2.016c-.07 1.289.379 2.37.09 3.433a9.836 9.836 0 0 0-2.285 5.688 2.334 2.334 0 0 0-.934-.551c.45-1.14.762-2.32.942-3.531.027-.278-.38-.36-.414-.075a16.838 16.838 0 0 1-.942 3.512 2.43 2.43 0 0 0-.558.004 14.826 14.826 0 0 1-.426-5.195c.011-.274-.387-.367-.422-.067a14.303 14.303 0 0 0 .406 5.414.954.954 0 0 0-.297.188c-.941-1.25-1.664-2.64-2.508-3.957-.144-.238-.496.012-.343.242a42.878 42.878 0 0 0 2.472 4.023c-.109.133-.187.282-.238.446 0 0-.086-.086-.129-.125l.082-.09c.04-.086.024-.164-.047-.23-.07-.07-.148-.079-.234-.036-.965-1.465-2.281-2.476-3.945-3.027a.218.218 0 0 0-.125-.117Zm2.598 11.61a.164.164 0 0 0 .063.175c-.102.243-.18.493-.239.746-.129.579-.011 1.16-.101 1.747-.051.32-.297 1.39-.824 1.378-.258-.011-.528-.586-.637-.773a30.268 30.268 0 0 0-1.723-3.477 9.763 9.763 0 0 1-1.097-1.277 6.916 6.916 0 0 1-.594-2.726 13.429 13.429 0 0 1-.387-3.618c.324-2.37 2.719-1.875 4.16-.855a9.887 9.887 0 0 1 1.887 1.793c-.04.144.012.234.16.27l.055.05c.12.117.238.227.285.406.152.329.332.653.504.98a4.04 4.04 0 0 0-.653-.386 3.445 3.445 0 0 0-.875-.293c-.27-.039-.746.094-.972-.02-.227-.113-.406.25-.18.383.227.133.285.055.442.067a2.945 2.945 0 0 1 1.468.305c.164.082.317.175.461.289a3.654 3.654 0 0 0-1.676.351c-.53.25-.98.606-1.343 1.067-.059.101-.047.191.039.27.082.077.172.085.27.023a3.287 3.287 0 0 1 1.183-.918c.465-.211.953-.313 1.465-.301a11.054 11.054 0 0 1-2.102 2.21c-.234.145.004.489.235.356.93-.539 1.527-1.785 2.382-2.512.09.012.18.028.27.055a4.705 4.705 0 0 1-.442 1.54 5.108 5.108 0 0 0-1.53 2.652Zm14.246 4.066a9.356 9.356 0 0 0 1.442 4.601 10.878 10.878 0 0 0 1.62 1.82c.387.372 1.063.645.86 1.055l-.035.036c-2.363-.051-4.234-1.38-6.25-2.47-.191-.183-.402.25-.176.384a16.318 16.318 0 0 0 5.723 2.457c-.281.031-.582.031-.781.043a9.086 9.086 0 0 1-3.18-.242 9.066 9.066 0 0 1-2.906-1.32 13.148 13.148 0 0 0-4.188-2.47 7.421 7.421 0 0 1-3.023-1.19 5.16 5.16 0 0 1-1.336-2.813c-.43-1.68-.88-3.817-.098-5.454a.27.27 0 0 0 .04-.164l.124-.129c.414-.296.836-.546 1.25-.859a4.511 4.511 0 0 0 1.238 3.02c.204.191.461-.133.293-.309a4.156 4.156 0 0 1-1.199-2.812c.078.05.164.093.254.12.137.04.277.063.422.067.621 1.02 1.297 2 2.027 2.945.14.239.496-.011.344-.238-.562-.887-1.41-1.777-1.934-2.777.301-.094.555-.258.766-.492a16.99 16.99 0 0 1 2.063 2.273c.082.117.18.133.293.055.117-.082.132-.18.054-.293a18.587 18.587 0 0 0-2.066-2.399c.191-.136.347-.304.476-.5 1.563.293 3.157 1.793 4.375 2.715a7.898 7.898 0 0 1 2.278 2.29c.605.921 1 1.921 1.187 3.007Zm-7.48-8.777a.153.153 0 0 0-.18.011 1.356 1.356 0 0 0-.004-.453c.305.051.61.082.914.094 1 .129 2-.008 3.008.062.27.02.367-.386.066-.425-.921-.07-1.843.058-2.773-.04-.191-.011-.8-.054-1.129-.117l.055-.164c.937-.406 1.902-.75 2.886-1.027.262-.086.114-.492-.14-.402-.817.261-1.688.492-2.477.847a11.179 11.179 0 0 1 2-2.957c.196-.203-.14-.468-.308-.293a9.67 9.67 0 0 0-2.27 3.504 2.727 2.727 0 0 0-.074-.152 10.299 10.299 0 0 1 1.437-4.547.34.34 0 0 0 .297-.137c.285-.308.504-.66.653-1.054a6.89 6.89 0 0 1 2.668-1.707 6.888 6.888 0 0 1 3.144-.36 6.453 6.453 0 0 1 2.93.766 6.459 6.459 0 0 1 2.265 2.004c.637 1.093 1.051 2.758 2.387 3.254.38.144 1.246.046.738.703-.234.246-1.648.43-1.988.558a7.186 7.186 0 0 0-3.027 2.149c-.328.41-.703.77-1.13 1.074a5.555 5.555 0 0 1-1.382.723 5.507 5.507 0 0 1-1.527.312 5.47 5.47 0 0 1-1.555-.117 39.85 39.85 0 0 1-5.562-2.117Zm16.031 9.878a8.927 8.927 0 0 1 2.937-2.636c-1.48 1.558-2.558 3.648-4.425 4.554a13.911 13.911 0 0 0 1.488-1.918Zm3.02 1.442c-1.305 1.695-3.774 1.629-5.938 1.633.21-.117.41-.254.598-.403 3.129-.699 4.14-4.359 6.683-6.015l.418-.156.153-.004c-1.012 1.316-.844 3.535-1.915 4.945Zm-3.204-5.887a30.866 30.866 0 0 1-9.546-2.617 5.6 5.6 0 0 0 2.789-.273 5.636 5.636 0 0 0 2.32-1.575 7.544 7.544 0 0 1 2.625-2.129 15.267 15.267 0 0 0 2.828-.898c.16-.105.29-.238.387-.406 1.273 1.43 2.265 2.992 3.476 4.523a8.289 8.289 0 0 0 4.102 3.18c.445.137.898.246 1.36.332-3.407-.05-6.88.101-10.356-.121Zm15.098-2.246c.594.625 1.234 1.2 1.918 1.723-1.215-.364-2.441-.64-3.73-1.012-1.637-.406-3.196-1-4.688-1.789a27.772 27.772 0 0 1-3.785-2.856c-.098-.058-.188-.046-.266.04-.082.082-.09.171-.027.27a21.273 21.273 0 0 0 7.164 4.468c1.281.414 2.598.793 3.98 1.101.735.176 1.45.407 2.149.704l-.113.007a61.097 61.097 0 0 0-2.102-.152c-.703-.031-1.191-.227-1.707-.281a14.683 14.683 0 0 1-6.07-1.477 12.803 12.803 0 0 1-3.637-4.191 11.055 11.055 0 0 0-2.645-3.2c1.98.208 3.536 1.57 5.18 2.59a15.812 15.812 0 0 0 4.918 1.88c1.426.296 2.578 1.019 3.461 2.175Zm16.027 13.113c-2.992.91-5.804.485-8.863.157-3.36-.36-7.488-.528-9.23 2.543.086-.954.37-1.84.859-2.664a6.285 6.285 0 0 1 1.922-2.032 17.758 17.758 0 0 1 8.226-2.574 23.3 23.3 0 0 1 8.543.492c.563.133 1.125.301 1.688.45a69.348 69.348 0 0 0-3.098.19c-1.5.114-3.02.145-4.52.278-.753.07-1.519.082-2.273.172-.754.086-1.586.402-2.418.414-.27-.004-.23.418.035.418 1.305.004 2.61-.383 3.915-.484 1.304-.106 2.996-.14 4.496-.219 1.957-.102 3.957-.2 5.949-.18.113.11.277.164.418.23a20.59 20.59 0 0 1-5.668 2.79Zm-16.675-24.21c-.926.796-2.856.64-3.864.535-1.449-.239-2.699-1.04-4.113-1.329-1.418-.289-1.676.637-1.305 1.375a4.557 4.557 0 0 1-2.078-.937 4.576 4.576 0 0 1-1.37-1.82c-.669-1.52.112-2.536 1.534-3.028a4.627 4.627 0 0 1 3.367.215 14.65 14.65 0 0 1 4.88 2.621c.335.32.75.711 1.21 1.055-1.922-.356-3.703-1.395-5.586-1.758-1.554-.32-4.25-.3-3.566 1.992.078.254.469.11.402-.156-.816-2.902 5.285-.273 6.082.031.868.317 1.754.559 2.657.73.46.067.921.087 1.386.06.082.18.188.312.301.44Zm23.394 18.296a10.822 10.822 0 0 1-.508-2.992 29.237 29.237 0 0 1-.078-5.668c.2-1.402.188-2.805-.031-4.203a55.993 55.993 0 0 0-1.606-5.363c-.085-.262-.484-.125-.41.148.75 2.047 1.301 4.14 1.649 6.29a38.53 38.53 0 0 1-.293 5.284 27.84 27.84 0 0 0 .453 5.188c.05.32.129.637.238.945l-.789-.597a5.913 5.913 0 0 1-1.008-2.18 5.907 5.907 0 0 1-.07-2.399c.414-1.921.613-3.863.594-5.832a14.896 14.896 0 0 0-1.735-5.703 11.651 11.651 0 0 0-2.77-4.05 25.735 25.735 0 0 1 5.903 3.93 8.823 8.823 0 0 1 2.059 3.355 8.828 8.828 0 0 1 .414 3.918c-.3 3.261-2.32 6.906-1.754 10.171a2.166 2.166 0 0 1-.316-.214Zm28.48 17.215a28.975 28.975 0 0 1-2.199-1.953c-3.445-3.426-4.925-7.727-6.175-12.266a102.556 102.556 0 0 0-3.899-12.898 27.69 27.69 0 0 0-3.043-5.031 34.074 34.074 0 0 0-2.793-3.254.893.893 0 0 0-.047-.145 14.26 14.26 0 0 1 4.274 3.754c1.39 1.64 2.793 3.29 4.097 5a44.995 44.995 0 0 1 4.2 6.164 23.8 23.8 0 0 1 2.148 6.364c1.05 4.996 1.723 10.796 4.707 14.87-.512-.202-.93-.382-1.328-.577Zm4.633 2.07a97.946 97.946 0 0 1-2.632-1.16c-4.141-4.953-3.954-12.965-6.051-19.047-1.45-4.152-4.414-7.84-7.2-11.171a39.283 39.283 0 0 0-4.82-5.399c.09.047.18.09.278.129.629.465 1.242.93 1.847 1.371 2.067 1.543 4.242 2.906 6.309 4.45 4.441 3.316 6.683 7.886 7.957 13.183.605 2.55 1.555 5.043 1.934 7.648.25 2.02.652 4.012 1.21 5.973.348 1.34.774 2.656 1.278 3.945Zm17.723 46.329c-.004.113.047.187.152.226a2.353 2.353 0 0 1-.367 1.09 4.352 4.352 0 0 1-.613-1.805c.289-.144.598-.226.922-.246Zm21.274 4.605c.21-.504.976-1.031 1.5-.504.12.176.18.367.175.582a.945.945 0 0 1-.199.57c-.18.25-.418.407-.719.477a.18.18 0 0 0-.054-.18.18.18 0 0 0-.184-.046c-.23.03-.437-.067-.652-.07-.02-.286.023-.563.132-.829Zm-20.508-55.601a38.314 38.314 0 0 1 7.46 13.015c-2.077-4.183-5.277-7.64-8.195-11.25a62.066 62.066 0 0 0-10.875-11.183c4.895 1.214 8.493 5.738 11.61 9.418Zm-1.426 2.246c2.758 3.425 5.836 6.73 7.887 10.656-.864-.2-1.73-.402-2.594-.621-3.91-1.684-6.473-6.149-8.871-9.426a56.862 56.862 0 0 1-6.168-10.883 66.47 66.47 0 0 1 9.746 10.274Zm-4.938 4.191a31.01 31.01 0 0 1-5.414-8.41 12.277 12.277 0 0 1-1.277-5.516 7 7 0 0 1 .371-1.523 66.164 66.164 0 0 0 7.766 13.504 35.76 35.76 0 0 0 5.832 6.93 22.043 22.043 0 0 1-7.278-4.985Zm-11.285 16.93c-10.562-.063-20.879-3.946-30.078-8.899-5.465-2.945-10.293-6.96-16.125-9.148 4.3-1.14 8.742-.574 13.152-.457a53.14 53.14 0 0 1 7.555.476c2.555.45 5.063 1.106 7.563 1.774 5.527 1.46 11.066 2.988 16.699 4.129 5.234 1.105 10.605.828 15.883 1.57l.742.117a141.26 141.26 0 0 0 5.789 1.578c-1.008.317-2.012.637-3.035.903-4.285 1.125-9.04.394-13.367-.196-4.723-.672-9.293-1.875-13.985-2.914-4.992-1.093-10.078-1.734-15.097-2.695-.137-.027-.22.031-.243.168-.027.137.032.219.168.246 5.028.984 10.09 1.723 15.055 3.023 4.586 1.262 9.23 2.25 13.934 2.965 3.968.551 8.472 1.344 12.48.477 1.852-.383 3.684-1.09 5.543-1.621 2.34.55 4.656 1.078 6.957 1.586.02.129.094.203.227.215.328.035.652.043.98.027l.469.09c-10.54 1.836-20.414 6.66-31.266 6.586Zm26.203-9.953a41.453 41.453 0 0 0-8.875-15.122c-2.804-3.253-6.027-6.882-10.214-8.261a20.45 20.45 0 0 1 7.355 2.011c3.398 1.801 5.875 4.84 8.117 7.891a41.208 41.208 0 0 1 5.121 9.27 24.733 24.733 0 0 0 2.45 4.988c-1.387-.195-2.676-.516-3.989-.809Zm16.13 12.37c.667 1.571-.555 1.801-1.91 1.286a7.762 7.762 0 0 1-2.974-2.387c-.94-1.113-3.828-5.11-2.242-6.621 1.664 2.922 5.746 4.555 7.09 7.688Zm23.784-2.835a42.311 42.311 0 0 1-7.914 2.898c3.41-2.637 5.723-6.89 10.664-6.52.137.02.25-.023.34-.128l1.715-.043a14.93 14.93 0 0 1-4.805 3.793Zm8.293-6.477c.055-.094.075-.195.055-.3a.395.395 0 0 0-.152-.262.43.43 0 0 0-.57.012l-.544.57a50.633 50.633 0 0 1-16.699-3.899c-12.601-5.484-20.844-16.242-29.543-26.379-2.187-2.547-4.308-5.183-6.707-7.543a35.003 35.003 0 0 0-6.918-5.062c.266.07.543.129.82.191a.392.392 0 0 0 .255.242c6.417 1.356 11.093 6.735 16.175 10.54 5.864 4.41 11.727 8.82 17.649 12.992 5.425 3.828 10.777 7.633 16.02 11.726a48.58 48.58 0 0 0 11.722 7.063Zm4.68-.5-1.125.125c-6.047-2.062-11.008-5.816-16.016-9.789-5.492-4.36-11.417-8.14-17.09-12.258-5.675-4.113-11.335-8.101-16.648-12.457a59.64 59.64 0 0 0-8.875-6.652c3.594.746 7.18 1.488 10.7 2.488 7.195 2.043 13.359 6.274 19.558 10.313a164.155 164.155 0 0 1 17.55 12.937 52.508 52.508 0 0 1 7.134 7.39c.539.778 4.734 6.24 4.812 7.903Zm29.465-4.058-.152.41-2.344.367Zm-14.84 14.53a110.911 110.911 0 0 1-17.488 10.641 101.23 101.23 0 0 1-16.586 6.106c-4.317 1.297-9.074 2.941-13.695 2.707 10.351-4.34 19.632-10.617 28.847-17.004a149.48 149.48 0 0 1 15.832-10.09 50.395 50.395 0 0 1 12.555-4.406 112.39 112.39 0 0 0-9.52 5.613c-2.738 1.688-5.5 3.153-8.43 4.59a14.407 14.407 0 0 0-5.573 4.004c-.368.387.328.98.617.586 1.785-2.395 4.636-3.418 7.234-4.688 2.313-1.152 4.453-2.468 6.672-3.714 3.336-1.856 6.965-3.434 10.457-4.993-2.137 1.754-4.461 3.336-6.59 4.996a121.52 121.52 0 0 1-10.445 7.317 147.837 147.837 0 0 1-23.813 11.754c-.504.195-.215.984.285.793a150.906 150.906 0 0 0 24.016-11.797c3.793-2.32 7.45-4.84 10.965-7.559 2.375-1.847 5.062-3.566 7.305-5.574a30.205 30.205 0 0 1-4.598 4.223c-2.703 2.175-5.297 4.418-8.047 6.496Zm12.774-3.109a72.928 72.928 0 0 1-7.11 9.125 46.49 46.49 0 0 1-15.715 10.801c-4.625 1.942-10.164 3.012-13.265 7.317-.309.445.336.988.656.543 3.742-5.192 11.476-6.036 16.867-8.942a47.534 47.534 0 0 0 14.383-11.613 75.303 75.303 0 0 0 7.16-10.05 16.007 16.007 0 0 0 2.473-6.36c.594 1.969.68 3.96.258 5.972-.93 3.41-2.5 6.5-4.707 9.262a58.042 58.042 0 0 1-8.352 9.106 57.988 57.988 0 0 1-10.086 7.136c-6.621 3.762-13.785 6.172-18.875 12.22a18.568 18.568 0 0 0-3.562 6.784c-.997-4.594-1.079-9.094 1.261-13.676 3.676-7.207 10.375-10.058 16.7-14.285 6.324-4.226 12.03-9.511 17.769-14.48a47.426 47.426 0 0 0 6.074-7.012 49.87 49.87 0 0 0 1.469-1.953l.254-.129c.203-.101.27-.262.203-.476l.36-.38c.995 3.626-2.329 8.31-4.215 11.09Zm2.968-11.05-.136.023c.09-.238.168-.476.23-.719l.574-.18c-.234.282-.449.579-.668.876Zm7.567-10.72c-.207.138-.274.321-.192.556a12.525 12.525 0 0 1-5.804-3.836 17.737 17.737 0 0 1-1.903-2.477c-.285-.437-1.125-1.621-.992-2.164.277-1.195 1.535-.383 2.012.016 2.703 2.285 4.297 5.742 6.879 7.906Zm20.086 46.645c-3.188.32-5.649-5.113-6.727-7.328a56.262 56.262 0 0 1-3.715-9.992c-1.039-4.492-.988-8.976.14-13.45 1.216-5.292 3.571-10.015 7.075-14.167a37.7 37.7 0 0 0-4.152 10.562 44.52 44.52 0 0 0 .422 17.5c.668 4 1.746 7.887 3.23 11.66.84 1.954 1.922 4.188 3.727 5.215Zm.793-48.941c-1.118 7.984 5.648 14.39 5.296 22.363-.367 8.63-4.46 16.852-4.582 25.465-5.785-.84-7.37-13.902-8.117-18.21-1-5.49-.87-10.946.39-16.38 1.09-4.39 3.485-8.414 5.798-12.433l.242-.254a.393.393 0 0 0 .113-.227l1.016-.578a.359.359 0 0 0-.164.262Zm15.93-16.191c-4.606.316-9.372-.965-13.731-2.371-8.336-2.707-16.86-7.352-22.918-13.758-.317-.301-.735.172-.461.484a52.253 52.253 0 0 0 11.23 9.64 57.785 57.785 0 0 0 13.704 5.88c4.406 1.27 9.246 2.363 13.847 1.629l-.976.746a52.774 52.774 0 0 1-6.301 1.87 33.748 33.748 0 0 1-8.387 1.071 33.729 33.729 0 0 1-8.39-1.043c-5.93-1.66-10.325-5.48-14.083-10.223-3.304-4.175-6.421-8.476-10.457-11.921a45.503 45.503 0 0 0-15.18-8.536c1.712-.328 3.43-.37 5.153-.132 1.852.128 3.68.39 5.492.777a54.061 54.061 0 0 1 10.18 3.27 163.255 163.255 0 0 1 19.066 10.335 106.47 106.47 0 0 0 18.516 9.204 33.466 33.466 0 0 0 7.973 2.046c-1.371.575-2.801.922-4.286 1.04Zm10.445 5.882a11.027 11.027 0 0 1 1.738 4.043c.101.684.219 1.532-.426 1.875-.945.575-2.633-.543-3.207-1.152-2.246-2.418-2.523-7.203-1.45-10.473l.286-.296a26.23 26.23 0 0 0 3.05 6.011Zm19.558-10.488a31.683 31.683 0 0 1 4.996 8.32 31.613 31.613 0 0 1 2.258 9.442 27.395 27.395 0 0 1-.426 8.598 27.407 27.407 0 0 1-3.066 8.046c-2.387 4.153-5.723 8.918-10.067 11.395 1.875-3.899 3.825-7.555 3.864-12.078a39.994 39.994 0 0 0-3.047-16.055c-1.09-2.539-2.55-4.933-3.207-7.648a26.287 26.287 0 0 1-.215-9.051c.27-2.473 1.336-5.043 1.7-7.598 1.183 5.496 4.933 10.031 7 15.39 3.261 8.509 1.226 17.563-.7 26.134-.121.539.715.68.84.144 1.738-7.762 3.445-15.554 1.582-23.472-1.606-6.829-7.059-12.325-8.102-19.2 1.594 2.891 4.493 5.254 6.582 7.641Zm0 0"/>
                </g>
            </g>
        </g>
    </g>
    <g clip-path="url(#q)">
        <g clip-path="url(#r)">
            <g clip-path="url(#s)">
                <g clip-path="url(#t)">
                    <path d="M215.273 280.938a4.501 4.501 0 0 0-1.57 1.003c-.453.442-.8.957-1.039 1.547a.873.873 0 0 0-.355.852.963.963 0 0 0 .101.246 2.65 2.65 0 0 0 .332 1.57c.164.426.442.758.828 1a1.99 1.99 0 0 0 1.262.293 1.987 1.987 0 0 0 1.184-.531c.332-.309.539-.688.617-1.137.508-.238.93-.578 1.273-1.02a3.44 3.44 0 0 0 .672-1.488c.258-1.765-1.781-2.832-3.305-2.336Zm1.66 1.777c.258.383-.054.87-.44 1.258-.138-.598-1.013-.325-.993.214-.004.16-.031.313-.07.465-.473.13-.93.086-1.371-.125.039-.144.086-.28.144-.418.309-.695 1.961-2.543 2.738-1.386Zm0 0"/>
                </g>
            </g>
        </g>
    </g>
    <g clip-path="url(#u)">
        <g clip-path="url(#v)">
            <g clip-path="url(#w)">
                <g clip-path="url(#x)">
                    <path d="M215.547 288.5c-.426.215-.047.945.379.746.039.067.066.137.082.211.07.309.11.621.117.934.05.566.848.468.86-.075.062-.843-.255-2.433-1.438-1.816Zm0 0"/>
                </g>
            </g>
        </g>
    </g>
    <g clip-path="url(#y)">
        <g clip-path="url(#z)">
            <g clip-path="url(#A)">
                <g clip-path="url(#B)">
                    <path d="M219.55 286.98a17.219 17.219 0 0 1-1.515-.503c-.512-.184-.86.59-.355.78.566.22 1.144.403 1.73.56.528.148.668-.708.14-.837Zm0 0"/>
                </g>
            </g>
        </g>
    </g>
    <g clip-path="url(#C)">
        <g clip-path="url(#D)">
            <g clip-path="url(#E)">
                <g clip-path="url(#F)">
                    <path d="M220.195 278.945a.942.942 0 0 1-.89.41c-.551-.035-.73.766-.145.856.328.05.649.012.953-.117.305-.13.555-.328.75-.598a.44.44 0 0 0-.097-.562.433.433 0 0 0-.29-.098.417.417 0 0 0-.28.11Zm0 0"/>
                </g>
            </g>
        </g>
    </g>
    <g clip-path="url(#G)">
        <g clip-path="url(#H)">
            <g clip-path="url(#I)">
                <g clip-path="url(#J)">
                    <path d="M220.105 277.574a.44.44 0 0 0 .098.563c.086.066.18.101.29.097a.41.41 0 0 0 .28-.109c.055-.094.075-.195.055-.3a.404.404 0 0 0-.152-.262.426.426 0 0 0-.285-.102.45.45 0 0 0-.286.113Zm0 0"/>
                </g>
            </g>
        </g>
    </g>
    <g clip-path="url(#K)">
        <g clip-path="url(#L)">
            <g clip-path="url(#M)">
                <g clip-path="url(#N)">
                    <path d="M212.266 279.605c-.422-.246-.743.32-.516.649a.404.404 0 0 0-.063.312.4.4 0 0 0 .18.262c.094.063.2.082.309.059a.398.398 0 0 0 .262-.176c.378-.399.273-.832-.172-1.106Zm0 0"/>
                </g>
            </g>
        </g>
    </g>
    <g clip-path="url(#O)">
        <g clip-path="url(#P)">
            <g clip-path="url(#Q)">
                <g clip-path="url(#R)">
                    <path d="m208.68 284.227.277.644c.219.512 1.035.215.809-.285l-.293-.649c-.22-.492-1.02-.21-.793.29Zm0 0"/>
                </g>
            </g>
        </g>
    </g>
    <path d="M154.052 33.851c.414-.164.672-.128.765.11.094.23 0 .398-.28.5-.356.148-.575.32-.657.515-.168.356-.246.883-.235 1.579l.172 12.937c-.011.48-.086.746-.218.797-.18.074-.45-.082-.813-.469l-9.047-9.328c-.508-.508-.867-.805-1.078-.89a1.14 1.14 0 0 0-.937-.032c-.313.117-.516.055-.61-.187-.039-.094-.02-.192.063-.297.074-.113.203-.207.39-.281.188-.07.344-.125.47-.157.124-.039.25-.078.374-.11.367-.07.7-.163 1-.28a7.49 7.49 0 0 0 .938-.47 6.85 6.85 0 0 1 1.046-.5c.387-.155.625-.124.72.095.081.218-.02.386-.313.5-.739.293-1.032.64-.875 1.047.117.28.43.683.937 1.203l7.063 7.234-.297-9.875c-.031-.602-.102-1.035-.203-1.297-.211-.539-.727-.648-1.547-.328-.293.117-.485.063-.578-.156-.086-.219.093-.414.531-.594.219-.082.473-.148.766-.203.289-.05.629-.156 1.015-.313ZM167.394 45.344c-.45.117-.703.042-.765-.22-.043-.195.062-.327.312-.39l.516-.078c.375-.094.593-.332.656-.719.07-.445-.027-1.234-.297-2.36l-1.844-7.343c-.281-1.156-.515-1.863-.703-2.125-.195-.258-.367-.41-.515-.453a.876.876 0 0 0-.485-.016l-.515.172c-.25.063-.395-.008-.438-.218-.062-.25.102-.422.484-.516a6.217 6.217 0 0 1 1.094-.172 7.865 7.865 0 0 0 2.156-.531 6.547 6.547 0 0 1 1.079-.344c.375-.094.593-.016.656.234.039.211-.063.344-.313.407l-.5.062c-.375.094-.601.344-.672.75-.054.438.055 1.219.329 2.344l1.843 7.36c.27 1.124.508 1.823.719 2.093.207.262.383.418.531.469.157.043.328.043.516 0l.5-.172c.25-.063.394.008.437.203.063.262-.132.445-.578.547-.23.062-.476.105-.734.125-.906.062-1.656.215-2.25.453-.586.242-.992.387-1.219.438ZM180.346 42.718c-.449.063-.687-.035-.719-.297-.023-.207.086-.328.329-.359l.53-.031c.384-.04.63-.25.735-.625.113-.438.098-1.227-.047-2.375l-1.03-7.516c-.15-1.176-.306-1.906-.47-2.187-.168-.29-.324-.461-.468-.516a.918.918 0 0 0-.485-.062l-.515.109c-.25.031-.391-.055-.422-.266-.032-.25.152-.394.547-.437a7.26 7.26 0 0 1 1.109-.063c.352.012.723-.007 1.11-.062.382-.05.75-.125 1.093-.219.344-.101.707-.18 1.094-.234.394-.051.61.047.64.297.032.21-.085.328-.343.359l-.532.031c-.386.043-.625.262-.718.656-.117.438-.102 1.23.047 2.375l1.03 7.516c.145 1.149.306 1.867.485 2.156.176.282.336.453.485.516.156.062.328.086.515.062l.516-.125c.258-.03.398.06.422.266.031.262-.184.422-.64.484a4.317 4.317 0 0 1-.75.032c-.907-.032-1.669.043-2.282.218-.617.168-1.04.266-1.266.297ZM194.605 41.608c-.375.008-.68-.094-.906-.313-.219-.226-.336-.472-.344-.734 0-.27.031-.477.094-.625a1.12 1.12 0 0 1 .281-.406 1.31 1.31 0 0 1 .89-.36c.352-.008.641.102.86.328.227.22.348.461.36.72.007.26-.012.468-.063.624a1.062 1.062 0 0 1-.25.39c-.23.25-.54.376-.922.376ZM204.144 41.477c-.45-.054-.664-.199-.64-.437.03-.25.187-.363.468-.344.281.024.531 0 .75-.062a2.41 2.41 0 0 0 .672-.36c.383-.27.926-.879 1.625-1.828l2.953-3.953-2.344-5.031c-.336-.707-.578-1.16-.734-1.36-.242-.28-.527-.437-.86-.468-.335-.032-.492-.172-.468-.422.031-.25.273-.352.734-.313l1.844.36c.32.03.629.039.922.015.3-.031.57-.035.812-.015.446.054.656.187.625.406-.011.156-.078.25-.203.281a2.184 2.184 0 0 1-.422.063c-.148.011-.289.027-.422.047-.125.011-.195.078-.203.203-.031.273.067.664.297 1.172l1.625 3.484 2.266-3.063c.363-.476.554-.8.578-.968.031-.32-.235-.508-.797-.563-.25-.031-.367-.148-.344-.36.031-.257.274-.363.735-.312l1.406.297c.363.043.695.055 1 .031.312-.02.55-.023.719-.015.445.054.656.21.625.469-.024.25-.172.359-.454.328a2.523 2.523 0 0 0-.734.015c-.21.032-.422.121-.64.266-.438.312-1 .965-1.688 1.953l-2.203 2.953 2.687 5.813c.657 1.386 1.36 2.117 2.11 2.203.3.031.437.172.406.422-.023.257-.258.363-.703.312a4.862 4.862 0 0 1-.469-.078 10.243 10.243 0 0 0-.39-.062 6.128 6.128 0 0 0-1.016-.204l-1.797-.03c-.469-.044-.688-.196-.656-.454.02-.21.133-.305.343-.281.22.02.375.023.47.015a.584.584 0 0 0 .218-.062c.07-.043.113-.133.125-.266a2.336 2.336 0 0 1-.078-.343c-.043-.22-.164-.547-.36-.985l-2.078-4.406-3.015 4.047c-.356.469-.54.789-.547.953-.031.336.226.527.781.578.25.031.363.148.344.36-.031.257-.274.363-.719.312l-1.406-.297a8.541 8.541 0 0 0-1.031-.031c-.313.02-.555.023-.72.015ZM225.414 44.755c-.367-.086-.633-.266-.797-.547-.156-.281-.203-.55-.14-.813.062-.257.14-.453.234-.578.093-.125.218-.226.375-.312.289-.156.609-.192.953-.11.351.086.61.266.765.547.157.274.204.532.141.782-.062.25-.137.437-.219.562-.086.125-.199.234-.343.328-.274.188-.594.235-.97.14ZM234.895 46.923c-.418-.168-.579-.371-.485-.61.102-.226.297-.285.578-.171.414.164.727.218.938.156.445-.094.816-.43 1.11-1.016.062-.132.16-.336.296-.609l.469-.984c.187-.375.379-.786.578-1.235l.64-1.406c.22-.477.438-.957.657-1.438.226-.488.43-.953.61-1.39.488-1.102.788-1.797.905-2.078.114-.29.18-.532.204-.719a1.096 1.096 0 0 0-.016-.484c-.074-.239-.262-.446-.563-.625-.554-.32-.792-.563-.718-.72a.324.324 0 0 1 .234-.218.552.552 0 0 1 .36.031l1.515.75.906.328a.484.484 0 0 1 .297.36c.051.18.094.422.125.734l.797 11.953c.207-.218.488-.507.844-.859.363-.344.758-.727 1.187-1.156.438-.426.895-.88 1.375-1.36.489-.476.97-.953 1.438-1.422.476-.476.937-.93 1.375-1.359.445-.437.836-.82 1.172-1.156.332-.344.61-.617.828-.828.226-.219.383-.375.469-.469a.715.715 0 0 1 .359-.203.85.85 0 0 1 .516.047l.921.422 1.22.406c.507.2.718.418.624.656-.054.125-.199.164-.437.11a9.651 9.651 0 0 0-.61-.11 1.996 1.996 0 0 0-.484-.031c-.375.043-.64.258-.797.64l-3.422 9.954c-.293.882-.168 1.504.375 1.859.164.094.332.172.5.234.27.114.352.286.25.516-.094.238-.344.273-.75.11a5.511 5.511 0 0 1-.422-.204 3.043 3.043 0 0 0-.328-.156 6.983 6.983 0 0 0-.969-.5l-2.171-.703c-.438-.18-.606-.387-.5-.625.07-.2.265-.235.578-.11.32.125.562.188.718.188a.718.718 0 0 0 .422-.125c.157-.117.348-.465.578-1.047l.391-.937c.176-.461.508-1.391 1-2.797l1.047-3.016c.457-1.27.789-2.238 1-2.906l-9.047 8.906c-.344.32-.586.457-.719.406-.093-.043-.152-.125-.172-.25a5.317 5.317 0 0 1-.062-.562l-.813-11.89c-1.617 3.292-2.992 6.343-4.125 9.155-.218.54.11.989.985 1.344.238.094.32.235.25.422-.106.238-.375.27-.813.094l-1.547-.781a6.078 6.078 0 0 0-.984-.313 4.58 4.58 0 0 1-.687-.203Zm18.328-6.875v-.016ZM258.434 57.332c-.375-.25-.492-.48-.344-.687.145-.207.344-.223.594-.047.375.25.676.367.906.36.446-.024.88-.278 1.297-.767.082-.125.22-.3.407-.53.195-.24.421-.524.671-.86.258-.344.536-.707.829-1.094.289-.394.593-.805.906-1.234.32-.426.64-.848.953-1.266.32-.426.625-.836.906-1.234.695-.977 1.133-1.594 1.313-1.844.175-.258.297-.477.36-.656.062-.176.085-.336.077-.485-.012-.25-.152-.492-.422-.734-.46-.414-.64-.695-.547-.844a.33.33 0 0 1 .282-.156.582.582 0 0 1 .343.094l1.329 1.062.796.5a.527.527 0 0 1 .22.422c.019.188.007.438-.032.75l-1.734 11.844c.25-.168.585-.387 1.015-.656.426-.262.895-.559 1.406-.891.508-.324 1.051-.668 1.625-1.031.57-.368 1.141-.727 1.704-1.078.562-.364 1.101-.711 1.625-1.047.52-.332.976-.625 1.375-.875.406-.258.738-.473 1-.64.257-.165.441-.286.546-.36a.76.76 0 0 1 .407-.11.81.81 0 0 1 .484.14l.828.61 1.11.64c.445.313.597.575.453.782-.075.117-.227.125-.453.031a12.154 12.154 0 0 0-.563-.25 1.432 1.432 0 0 0-.484-.125c-.368-.039-.668.11-.907.454l-5.437 9c-.469.812-.48 1.445-.031 1.906.132.113.28.222.437.328.25.164.301.351.156.562-.148.207-.406.188-.78-.062a3.997 3.997 0 0 1-.376-.266 16.168 16.168 0 0 0-.281-.25 5.537 5.537 0 0 0-.828-.672l-1.985-1.156c-.386-.273-.507-.512-.359-.719.125-.187.328-.187.61 0 .28.196.5.313.656.344.156.04.297.035.422-.015.187-.075.457-.375.812-.907l.563-.843c.28-.399.804-1.235 1.578-2.516a926.75 926.75 0 0 1 1.656-2.734 55.274 55.274 0 0 0 1.578-2.61l-10.734 6.781c-.387.25-.64.332-.766.25-.086-.054-.125-.148-.125-.28 0-.126.02-.313.063-.563l1.703-11.797c-2.274 2.875-4.258 5.57-5.953 8.078-.325.476-.094.984.687 1.516.219.144.266.304.14.484-.148.207-.417.18-.812-.078l-1.328-1.11a7.952 7.952 0 0 0-.906-.515c-.305-.137-.516-.25-.64-.344Zm19.375-2.86v-.015ZM278.992 72.489c-.313-.313-.387-.559-.22-.734.177-.165.368-.157.579.03.207.188.414.321.625.407.219.094.46.148.734.172.489.02 1.301-.11 2.438-.39l4.765-1.22 1.36-5.374c.207-.758.304-1.266.297-1.516-.012-.375-.137-.68-.375-.922-.243-.238-.274-.445-.094-.625.176-.176.43-.098.766.234l1.203 1.438c.226.23.46.43.703.594.25.168.46.336.64.5.313.312.391.547.235.703-.106.117-.215.148-.328.094a5.071 5.071 0 0 1-.375-.22 5.566 5.566 0 0 0-.36-.218c-.105-.07-.203-.062-.297.031-.187.2-.351.563-.484 1.094l-.953 3.719 3.703-.938c.57-.133.922-.258 1.047-.375.226-.238.144-.562-.25-.968-.18-.176-.195-.336-.047-.485.188-.187.441-.113.766.219l.89 1.11c.27.261.532.48.782.656.25.18.43.324.546.437.313.324.375.578.188.766-.18.18-.367.168-.563-.032a2.118 2.118 0 0 0-.562-.437 1.642 1.642 0 0 0-.672-.188c-.531-.039-1.375.102-2.531.422l-3.578.907-1.578 6.203c-.368 1.488-.282 2.5.25 3.03.218.22.234.415.046.595-.18.187-.43.117-.75-.203a4.466 4.466 0 0 1-.312-.344 6.262 6.262 0 0 1-.25-.297 5.425 5.425 0 0 0-.672-.797l-1.375-1.156c-.336-.336-.406-.594-.219-.781.145-.149.29-.149.438 0 .156.156.273.257.36.312.081.05.148.082.202.094.082.008.172-.031.266-.125.008-.024.062-.133.156-.328.102-.188.219-.516.344-.985l1.172-4.734-4.89 1.25c-.575.144-.923.281-1.048.406-.23.227-.148.535.25.922.176.188.192.352.047.5-.187.188-.445.117-.765-.203l-.891-1.125a7.653 7.653 0 0 0-.781-.656 4.818 4.818 0 0 1-.578-.47ZM292.55 86.894c-.261-.367-.292-.621-.093-.766.195-.148.383-.109.563.11.175.226.359.406.546.531.188.125.422.219.704.281.468.094 1.285.098 2.453.016l4.906-.438 2.219-5.093c.32-.707.5-1.18.53-1.422.063-.375-.007-.696-.202-.969-.2-.281-.2-.492 0-.64.207-.145.445-.032.719.343l.953 1.625c.187.262.39.496.609.703.219.2.395.399.531.594.27.367.317.61.14.734-.136.094-.257.106-.358.032a2.649 2.649 0 0 1-.329-.266 6.545 6.545 0 0 0-.312-.281c-.094-.094-.195-.098-.297-.016-.23.156-.453.492-.672 1l-1.531 3.516 3.781-.328c.594-.043.957-.11 1.094-.204.27-.195.242-.523-.078-.984-.149-.207-.137-.367.031-.484.219-.157.46-.047.734.328l.704 1.25c.218.3.437.555.656.765.219.22.375.395.469.532.257.363.285.617.078.765-.211.157-.399.118-.563-.109a2.708 2.708 0 0 0-.484-.531 1.596 1.596 0 0 0-.64-.297c-.524-.125-1.384-.121-2.579.015l-3.656.329-2.563 5.843c-.617 1.414-.703 2.43-.265 3.047.175.25.16.446-.047.594-.211.156-.446.047-.703-.328a7.95 7.95 0 0 1-.266-.39 6.138 6.138 0 0 0-.187-.329 7.339 7.339 0 0 0-.532-.906l-1.172-1.36c-.273-.386-.304-.656-.093-.812.164-.117.312-.09.437.078.125.176.223.297.297.36.07.062.133.101.188.124.082.032.18.004.296-.078 0-.023.067-.12.204-.297.132-.18.3-.48.5-.906l1.921-4.484-5.03.422c-.595.062-.962.14-1.095.234-.273.195-.246.52.079.969.144.207.132.367-.032.484-.21.156-.445.047-.703-.328l-.719-1.25a6.351 6.351 0 0 0-.656-.781c-.23-.23-.39-.414-.484-.547ZM303.79 103.97c-.218-.406-.214-.671.016-.796.188-.094.336-.028.453.203l.203.484c.188.332.477.488.875.469.446-.055 1.18-.352 2.204-.89l6.656-3.61c1.05-.551 1.68-.953 1.89-1.203.207-.25.317-.446.329-.594a.98.98 0 0 0-.11-.484l-.297-.454c-.125-.226-.093-.39.094-.484.227-.125.438-.008.625.344.188.344.336.687.453 1.031.113.336.258.672.438 1.016.175.343.375.664.593.953.22.281.414.594.594.937.188.344.164.578-.062.703-.188.094-.34.028-.453-.203l-.204-.468c-.18-.344-.468-.5-.875-.47-.46.055-1.199.352-2.218.891l-6.657 3.594c-1.023.54-1.636.945-1.843 1.219-.211.27-.32.484-.328.64a.89.89 0 0 0 .125.5l.28.438c.126.227.095.39-.093.484-.23.125-.453-.015-.672-.421-.105-.211-.2-.438-.281-.688-.293-.867-.633-1.555-1.016-2.062-.375-.512-.617-.872-.718-1.079ZM327.745 122.614c.156.426.109.68-.141.766-.242.094-.406 0-.5-.281-.137-.367-.305-.594-.5-.688-.344-.18-.86-.273-1.547-.281l-12.953-.25c-.48-.023-.746-.102-.797-.234-.062-.18.11-.438.516-.782l9.61-8.765c.507-.489.815-.836.92-1.047.145-.32.161-.633.048-.938-.106-.312-.031-.507.219-.593.093-.04.191-.02.296.062a.813.813 0 0 1 .266.406c.07.188.125.344.156.47.032.124.055.25.078.374.063.367.145.703.25 1.016.114.312.258.633.438.953.187.312.348.668.484 1.062.145.383.102.618-.125.703-.218.083-.386-.027-.5-.328-.261-.738-.593-1.035-1-.89-.293.105-.71.402-1.25.89l-7.453 6.844h9.875c.613 0 1.055-.047 1.328-.14.54-.2.66-.715.36-1.547-.106-.305-.047-.496.172-.579.226-.085.421.098.578.547.082.207.144.457.187.75.04.301.13.649.266 1.047ZM139.818 131.395c-4.324 1.886-9.063 2.828-14.219 2.828-4.375 0-7.207-.707-8.5-2.125a2.118 2.118 0 0 1-.531-1.407c0-.519.219-1.039.656-1.562.438-.52 1.07-.957 1.89-1.313 1.65-.757 4.056-1.14 7.22-1.14 3.156 0 7.441.96 12.859 2.875 3.894-2.55 8.66-7.676 14.297-15.375-5.586-.156-10.14-1.383-13.672-3.688-3.45-2.27-5.172-5.203-5.172-8.797 0-3.582 1.64-6.894 4.922-9.937 3.344-3.094 7.082-4.64 11.219-4.64.601 0 .906.163.906.484 0 .25-.758.453-2.266.61-1.511.148-3.054.632-4.625 1.452-1.574.824-2.882 1.824-3.922 3-2.105 2.387-3.156 4.852-3.156 7.39 0 2.544.39 4.587 1.172 6.126a10.275 10.275 0 0 0 3.344 3.812c2.844 1.95 6.883 2.95 12.125 3l5.578-8.093c6.789-10.125 13.035-17.407 18.734-21.844 5.551-4.3 11.317-6.453 17.297-6.453 3.176 0 5.281.976 6.313 2.922.332.625.5 1.484.5 2.578 0 1.093-.367 2.445-1.094 4.047-.719 1.605-1.73 3.246-3.031 4.921-1.305 1.668-2.844 3.336-4.625 5a65.554 65.554 0 0 1-5.844 4.844 74.899 74.899 0 0 1-6.719 4.438 87.246 87.246 0 0 1-7.234 3.828c-5.18 2.375-10.04 3.906-14.578 4.594-6.032 8.054-12.016 13.625-17.953 16.718 4.976 1.782 10.93 2.672 17.859 2.672 6.133 0 10.613-1.41 13.437-4.234.407-.406.665-.488.782-.25.187.437-.016.96-.61 1.562-3.761 3.293-8.164 4.938-13.203 4.938-5.031 0-11.75-1.258-20.156-3.781Zm20.828-18.938c5.75-.988 11.844-3.344 18.281-7.062 5.907-3.395 10.875-7.336 14.907-11.829 4.132-4.57 6.203-8.656 6.203-12.25 0-1.582-.875-2.734-2.625-3.453a4.332 4.332 0 0 0-1.688-.328c-8.71 0-17.215 6.824-25.515 20.469l-4.922 7.719a140.835 140.835 0 0 1-4.64 6.734ZM126.1 128.77c-5.582 0-8.375.683-8.375 2.046 0 .93 1.406 1.653 4.219 2.172.906.168 2.234.25 3.984.25 4.438 0 8.243-.859 11.422-2.578-4.762-1.258-8.512-1.89-11.25-1.89ZM214.459 226.181c-4.461 1.512-9.356 2.266-14.688 2.266-3.668 0-5.996-.645-6.984-1.938-.27-.351-.407-.726-.407-1.125 0-.394.188-.796.563-1.203.367-.414.898-.8 1.61-1.156 1.613-.77 3.238-1.156 4.874-1.156 1.645 0 2.836.043 3.578.125.739.086 1.547.21 2.422.375a58.24 58.24 0 0 1 4.594 1.172c1.54.449 2.348.672 2.422.672a.78.78 0 0 1 .297.078c2.789-1.5 5.547-3.567 8.265-6.203 2.727-2.645 5.172-5.172 7.329-7.579l7.109-8.343 6.89-8.297 3.704-4.063a104.143 104.143 0 0 1 4.406-4.39c1.656-1.563 3.61-3.094 5.86-4.594-3.669-5.633-10.09-8.453-19.266-8.453-5.117 0-10.23 1.422-15.344 4.265-4.625 2.606-8.46 5.875-11.5 9.813-2.98 3.887-4.469 7.445-4.469 10.672 0 1.969.676 3.558 2.031 4.765 1.352 1.2 3 1.797 4.938 1.797 1.945 0 3.828-.328 5.64-.984 1.82-.656 3.68-1.55 5.579-2.688 1.906-1.132 3.789-2.468 5.656-4a38.872 38.872 0 0 0 5.016-4.921c3.25-3.864 5-7.547 5.25-11.047.082-.625.234-.938.453-.938.32 0 .484.29.484.86 0 3.906-1.324 7.808-3.969 11.703-4.054 5.992-9.558 10.039-16.515 12.14-2.242.688-4.266 1.031-6.078 1.031-1.805 0-3.309-.203-4.516-.609a10.217 10.217 0 0 1-3.188-1.766c-2.117-1.695-3.171-3.675-3.171-5.937 0-2.258.394-4.398 1.187-6.422.8-2.031 1.926-3.96 3.375-5.797 1.445-1.832 3.192-3.535 5.234-5.11a37.796 37.796 0 0 1 6.75-4.124c5.282-2.457 10.922-3.688 16.922-3.688 9.52 0 16.524 2.82 21.016 8.454 6.238-3.938 11.832-6.016 16.781-6.235.414 0 .625.11.625.328 0 .219-.07.367-.203.438-.137.062-.523.148-1.156.25-4.813.574-9.7 2.996-14.656 7.265 2.03 3.368 3.046 7.024 3.046 10.97 0 3.937-.453 7.413-1.359 10.421-.906 3.012-2.156 5.797-3.75 8.36a33.913 33.913 0 0 1-5.687 6.921 35.12 35.12 0 0 1-7.188 5.203c-5.48 3.012-11.215 4.516-17.203 4.516-3.719 0-7.922-.695-12.61-2.094Zm1.937-.734c3.469 1.062 6.817 1.594 10.047 1.594 3.227 0 6.164-.375 8.812-1.125a33.218 33.218 0 0 0 7.547-3.188 34.348 34.348 0 0 0 6.672-5.047 34.65 34.65 0 0 0 5.344-6.64c3.195-5.227 4.797-10.953 4.797-17.172 0-4.125-.668-7.649-2-10.578-3.074 2.843-5.95 6.195-8.625 10.047l-7.516 10.562c-8.023 10.95-16.383 18.133-25.078 21.547Zm-5.5-.25c-4.055-1.04-7.383-1.563-9.984-1.563-2.594 0-4.477.184-5.64.547-1.169.356-1.75.762-1.75 1.219 0 1.156 2.312 1.734 6.937 1.734 4.05 0 7.53-.644 10.437-1.937ZM196.879 136.155c0 .5-.156.976-.469 1.422-.305.449-.664.859-1.078 1.234-.418.375-.844.703-1.281.984-.43.274-.766.48-1.016.625-.312.168-.68.36-1.094.578-.418.22-.82.438-1.203.657-.386.21-.73.39-1.03.547-.294.148-.481.234-.563.265 0 1.805.39 3.59 1.171 5.36a15.381 15.381 0 0 0 3.172 4.656c.614-.531 1.29-1.211 2.032-2.047.738-.832 1.609-1.89 2.609-3.172 1.05-1.332 1.992-2.305 2.828-2.922.832-.613 1.656-.922 2.469-.922.719 0 1.32.2 1.812.594.489.387.735.899.735 1.531 0 .23-.063.485-.188.766-.125.273-.289.508-.484.703-.219-.476-.578-.875-1.078-1.187-.5-.32-1.118-.485-1.844-.485-.805 0-1.555.262-2.25.781-.7.512-1.367 1.153-2 1.922a76.121 76.121 0 0 1-2.031 2.375 42.969 42.969 0 0 1-2.266 2.344c.832.836 1.82 1.547 2.969 2.14a7.91 7.91 0 0 0 3.625.876c.77 0 1.566-.117 2.39-.36a11.33 11.33 0 0 0 2.36-.984c.75-.414 1.46-.922 2.14-1.516a10.231 10.231 0 0 0 1.782-2.03l.218.171c-1.18 1.75-2.64 3.086-4.39 4-1.75.918-3.574 1.375-5.469 1.375-1.2 0-2.477-.188-3.828-.563-1.344-.375-2.492-.937-3.438-1.687-.968.812-1.886 1.39-2.75 1.734a7.384 7.384 0 0 1-2.75.516c-1.812 0-3.261-.523-4.343-1.578-1.086-1.063-1.625-2.399-1.625-4.016 0-.8.144-1.594.437-2.375a8.056 8.056 0 0 1 1.25-2.203 10.293 10.293 0 0 1 1.953-1.906c.77-.57 1.614-1.067 2.532-1.485a9.65 9.65 0 0 1 .687-3.265 12.415 12.415 0 0 1 1.656-2.969 8.817 8.817 0 0 1 2.313-2.14c.875-.563 1.77-.844 2.687-.844.75 0 1.375.218 1.875.656.508.43.766 1.043.766 1.844Zm-7.734 5.843a32.598 32.598 0 0 0 2.468-1.187 8.542 8.542 0 0 0 2.047-1.484c1.031-.97 1.547-2.094 1.547-3.375 0-1.196-.5-1.797-1.5-1.797-.531 0-1.07.199-1.61.593-.542.387-1.03.922-1.468 1.61-.43.68-.781 1.484-1.063 2.422-.28.93-.421 1.933-.421 3.015Zm-1.782 13.438c.97 0 1.805-.145 2.516-.438a8.38 8.38 0 0 0 1.937-1.109c-1.53-1.27-2.734-2.844-3.609-4.719-.875-1.882-1.312-3.828-1.312-5.828-1.2.524-2.153 1.418-2.86 2.688-.71 1.261-1.062 2.648-1.062 4.156 0 .687.101 1.352.312 1.984.207.625.504 1.184.89 1.672.395.48.864.867 1.407 1.156.54.293 1.133.438 1.781.438Zm0 0"/>
</svg>