<svg xmlns="http://www.w3.org/2000/svg" xmlns:xlink="http://www.w3.org/1999/xlink" width="500" zoomAndPan="magnify" viewBox="0 0 375 374.999991" height="500" preserveAspectRatio="xMidYMid meet" version="1.0"><defs><filter x="0%" y="0%" width="100%" height="100%" id="d60e00c3be"><feColorMatrix values="0 0 0 0 1 0 0 0 0 1 0 0 0 0 1 0 0 0 1 0" color-interpolation-filters="sRGB"/></filter><mask id="a0fedd9143"><g filter="url(#d60e00c3be)"><rect x="-37.5" width="450" fill="#000000" y="-37.499999" height="449.999989" fill-opacity="0.6471"/></g></mask><clipPath id="a0285f885b"><path d="M 92 45 L 124 45 L 124 177 L 92 177 Z M 92 45 " clip-rule="nonzero"/></clipPath><clipPath id="024f29c128"><path d="M 337.492188 332.429688 L 192.644531 430.1875 L -39.792969 85.785156 L 105.058594 -11.972656 Z M 337.492188 332.429688 " clip-rule="nonzero"/></clipPath><clipPath id="d3a3aa7a5c"><path d="M 337.492188 332.429688 L 192.644531 430.1875 L -39.792969 85.785156 L 105.058594 -11.972656 Z M 337.492188 332.429688 " clip-rule="nonzero"/></clipPath><clipPath id="fb2048b2fc"><path d="M 130 73 L 142 73 L 142 143 L 130 143 Z M 130 73 " clip-rule="nonzero"/></clipPath><clipPath id="31b982ba24"><path d="M 337.492188 332.429688 L 192.644531 430.1875 L -39.792969 85.785156 L 105.058594 -11.972656 Z M 337.492188 332.429688 " clip-rule="nonzero"/></clipPath><clipPath id="bbf89529f6"><path d="M 337.492188 332.429688 L 192.644531 430.1875 L -39.792969 85.785156 L 105.058594 -11.972656 Z M 337.492188 332.429688 " clip-rule="nonzero"/></clipPath><clipPath id="97d94fa2d9"><path d="M 143 73 L 204 73 L 204 136 L 143 136 Z M 143 73 " clip-rule="nonzero"/></clipPath><clipPath id="c917b01712"><path d="M 337.492188 332.429688 L 192.644531 430.1875 L -39.792969 85.785156 L 105.058594 -11.972656 Z M 337.492188 332.429688 " clip-rule="nonzero"/></clipPath><clipPath id="c7d457f11e"><path d="M 337.492188 332.429688 L 192.644531 430.1875 L -39.792969 85.785156 L 105.058594 -11.972656 Z M 337.492188 332.429688 " clip-rule="nonzero"/></clipPath><clipPath id="e48e0601ec"><path d="M 106 174 L 154 174 L 154 303 L 106 303 Z M 106 174 " clip-rule="nonzero"/></clipPath><clipPath id="f561617953"><path d="M 337.492188 332.429688 L 192.644531 430.1875 L -39.792969 85.785156 L 105.058594 -11.972656 Z M 337.492188 332.429688 " clip-rule="nonzero"/></clipPath><clipPath id="98744997c1"><path d="M 337.492188 332.429688 L 192.644531 430.1875 L -39.792969 85.785156 L 105.058594 -11.972656 Z M 337.492188 332.429688 " clip-rule="nonzero"/></clipPath><clipPath id="a7e6815ec5"><path d="M 166 165 L 295 165 L 295 274 L 166 274 Z M 166 165 " clip-rule="nonzero"/></clipPath><clipPath id="19e21d2790"><path d="M 337.492188 332.429688 L 192.644531 430.1875 L -39.792969 85.785156 L 105.058594 -11.972656 Z M 337.492188 332.429688 " clip-rule="nonzero"/></clipPath><clipPath id="51da17ec14"><path d="M 337.492188 332.429688 L 192.644531 430.1875 L -39.792969 85.785156 L 105.058594 -11.972656 Z M 337.492188 332.429688 " clip-rule="nonzero"/></clipPath><clipPath id="5009b3ef03"><path d="M 164 137 L 250 137 L 250 208 L 164 208 Z M 164 137 " clip-rule="nonzero"/></clipPath><clipPath id="f3982d7ffc"><path d="M 337.492188 332.429688 L 192.644531 430.1875 L -39.792969 85.785156 L 105.058594 -11.972656 Z M 337.492188 332.429688 " clip-rule="nonzero"/></clipPath><clipPath id="ade1c72dc9"><path d="M 337.492188 332.429688 L 192.644531 430.1875 L -39.792969 85.785156 L 105.058594 -11.972656 Z M 337.492188 332.429688 " clip-rule="nonzero"/></clipPath><clipPath id="48f2c59da7"><path d="M 85 1 L 286 1 L 286 294 L 85 294 Z M 85 1 " clip-rule="nonzero"/></clipPath><clipPath id="2279d8045f"><path d="M 337.492188 332.429688 L 192.644531 430.1875 L -39.792969 85.785156 L 105.058594 -11.972656 Z M 337.492188 332.429688 " clip-rule="nonzero"/></clipPath><clipPath id="fe7f82b101"><path d="M 337.492188 332.429688 L 192.644531 430.1875 L -39.792969 85.785156 L 105.058594 -11.972656 Z M 337.492188 332.429688 " clip-rule="nonzero"/></clipPath><clipPath id="0e6b5522cd"><path d="M 189 285 L 206 285 L 206 368 L 189 368 Z M 189 285 " clip-rule="nonzero"/></clipPath><clipPath id="fa479dc608"><path d="M 337.492188 332.429688 L 192.644531 430.1875 L -39.792969 85.785156 L 105.058594 -11.972656 Z M 337.492188 332.429688 " clip-rule="nonzero"/></clipPath><clipPath id="6ed45103b3"><path d="M 337.492188 332.429688 L 192.644531 430.1875 L -39.792969 85.785156 L 105.058594 -11.972656 Z M 337.492188 332.429688 " clip-rule="nonzero"/></clipPath><clipPath id="784cec47c7"><path d="M 215 303 L 285 303 L 285 368 L 215 368 Z M 215 303 " clip-rule="nonzero"/></clipPath><clipPath id="34633e1a65"><path d="M 337.492188 332.429688 L 192.644531 430.1875 L -39.792969 85.785156 L 105.058594 -11.972656 Z M 337.492188 332.429688 " clip-rule="nonzero"/></clipPath><clipPath id="3bd2c793fd"><path d="M 337.492188 332.429688 L 192.644531 430.1875 L -39.792969 85.785156 L 105.058594 -11.972656 Z M 337.492188 332.429688 " clip-rule="nonzero"/></clipPath><clipPath id="75e0a66b68"><path d="M 193 262 L 253 262 L 253 306 L 193 306 Z M 193 262 " clip-rule="nonzero"/></clipPath><clipPath id="1a89ca4473"><path d="M 337.492188 332.429688 L 192.644531 430.1875 L -39.792969 85.785156 L 105.058594 -11.972656 Z M 337.492188 332.429688 " clip-rule="nonzero"/></clipPath><clipPath id="6ceac78346"><path d="M 337.492188 332.429688 L 192.644531 430.1875 L -39.792969 85.785156 L 105.058594 -11.972656 Z M 337.492188 332.429688 " clip-rule="nonzero"/></clipPath><clipPath id="621b9d6b28"><path d="M 173 225 L 280 225 L 280 366 L 173 366 Z M 173 225 " clip-rule="nonzero"/></clipPath><clipPath id="468b513f31"><path d="M 337.492188 332.429688 L 192.644531 430.1875 L -39.792969 85.785156 L 105.058594 -11.972656 Z M 337.492188 332.429688 " clip-rule="nonzero"/></clipPath><clipPath id="c40e5e7a1d"><path d="M 337.492188 332.429688 L 192.644531 430.1875 L -39.792969 85.785156 L 105.058594 -11.972656 Z M 337.492188 332.429688 " clip-rule="nonzero"/></clipPath><clipPath id="002ac7d22d"><rect x="0" width="338" y="0" height="375"/></clipPath></defs><g mask="url(#a0fedd9143)"><g transform="matrix(1, 0, 0, 1, 0, 0)"><g clip-path="url(#002ac7d22d)"><g clip-path="url(#a0285f885b)"><g clip-path="url(#024f29c128)"><g clip-path="url(#d3a3aa7a5c)"><path fill="#9bb881" d="M 104.296875 80.0625 C 104.460938 84.132812 105.671875 88.074219 106.285156 92.105469 C 107.507812 100.140625 106.375 108.335938 105.207031 116.390625 C 102.246094 136.816406 99.101562 157.351562 92.429688 176.894531 C 115.789062 154.160156 127.21875 119.800781 122.125 87.636719 C 119.90625 73.585938 114.75 60.039062 113.609375 45.863281 C 111.652344 51.703125 109.683594 57.554688 107.730469 63.40625 C 105.914062 68.796875 104.082031 74.359375 104.296875 80.0625 Z M 104.296875 80.0625 " fill-opacity="1" fill-rule="nonzero"/></g></g></g><g clip-path="url(#fb2048b2fc)"><g clip-path="url(#31b982ba24)"><g clip-path="url(#bbf89529f6)"><path fill="#9bb881" d="M 139.277344 142.234375 C 140.441406 130.628906 141.539062 118.96875 141.03125 107.328125 C 140.519531 95.675781 138.371094 83.96875 133.300781 73.46875 C 135.011719 85.964844 132.960938 98.644531 131.25 111.140625 C 130.820312 114.265625 130.414062 117.449219 130.773438 120.578125 C 131.644531 128.332031 136.992188 134.792969 139.277344 142.234375 Z M 139.277344 142.234375 " fill-opacity="1" fill-rule="nonzero"/></g></g></g><g clip-path="url(#97d94fa2d9)"><g clip-path="url(#c917b01712)"><g clip-path="url(#c7d457f11e)"><path fill="#9bb881" d="M 146.84375 82.070312 C 150.296875 88.378906 156.628906 90.566406 160.085938 96.886719 C 163.960938 103.953125 167.925781 111.15625 173.738281 116.738281 C 182.316406 124.972656 194.078125 128.941406 203.777344 135.828125 C 196.507812 123.484375 188.191406 111.757812 178.945312 100.824219 C 174.648438 95.742188 170.0625 90.765625 164.394531 87.261719 C 157.058594 82.726562 148.144531 80.984375 143.363281 73.808594 Z M 146.84375 82.070312 " fill-opacity="1" fill-rule="nonzero"/></g></g></g><g clip-path="url(#e48e0601ec)"><g clip-path="url(#f561617953)"><g clip-path="url(#98744997c1)"><path fill="#9bb881" d="M 152.277344 179.800781 C 150.207031 186.320312 146.722656 192.382812 142.164062 197.492188 C 136.660156 203.636719 129.40625 208.699219 126.566406 216.449219 C 124.429688 222.292969 125.164062 228.824219 123.421875 234.789062 C 121.527344 241.304688 116.828125 246.667969 114.53125 253.054688 C 112.375 259.046875 112.449219 265.574219 112.09375 271.933594 C 111.503906 282.371094 109.675781 292.75 106.660156 302.785156 C 116.839844 291.585938 127.15625 280.195312 133.707031 266.566406 C 139.0625 255.417969 141.707031 243.113281 142.773438 230.785156 C 143.300781 224.640625 143.492188 218.304688 145.984375 212.652344 C 147.792969 208.535156 150.753906 204.972656 152.15625 200.699219 C 154.84375 192.527344 149.3125 182.386719 153.394531 174.8125 Z M 152.277344 179.800781 " fill-opacity="1" fill-rule="nonzero"/></g></g></g><g clip-path="url(#a7e6815ec5)"><g clip-path="url(#19e21d2790)"><g clip-path="url(#51da17ec14)"><path fill="#9bb881" d="M 169.753906 175.320312 C 173.769531 188.648438 177.867188 202.085938 184.574219 214.285156 C 191.273438 226.492188 200.855469 237.523438 213.398438 243.578125 C 220.734375 247.117188 228.910156 248.894531 235.882812 253.113281 C 240.363281 255.835938 244.207031 259.492188 248.6875 262.210938 C 254.394531 265.6875 260.9375 267.523438 267.449219 269.050781 C 276.300781 271.117188 285.273438 272.65625 294.304688 273.679688 C 282.613281 265.726562 270.890625 257.746094 260.347656 248.34375 C 251.546875 240.480469 243.5 231.589844 233.378906 225.496094 C 228.105469 222.328125 222.382812 219.984375 217.011719 216.984375 C 198.539062 206.636719 185.394531 189.113281 172.816406 172.089844 C 171.203125 169.894531 167.5 168.066406 167.53125 165.34375 C 165.699219 168.476562 168.707031 171.847656 169.753906 175.320312 Z M 169.753906 175.320312 " fill-opacity="1" fill-rule="nonzero"/></g></g></g><g clip-path="url(#5009b3ef03)"><g clip-path="url(#f3982d7ffc)"><g clip-path="url(#ade1c72dc9)"><path fill="#9bb881" d="M 169.195312 148.152344 C 177.109375 163.371094 185.917969 179.195312 200.625 188.011719 C 203.890625 189.96875 207.382812 191.539062 210.863281 193.082031 C 223.574219 198.769531 236.367188 204.488281 249.878906 207.859375 C 243.21875 203.832031 236.515625 199.792969 230.652344 194.691406 C 218.632812 184.230469 210.164062 169.382812 195.945312 162.191406 C 193.496094 160.953125 190.933594 159.96875 188.488281 158.738281 C 178.894531 153.886719 171.722656 145.433594 164.8125 137.203125 C 165.550781 141.0625 167.382812 144.644531 169.195312 148.152344 Z M 169.195312 148.152344 " fill-opacity="1" fill-rule="nonzero"/></g></g></g><g clip-path="url(#48f2c59da7)"><g clip-path="url(#2279d8045f)"><g clip-path="url(#fe7f82b101)"><path fill="#36685d" d="M 85.757812 4.347656 C 96.742188 13.078125 106.46875 23.015625 114.828125 34.207031 L 112.921875 44.757812 C 110.460938 58.398438 107.910156 72.507812 109.707031 86.570312 C 110.070312 89.414062 110.613281 92.257812 111.140625 95.003906 C 111.539062 97.125 111.957031 99.316406 112.296875 101.476562 C 115.542969 122.695312 110.625 145.160156 98.816406 163.109375 L 100.050781 163.917969 C 112.058594 145.667969 117.050781 122.824219 113.746094 101.257812 C 113.417969 99.0625 112.988281 96.859375 112.578125 94.722656 C 112.050781 91.988281 111.519531 89.167969 111.15625 86.371094 C 109.394531 72.519531 111.925781 58.53125 114.367188 44.992188 L 116.015625 35.835938 C 121.96875 44.011719 127.222656 52.816406 131.789062 62.238281 C 134.011719 78.285156 135.199219 94.613281 135.328125 110.789062 L 136.796875 110.769531 C 136.695312 96.007812 135.644531 81.125 133.792969 66.421875 C 138.183594 76.140625 141.875 86.480469 144.8125 97.453125 L 144.925781 97.421875 C 148.925781 112.582031 153.542969 128.414062 157.503906 144.417969 C 156.398438 162.488281 153.367188 184.558594 142.109375 202.929688 C 141.507812 203.917969 140.871094 204.898438 140.25 205.882812 C 138.023438 209.355469 135.71875 212.941406 134.480469 216.96875 C 133.324219 220.703125 133.140625 224.664062 132.957031 228.488281 C 132.773438 232.550781 132.566406 236.761719 131.183594 240.578125 C 130.195312 243.300781 128.589844 245.832031 127.042969 248.28125 C 125.460938 250.765625 123.835938 253.339844 122.785156 256.164062 C 121.328125 260.136719 121.078125 264.390625 120.828125 268.496094 C 120.675781 271.214844 120.503906 274.015625 119.992188 276.6875 C 118.855469 282.574219 115.902344 288.160156 111.667969 292.40625 L 112.707031 293.433594 C 117.140625 288.980469 120.246094 283.128906 121.429688 276.957031 C 121.96875 274.191406 122.132812 271.335938 122.285156 268.574219 C 122.53125 264.378906 122.761719 260.421875 124.152344 256.660156 C 125.148438 253.976562 126.734375 251.472656 128.265625 249.050781 C 129.851562 246.53125 131.507812 243.9375 132.558594 241.066406 C 134.027344 237.046875 134.230469 232.714844 134.429688 228.539062 C 134.601562 224.8125 134.785156 220.941406 135.886719 217.394531 C 137.074219 213.550781 139.3125 210.050781 141.496094 206.667969 C 142.128906 205.675781 142.777344 204.6875 143.386719 203.691406 C 153.847656 186.621094 157.300781 166.476562 158.660156 149.191406 C 160.839844 158.371094 162.789062 167.589844 164.1875 176.75 C 168.664062 206.074219 173.292969 236.402344 186.5625 263.300781 L 188.296875 262.441406 C 175.234375 235.957031 171.625 205.390625 167.082031 176.300781 C 166.175781 170.484375 165.03125 164.71875 163.78125 158.96875 C 168.960938 172.332031 175.644531 185.070312 183.832031 196.957031 L 184.964844 198.59375 C 187.015625 201.539062 189.128906 204.585938 190.683594 207.835938 C 191.125 208.761719 191.511719 209.707031 191.90625 210.648438 C 192.613281 212.335938 193.347656 214.066406 194.308594 215.667969 C 198.398438 222.457031 205.84375 225.851562 213.050781 229.117188 C 219.664062 232.113281 226.492188 235.21875 230.59375 240.941406 C 231.488281 242.203125 232.277344 243.609375 233.027344 244.96875 C 234.132812 246.980469 235.28125 249.058594 236.894531 250.804688 C 239.980469 254.136719 244.359375 255.824219 248.214844 257.308594 L 285.167969 271.640625 L 285.695312 270.269531 L 248.6875 255.992188 C 244.96875 254.558594 240.765625 252.933594 237.90625 249.851562 C 236.421875 248.246094 235.367188 246.328125 234.253906 244.304688 C 233.492188 242.910156 232.695312 241.460938 231.742188 240.136719 C 227.417969 234.085938 220.398438 230.902344 213.613281 227.824219 C 206.292969 224.503906 199.378906 221.363281 195.523438 214.96875 C 194.605469 213.453125 193.902344 211.765625 193.214844 210.128906 C 192.804688 209.164062 192.402344 208.195312 191.964844 207.253906 C 190.363281 203.890625 188.210938 200.789062 186.136719 197.804688 L 185.007812 196.175781 C 174.148438 180.394531 165.921875 163.132812 160.429688 144.832031 C 156.738281 130.359375 152.410156 115.929688 148.277344 101.257812 L 163.488281 137.039062 C 166.058594 143.078125 168.71875 149.324219 173.0625 154.496094 C 175.992188 157.976562 179.597656 160.839844 183.085938 163.621094 C 186.679688 166.460938 190.378906 169.398438 193.265625 172.96875 C 194.191406 174.121094 195.0625 175.367188 195.902344 176.5625 C 197.386719 178.695312 198.925781 180.890625 200.882812 182.703125 C 203.730469 185.347656 207.277344 187.042969 210.703125 188.683594 L 211.175781 188.917969 C 220.902344 193.574219 230.523438 198.75 239.773438 204.308594 L 240.535156 203.046875 C 231.253906 197.464844 221.585938 192.261719 211.816406 187.589844 L 211.34375 187.355469 C 208.015625 185.769531 204.5625 184.128906 201.886719 181.625 C 200.046875 179.914062 198.554688 177.769531 197.109375 175.71875 C 196.25 174.492188 195.367188 173.222656 194.402344 172.039062 C 191.414062 168.339844 187.644531 165.347656 183.992188 162.457031 C 180.554688 159.734375 177.003906 156.90625 174.171875 153.550781 C 169.964844 148.558594 167.355469 142.410156 164.820312 136.46875 L 146.972656 94.5 C 144.554688 85.867188 141.683594 77.628906 138.363281 69.769531 L 151.832031 84.296875 C 153.746094 86.363281 155.714844 88.480469 158.042969 90.179688 C 159.152344 90.980469 160.332031 91.691406 161.484375 92.378906 C 163.390625 93.523438 165.207031 94.59375 166.679688 96.09375 C 168.671875 98.089844 169.886719 100.644531 171.160156 103.332031 C 171.882812 104.84375 172.632812 106.398438 173.519531 107.84375 C 176.171875 112.171875 180.042969 115.453125 183.792969 118.636719 L 192.421875 125.957031 L 193.371094 124.839844 L 184.742188 117.519531 C 181.074219 114.410156 177.296875 111.203125 174.765625 107.078125 C 173.921875 105.691406 173.191406 104.171875 172.488281 102.707031 C 171.199219 100.023438 169.878906 97.246094 167.71875 95.0625 C 166.097656 93.441406 164.136719 92.257812 162.21875 91.121094 C 161.097656 90.457031 159.941406 89.761719 158.886719 88.996094 C 156.679688 87.382812 154.761719 85.320312 152.898438 83.308594 L 136.644531 65.78125 C 124.90625 39.640625 108.011719 17.976562 86.210938 1.015625 C 86.09375 2.125 85.921875 3.238281 85.757812 4.347656 Z M 85.757812 4.347656 " fill-opacity="1" fill-rule="nonzero"/></g></g></g><g clip-path="url(#0e6b5522cd)"><g clip-path="url(#fa479dc608)"><g clip-path="url(#6ed45103b3)"><path fill="#9bb881" d="M 199.164062 367.714844 C 192.59375 340.578125 185.996094 312.164062 192.714844 285.035156 C 199.5625 301.316406 206.394531 318.433594 204.96875 336.046875 C 204.105469 346.746094 200.210938 357.027344 199.164062 367.714844 Z M 199.164062 367.714844 " fill-opacity="1" fill-rule="nonzero"/></g></g></g><g clip-path="url(#784cec47c7)"><g clip-path="url(#34633e1a65)"><g clip-path="url(#3bd2c793fd)"><path fill="#9bb881" d="M 215.074219 303.996094 C 228.378906 333.496094 254.097656 357.125 284.617188 367.921875 C 276.730469 356.28125 268.679688 344.464844 257.820312 335.542969 C 251.664062 330.496094 244.710938 326.457031 238.625 321.316406 C 231.105469 314.957031 224.546875 306.675781 215.074219 303.996094 Z M 215.074219 303.996094 " fill-opacity="1" fill-rule="nonzero"/></g></g></g><g clip-path="url(#75e0a66b68)"><g clip-path="url(#1a89ca4473)"><g clip-path="url(#6ceac78346)"><path fill="#9bb881" d="M 203.53125 275.335938 C 205.714844 277.710938 207.625 280.390625 210.273438 282.230469 C 212.496094 283.773438 215.109375 284.632812 217.484375 285.941406 C 220.304688 287.484375 222.738281 289.632812 225.34375 291.5 C 230.097656 294.929688 235.410156 297.492188 240.695312 300.027344 C 244.484375 301.859375 248.277344 303.667969 252.066406 305.5 C 250.246094 302.429688 247.769531 299.820312 245.300781 297.246094 C 241.449219 293.222656 237.609375 289.191406 233.753906 285.164062 C 232.0625 283.382812 230.34375 281.589844 228.261719 280.277344 C 225.089844 278.257812 221.304688 277.5 217.703125 276.4375 C 208.878906 273.828125 200.652344 269.191406 193.867188 262.96875 C 195.367188 268.027344 199.945312 271.441406 203.53125 275.335938 Z M 203.53125 275.335938 " fill-opacity="1" fill-rule="nonzero"/></g></g></g><g clip-path="url(#621b9d6b28)"><g clip-path="url(#468b513f31)"><g clip-path="url(#c40e5e7a1d)"><path fill="#36685d" d="M 199.8125 363.339844 C 194.875 334.578125 192.6875 305.210938 193.253906 276.003906 C 197.210938 282.597656 201.570312 288.953125 206.308594 294.976562 L 206.421875 294.898438 C 228.378906 320.261719 252.613281 343.921875 278.5 365.230469 L 279.433594 364.09375 C 253.570312 342.796875 229.347656 319.144531 207.421875 293.789062 C 198.558594 282.449219 191.214844 269.800781 185.585938 256.410156 C 195.324219 265.65625 206.660156 273.179688 217.683594 280.480469 C 228.320312 287.519531 239.320312 294.808594 248.75 303.574219 L 249.742188 302.5 C 240.226562 293.644531 229.179688 286.332031 218.484375 279.253906 C 206.570312 271.359375 194.28125 263.179688 184.128906 252.902344 C 180.851562 244.566406 177.910156 235.957031 176 227.238281 C 174.957031 226.667969 174.230469 226.191406 173.140625 225.746094 C 176.75 242.5 183.191406 258.640625 191.808594 273.53125 C 191.070312 303.632812 193.265625 333.917969 198.355469 363.578125 Z M 199.8125 363.339844 " fill-opacity="1" fill-rule="nonzero"/></g></g></g></g></g></g></svg>