<svg xmlns="http://www.w3.org/2000/svg" width="500" viewBox="0 0 375 375" height="500" version="1.0"><defs><clipPath id="prefix__d"><path d="M92 45h32v132H92zm0 0"/></clipPath><clipPath id="prefix__e"><path d="M337.492 332.43l-144.847 97.757L-39.793 85.786l144.852-97.758zm0 0"/></clipPath><clipPath id="prefix__f"><path d="M337.492 332.43l-144.847 97.757L-39.793 85.786l144.852-97.758zm0 0"/></clipPath><clipPath id="prefix__g"><path d="M130 73h12v70h-12zm0 0"/></clipPath><clipPath id="prefix__h"><path d="M337.492 332.43l-144.847 97.757L-39.793 85.786l144.852-97.758zm0 0"/></clipPath><clipPath id="prefix__i"><path d="M337.492 332.43l-144.847 97.757L-39.793 85.786l144.852-97.758zm0 0"/></clipPath><clipPath id="prefix__j"><path d="M143 73h61v63h-61zm0 0"/></clipPath><clipPath id="prefix__k"><path d="M337.492 332.43l-144.847 97.757L-39.793 85.786l144.852-97.758zm0 0"/></clipPath><clipPath id="prefix__l"><path d="M337.492 332.43l-144.847 97.757L-39.793 85.786l144.852-97.758zm0 0"/></clipPath><clipPath id="prefix__m"><path d="M106 174h48v129h-48zm0 0"/></clipPath><clipPath id="prefix__n"><path d="M337.492 332.43l-144.847 97.757L-39.793 85.786l144.852-97.758zm0 0"/></clipPath><clipPath id="prefix__o"><path d="M337.492 332.43l-144.847 97.757L-39.793 85.786l144.852-97.758zm0 0"/></clipPath><clipPath id="prefix__p"><path d="M166 165h129v109H166zm0 0"/></clipPath><clipPath id="prefix__q"><path d="M337.492 332.43l-144.847 97.757L-39.793 85.786l144.852-97.758zm0 0"/></clipPath><clipPath id="prefix__r"><path d="M337.492 332.43l-144.847 97.757L-39.793 85.786l144.852-97.758zm0 0"/></clipPath><clipPath id="prefix__s"><path d="M164 137h86v71h-86zm0 0"/></clipPath><clipPath id="prefix__t"><path d="M337.492 332.43l-144.847 97.757L-39.793 85.786l144.852-97.758zm0 0"/></clipPath><clipPath id="prefix__u"><path d="M337.492 332.43l-144.847 97.757L-39.793 85.786l144.852-97.758zm0 0"/></clipPath><clipPath id="prefix__v"><path d="M85 1h201v293H85zm0 0"/></clipPath><clipPath id="prefix__w"><path d="M337.492 332.43l-144.847 97.757L-39.793 85.786l144.852-97.758zm0 0"/></clipPath><clipPath id="prefix__x"><path d="M337.492 332.43l-144.847 97.757L-39.793 85.786l144.852-97.758zm0 0"/></clipPath><clipPath id="prefix__y"><path d="M189 285h17v83h-17zm0 0"/></clipPath><clipPath id="prefix__z"><path d="M337.492 332.43l-144.847 97.757L-39.793 85.786l144.852-97.758zm0 0"/></clipPath><clipPath id="prefix__A"><path d="M337.492 332.43l-144.847 97.757L-39.793 85.786l144.852-97.758zm0 0"/></clipPath><clipPath id="prefix__B"><path d="M215 303h70v65h-70zm0 0"/></clipPath><clipPath id="prefix__C"><path d="M337.492 332.43l-144.847 97.757L-39.793 85.786l144.852-97.758zm0 0"/></clipPath><clipPath id="prefix__D"><path d="M337.492 332.43l-144.847 97.757L-39.793 85.786l144.852-97.758zm0 0"/></clipPath><clipPath id="prefix__E"><path d="M193 262h60v44h-60zm0 0"/></clipPath><clipPath id="prefix__F"><path d="M337.492 332.43l-144.847 97.757L-39.793 85.786l144.852-97.758zm0 0"/></clipPath><clipPath id="prefix__G"><path d="M337.492 332.43l-144.847 97.757L-39.793 85.786l144.852-97.758zm0 0"/></clipPath><clipPath id="prefix__H"><path d="M173 225h107v141H173zm0 0"/></clipPath><clipPath id="prefix__I"><path d="M337.492 332.43l-144.847 97.757L-39.793 85.786l144.852-97.758zm0 0"/></clipPath><clipPath id="prefix__J"><path d="M337.492 332.43l-144.847 97.757L-39.793 85.786l144.852-97.758zm0 0"/></clipPath><clipPath id="prefix__c"><path d="M0 0h338v375H0z"/></clipPath><filter x="0%" y="0%" width="100%" height="100%" id="prefix__a"><feColorMatrix values="0 0 0 0 1 0 0 0 0 1 0 0 0 0 1 0 0 0 1 0" color-interpolation-filters="sRGB"/></filter><mask id="prefix__b"><g filter="url(#prefix__a)"><path fill-opacity=".647" d="M-37.5-37.5h450v450h-450z"/></g></mask></defs><g mask="url(#prefix__b)"><g clip-path="url(#prefix__c)"><g clip-path="url(#prefix__d)"><g clip-path="url(#prefix__e)"><g clip-path="url(#prefix__f)"><path fill="#9bb881" d="M104.297 80.063c.164 4.07 1.375 8.011 1.988 12.042 1.223 8.036.09 16.23-1.078 24.286-2.96 20.425-6.105 40.96-12.777 60.504 23.36-22.735 34.789-57.094 29.695-89.258-2.219-14.051-7.375-27.598-8.516-41.774-1.957 5.84-3.925 11.692-5.879 17.543-1.816 5.39-3.648 10.953-3.433 16.657zm0 0"/></g></g></g><g clip-path="url(#prefix__g)"><g clip-path="url(#prefix__h)"><g clip-path="url(#prefix__i)"><path fill="#9bb881" d="M139.277 142.234c1.164-11.605 2.262-23.265 1.754-34.906-.511-11.652-2.66-23.36-7.73-33.86 1.71 12.497-.34 25.177-2.051 37.673-.43 3.125-.836 6.308-.477 9.437.872 7.754 6.22 14.215 8.504 21.656zm0 0"/></g></g></g><g clip-path="url(#prefix__j)"><g clip-path="url(#prefix__k)"><g clip-path="url(#prefix__l)"><path fill="#9bb881" d="M146.844 82.07c3.453 6.309 9.785 8.496 13.242 14.817 3.875 7.066 7.84 14.27 13.652 19.851 8.578 8.235 20.34 12.203 30.04 19.09a253.323 253.323 0 00-24.833-35.004c-4.297-5.082-8.882-10.058-14.55-13.562-7.336-4.535-16.25-6.278-21.032-13.453zm0 0"/></g></g></g><g clip-path="url(#prefix__m)"><g clip-path="url(#prefix__n)"><g clip-path="url(#prefix__o)"><path fill="#9bb881" d="M152.277 179.8c-2.07 6.52-5.554 12.583-10.113 17.692-5.504 6.145-12.758 11.207-15.598 18.957-2.136 5.844-1.402 12.375-3.144 18.34-1.895 6.516-6.594 11.879-8.89 18.266-2.157 5.992-2.083 12.52-2.438 18.879a133.5 133.5 0 01-5.434 30.851c10.18-11.2 20.496-22.59 27.047-36.219 5.356-11.148 8-23.453 9.066-35.78.528-6.145.72-12.481 3.211-18.134 1.809-4.117 4.77-7.68 6.172-11.953 2.688-8.172-2.844-18.312 1.239-25.887zm0 0"/></g></g></g><g clip-path="url(#prefix__p)"><g clip-path="url(#prefix__q)"><g clip-path="url(#prefix__r)"><path fill="#9bb881" d="M169.754 175.32c4.016 13.328 8.113 26.766 14.82 38.965 6.7 12.207 16.281 23.238 28.824 29.293 7.336 3.54 15.512 5.317 22.485 9.535 4.48 2.723 8.324 6.38 12.804 9.098 5.708 3.476 12.25 5.312 18.762 6.84a234.101 234.101 0 0026.856 4.629c-11.692-7.953-23.414-15.934-33.957-25.336-8.801-7.864-16.848-16.754-26.97-22.848-5.273-3.168-10.995-5.512-16.366-8.512-18.473-10.347-31.617-27.87-44.196-44.894-1.613-2.195-5.316-4.024-5.285-6.746-1.832 3.133 1.176 6.504 2.223 9.976zm0 0"/></g></g></g><g clip-path="url(#prefix__s)"><g clip-path="url(#prefix__t)"><g clip-path="url(#prefix__u)"><path fill="#9bb881" d="M169.195 148.152c7.914 15.22 16.723 31.043 31.43 39.86 3.266 1.957 6.758 3.527 10.238 5.07 12.711 5.688 25.504 11.406 39.016 14.777-6.66-4.027-13.363-8.066-19.227-13.168-12.02-10.46-20.488-25.308-34.707-32.5-2.449-1.238-5.011-2.222-7.457-3.453-9.593-4.851-16.765-13.304-23.675-21.535.738 3.86 2.57 7.442 4.382 10.95zm0 0"/></g></g></g><g clip-path="url(#prefix__v)"><g clip-path="url(#prefix__w)"><g clip-path="url(#prefix__x)"><path fill="#36685d" d="M85.758 4.348c10.984 8.73 20.71 18.668 29.07 29.859l-1.906 10.55c-2.461 13.641-5.012 27.75-3.215 41.813.363 2.844.906 5.688 1.434 8.434.398 2.121.816 4.312 1.156 6.473 3.246 21.218-1.672 43.683-13.48 61.632l1.234.809c12.008-18.25 17-41.094 13.695-62.66-.328-2.195-.758-4.399-1.168-6.535-.527-2.735-1.058-5.555-1.422-8.352-1.761-13.851.77-27.84 3.211-41.379l1.649-9.156c5.953 8.176 11.207 16.98 15.773 26.402a376.97 376.97 0 013.54 48.551l1.468-.02c-.102-14.761-1.152-29.644-3.004-44.347 4.39 9.719 8.082 20.058 11.02 31.031l.113-.031c4 15.16 8.617 30.992 12.578 46.996-1.106 18.07-4.137 40.14-15.395 58.512-.601.988-1.238 1.968-1.859 2.953-2.227 3.472-4.531 7.058-5.77 11.086-1.156 3.734-1.34 7.695-1.523 11.52-.184 4.062-.39 8.273-1.773 12.09-.989 2.722-2.594 5.253-4.141 7.702-1.582 2.485-3.207 5.059-4.258 7.883-1.457 3.973-1.707 8.227-1.957 12.332-.152 2.719-.324 5.52-.836 8.192-1.137 5.886-4.09 11.472-8.324 15.718l1.039 1.028c4.434-4.454 7.54-10.305 8.723-16.477.539-2.766.703-5.621.855-8.383.246-4.195.477-8.152 1.867-11.914.996-2.683 2.582-5.187 4.114-7.61 1.586-2.519 3.242-5.113 4.293-7.984 1.468-4.02 1.671-8.351 1.87-12.527.173-3.726.356-7.598 1.458-11.144 1.187-3.844 3.425-7.344 5.61-10.727.632-.992 1.28-1.98 1.89-2.977 10.46-17.07 13.914-37.214 15.273-54.5 2.18 9.18 4.13 18.399 5.528 27.559 4.476 29.324 9.105 59.652 22.375 86.55l1.734-.859c-13.063-26.484-16.672-57.05-21.215-86.14-.906-5.817-2.05-11.582-3.3-17.332 5.179 13.363 11.863 26.101 20.05 37.988l1.133 1.637c2.05 2.945 4.164 5.992 5.719 9.242.441.926.828 1.871 1.222 2.812.707 1.688 1.442 3.418 2.403 5.02 4.09 6.789 11.535 10.184 18.742 13.45 6.613 2.995 13.441 6.1 17.543 11.823.894 1.262 1.683 2.668 2.433 4.028 1.106 2.011 2.254 4.09 3.868 5.836 3.085 3.332 7.464 5.02 11.32 6.504l36.953 14.332.527-1.371-37.007-14.278c-3.72-1.433-7.922-3.058-10.782-6.14-1.484-1.606-2.539-3.524-3.652-5.547-.762-1.395-1.559-2.844-2.512-4.168-4.324-6.051-11.344-9.235-18.129-12.313-7.32-3.32-14.234-6.46-18.09-12.855-.918-1.516-1.62-3.203-2.308-4.84-.41-.965-.813-1.934-1.25-2.875-1.602-3.363-3.754-6.465-5.828-9.45l-1.13-1.628c-10.859-15.781-19.085-33.043-24.577-51.344-3.692-14.473-8.02-28.902-12.153-43.574l15.211 35.781c2.57 6.04 5.23 12.285 9.575 17.457 2.93 3.48 6.535 6.344 10.023 9.125 3.594 2.84 7.293 5.777 10.18 9.348.925 1.152 1.797 2.398 2.636 3.594 1.485 2.132 3.024 4.328 4.98 6.14 2.848 2.645 6.395 4.34 9.821 5.98l.473.235a344.72 344.72 0 0128.597 15.39l.762-1.261a343.475 343.475 0 00-28.719-15.457l-.472-.235c-3.328-1.585-6.781-3.226-9.457-5.73-1.84-1.71-3.332-3.855-4.778-5.906-.859-1.227-1.742-2.496-2.707-3.68-2.988-3.7-6.757-6.691-10.41-9.582-3.437-2.723-6.988-5.55-9.82-8.906-4.207-4.992-6.817-11.14-9.352-17.082L146.973 94.5c-2.418-8.633-5.29-16.871-8.61-24.73l13.469 14.527c1.914 2.066 3.883 4.183 6.211 5.883 1.11.8 2.289 1.511 3.441 2.199 1.907 1.144 3.723 2.215 5.196 3.715 1.992 1.996 3.207 4.55 4.48 7.238.723 1.512 1.473 3.066 2.36 4.512 2.652 4.328 6.523 7.61 10.273 10.793l8.629 7.32.95-1.117-8.63-7.32c-3.668-3.11-7.445-6.317-9.976-10.442-.844-1.387-1.575-2.906-2.278-4.371-1.289-2.684-2.61-5.46-4.77-7.644-1.62-1.622-3.581-2.805-5.5-3.942-1.12-.664-2.277-1.36-3.331-2.125-2.207-1.613-4.125-3.676-5.989-5.687L136.645 65.78c-11.739-26.14-28.633-47.804-50.434-64.765-.117 1.109-.29 2.222-.453 3.332zm0 0"/></g></g></g><g clip-path="url(#prefix__y)"><g clip-path="url(#prefix__z)"><g clip-path="url(#prefix__A)"><path fill="#9bb881" d="M199.164 367.715c-6.57-27.137-13.168-55.55-6.45-82.68 6.849 16.281 13.68 33.399 12.255 51.012-.864 10.7-4.758 20.98-5.805 31.668zm0 0"/></g></g></g><g clip-path="url(#prefix__B)"><g clip-path="url(#prefix__C)"><g clip-path="url(#prefix__D)"><path fill="#9bb881" d="M215.074 303.996c13.305 29.5 39.024 53.129 69.543 63.926-7.887-11.64-15.937-23.457-26.797-32.379-6.156-5.047-13.11-9.086-19.195-14.227-7.52-6.359-14.078-14.64-23.55-17.32zm0 0"/></g></g></g><g clip-path="url(#prefix__E)"><g clip-path="url(#prefix__F)"><g clip-path="url(#prefix__G)"><path fill="#9bb881" d="M203.531 275.336c2.184 2.375 4.094 5.055 6.742 6.894 2.223 1.543 4.836 2.403 7.211 3.711 2.82 1.543 5.254 3.692 7.86 5.559 4.754 3.43 10.066 5.992 15.351 8.527 3.79 1.832 7.582 3.641 11.371 5.473-1.82-3.07-4.296-5.68-6.765-8.254-3.852-4.023-7.692-8.055-11.547-12.082-1.691-1.781-3.41-3.574-5.492-4.887-3.172-2.02-6.957-2.777-10.559-3.84-8.824-2.609-17.05-7.246-23.836-13.468 1.5 5.058 6.078 8.472 9.664 12.367zm0 0"/></g></g></g><g clip-path="url(#prefix__H)"><g clip-path="url(#prefix__I)"><g clip-path="url(#prefix__J)"><path fill="#36685d" d="M199.813 363.34c-4.938-28.762-7.125-58.13-6.56-87.336a183.03 183.03 0 0013.056 18.973l.113-.079c21.957 25.364 46.191 49.024 72.078 70.332l.934-1.136a598.11 598.11 0 01-72.012-70.305c-8.863-11.34-16.207-23.988-21.836-37.379 9.738 9.246 21.074 16.77 32.098 24.07 10.636 7.04 21.636 14.329 31.066 23.094l.992-1.074c-9.515-8.855-20.562-16.168-31.258-23.246-11.914-7.895-24.203-16.074-34.355-26.352-3.277-8.336-6.219-16.945-8.129-25.664-1.043-.57-1.77-1.047-2.86-1.492 3.61 16.754 10.051 32.895 18.669 47.785a465.971 465.971 0 006.546 90.047zm0 0"/></g></g></g></g></g></svg>