<svg xmlns="http://www.w3.org/2000/svg" xmlns:xlink="http://www.w3.org/1999/xlink" width="500" zoomAndPan="magnify" viewBox="0 0 375 374.999991" height="500" preserveAspectRatio="xMidYMid meet" version="1.0"><defs><clipPath id="5eb994dea1"><path d="M 43.636719 64 L 281 64 L 281 336 L 43.636719 336 Z M 43.636719 64 " clip-rule="nonzero"/></clipPath><clipPath id="75af8b84f9"><path d="M 96 138 L 331.355469 138 L 331.355469 375 L 96 375 Z M 96 138 " clip-rule="nonzero"/></clipPath></defs><g clip-path="url(#5eb994dea1)"><path fill="#bdb692" d="M 113.941406 103.082031 C 125.183594 114.3125 165.863281 134.945312 165.863281 134.945312 C 165.863281 134.945312 145.210938 94.304688 133.96875 83.074219 C 122.730469 71.84375 108.730469 65.515625 95.214844 64.363281 C 96.367188 77.867188 102.703125 91.851562 113.941406 103.082031 Z M 202.1875 68.492188 C 207.730469 80.859375 208.972656 96.160156 204.585938 111.425781 C 200.203125 126.691406 174.625 164.433594 174.625 164.433594 C 174.625 164.433594 172.976562 118.886719 177.363281 103.621094 C 181.746094 88.355469 190.921875 76.042969 202.1875 68.492188 Z M 243.300781 118.761719 C 245.214844 132.179688 242.183594 147.226562 233.753906 160.691406 C 225.324219 174.15625 190.320312 203.390625 190.320312 203.390625 C 190.320312 203.390625 201.308594 159.152344 209.738281 145.6875 C 218.167969 132.222656 230.386719 122.914062 243.300781 118.761719 Z M 280.359375 188.851562 C 282.273438 202.265625 279.242188 217.316406 270.8125 230.78125 C 262.382812 244.246094 227.378906 273.476562 227.378906 273.476562 C 227.378906 273.476562 238.367188 229.238281 246.796875 215.773438 C 255.226562 202.3125 267.445312 193.003906 280.359375 188.851562 Z M 43.324219 194.332031 C 55.605469 188.578125 70.898438 187.066406 86.253906 191.175781 C 101.609375 195.285156 139.835938 220.167969 139.835938 220.167969 C 139.835938 220.167969 94.277344 222.621094 78.921875 218.507812 C 63.566406 214.398438 51.082031 205.453125 43.324219 194.332031 Z M 94.269531 255.621094 C 106.550781 249.867188 121.839844 248.355469 137.195312 252.464844 C 152.550781 256.578125 190.777344 281.457031 190.777344 281.457031 C 190.777344 281.457031 145.222656 283.910156 129.867188 279.800781 C 114.511719 275.6875 102.023438 266.742188 94.269531 255.621094 Z M 177.503906 307.171875 C 193.398438 307.171875 236.769531 321.320312 236.769531 321.320312 C 236.769531 321.320312 193.398438 335.46875 177.503906 335.46875 C 161.605469 335.46875 147.226562 330.054688 136.855469 321.320312 C 147.226562 312.585938 161.605469 307.171875 177.503906 307.171875 Z M 177.503906 307.171875 " fill-opacity="1" fill-rule="nonzero"/></g><path fill="#e8ceb0" d="M 164.695312 135.140625 L 166.058594 133.777344 L 96.730469 64.519531 L 95.367188 65.878906 Z M 173.890625 163.507812 L 200.933594 69.359375 L 202.785156 69.890625 L 175.742188 164.039062 Z M 189.867188 202.296875 L 241.859375 119.25 L 243.488281 120.273438 L 191.5 203.316406 Z M 226.925781 272.382812 L 278.917969 189.339844 L 280.550781 190.359375 L 228.558594 273.40625 Z M 44.214844 195.566406 L 44.714844 193.707031 L 139.417969 219.058594 L 138.921875 220.917969 Z M 95.160156 256.855469 L 95.660156 255 L 190.363281 280.351562 L 189.863281 282.207031 Z M 138.035156 320.359375 L 236.082031 320.359375 L 236.082031 322.285156 L 138.035156 322.285156 Z M 138.035156 320.359375 " fill-opacity="1" fill-rule="nonzero"/><path fill="#e8ceb0" d="M 307.59375 361.46875 C 295.792969 351.996094 284.785156 341.519531 274.476562 330.394531 C 264.167969 319.261719 254.558594 307.46875 245.578125 295.214844 C 227.621094 270.695312 212.152344 244.363281 198.882812 216.988281 C 192.238281 203.300781 186.21875 189.3125 180.804688 175.09375 C 175.390625 160.875 170.589844 146.421875 166.496094 131.765625 C 158.335938 102.472656 152.867188 72.320312 151.742188 41.90625 L 149.820312 41.964844 C 150.726562 72.582031 156.007812 102.9375 163.992188 132.453125 C 168 147.21875 172.722656 161.789062 178.0625 176.125 C 183.402344 190.464844 189.351562 204.578125 195.9375 218.394531 C 209.082031 246.03125 224.460938 272.65625 242.394531 297.527344 C 251.367188 309.957031 260.984375 321.9375 271.332031 333.277344 C 281.683594 344.617188 292.765625 355.324219 304.707031 365.054688 Z M 307.59375 361.46875 " fill-opacity="1" fill-rule="nonzero"/><path fill="#bdb692" d="M 280.730469 238.675781 C 286.492188 250.945312 288.003906 266.222656 283.890625 281.5625 C 279.777344 296.902344 254.871094 335.089844 254.871094 335.089844 C 254.871094 335.089844 252.417969 289.578125 256.53125 274.238281 C 260.644531 258.898438 269.601562 246.421875 280.730469 238.675781 Z M 151.703125 197.359375 C 151.703125 213.238281 165.863281 256.566406 165.863281 256.566406 C 165.863281 256.566406 180.027344 213.238281 180.027344 197.359375 C 180.027344 181.476562 174.609375 167.113281 165.863281 156.75 C 157.121094 167.113281 151.703125 181.476562 151.703125 197.359375 Z M 222.605469 200.71875 C 229.816406 212.195312 233.179688 227.175781 230.96875 242.898438 C 228.753906 258.625 208.6875 299.5625 208.6875 299.5625 C 208.6875 299.5625 200.703125 254.6875 202.917969 238.960938 C 205.132812 223.234375 212.5 209.761719 222.605469 200.71875 Z M 222.605469 200.71875 " fill-opacity="1" fill-rule="nonzero"/><g clip-path="url(#75af8b84f9)"><path fill="#e8ceb0" d="M 331.328125 369.222656 C 304.71875 360.410156 279.535156 347.324219 256.039062 331.839844 C 232.539062 316.3125 210.683594 298.285156 190.570312 278.5 C 170.535156 258.636719 152.214844 236.996094 136.359375 213.640625 C 120.546875 190.289062 107.097656 165.195312 97.890625 138.503906 L 96.0625 139.113281 C 105.03125 166.121094 118.285156 191.550781 133.941406 215.257812 C 149.640625 238.96875 167.847656 260.988281 187.816406 281.25 C 207.867188 301.433594 229.71875 319.894531 253.328125 335.890625 C 276.9375 351.84375 302.328125 365.4375 329.472656 374.78125 Z M 331.328125 369.222656 " fill-opacity="1" fill-rule="nonzero"/></g><path fill="#bdb692" d="M 90.046875 146.195312 C 95.480469 161.121094 123.625 196.996094 123.625 196.996094 C 123.625 196.996094 122.097656 151.441406 116.660156 136.519531 C 111.222656 121.59375 101.214844 109.949219 89.453125 103.199219 C 84.78125 115.921875 84.609375 131.273438 90.046875 146.195312 Z M 148.679688 0.21875 C 158.292969 9.777344 164.945312 23.617188 166.332031 39.4375 C 167.714844 55.257812 156.875 99.652344 156.875 99.652344 C 156.875 99.652344 139.5 57.726562 138.113281 41.902344 C 136.726562 26.082031 140.875 11.300781 148.679688 0.21875 Z M 148.679688 0.21875 " fill-opacity="1" fill-rule="nonzero"/><path fill="#e8ceb0" d="M 122.484375 196.679688 L 124.292969 196.019531 L 90.757812 103.976562 L 88.949219 104.636719 Z M 147.824219 1.476562 L 149.742188 1.308594 L 157.773438 98.886719 L 155.859375 99.054688 Z M 147.824219 1.476562 " fill-opacity="1" fill-rule="nonzero"/><path fill="#e8ceb0" d="M 164.902344 255.878906 L 166.828125 255.878906 L 166.828125 157.929688 L 164.902344 157.929688 Z M 207.832031 298.746094 L 221.484375 201.75 L 223.394531 202.019531 L 209.738281 299.015625 Z M 254.121094 334.179688 L 279.496094 239.566406 L 281.355469 240.066406 L 255.980469 334.675781 Z M 254.121094 334.179688 " fill-opacity="1" fill-rule="nonzero"/></svg>