<svg xmlns="http://www.w3.org/2000/svg" xmlns:xlink="http://www.w3.org/1999/xlink" width="500" zoomAndPan="magnify" viewBox="0 0 375 374.999991" height="500" preserveAspectRatio="xMidYMid meet" version="1.0"><defs><clipPath id="ef2cf183e4"><path d="M 87 64 L 325.5 64 L 325.5 336 L 87 336 Z M 87 64 " clip-rule="nonzero"/></clipPath><clipPath id="b32ad7bf82"><path d="M 37.5 138 L 273 138 L 273 375 L 37.5 375 Z M 37.5 138 " clip-rule="nonzero"/></clipPath></defs><g clip-path="url(#ef2cf183e4)"><path fill="#bdb692" d="M 254.914062 103.082031 C 243.671875 114.3125 202.992188 134.945312 202.992188 134.945312 C 202.992188 134.945312 223.644531 94.304688 234.882812 83.074219 C 246.125 71.84375 260.125 65.515625 273.640625 64.363281 C 272.488281 77.867188 266.152344 91.851562 254.914062 103.082031 Z M 166.667969 68.492188 C 161.125 80.859375 159.882812 96.160156 164.269531 111.425781 C 168.652344 126.691406 194.226562 164.433594 194.226562 164.433594 C 194.226562 164.433594 195.878906 118.886719 191.492188 103.621094 C 187.109375 88.355469 177.933594 76.042969 166.667969 68.492188 Z M 125.554688 118.761719 C 123.640625 132.179688 126.671875 147.226562 135.101562 160.691406 C 143.53125 174.15625 178.535156 203.390625 178.535156 203.390625 C 178.535156 203.390625 167.546875 159.152344 159.117188 145.6875 C 150.6875 132.222656 138.46875 122.914062 125.554688 118.761719 Z M 88.496094 188.851562 C 86.582031 202.265625 89.613281 217.316406 98.042969 230.78125 C 106.472656 244.246094 141.476562 273.476562 141.476562 273.476562 C 141.476562 273.476562 130.488281 229.238281 122.058594 215.773438 C 113.628906 202.3125 101.410156 193.003906 88.496094 188.851562 Z M 325.527344 194.332031 C 313.25 188.578125 297.957031 187.066406 282.601562 191.175781 C 267.246094 195.285156 229.019531 220.167969 229.019531 220.167969 C 229.019531 220.167969 274.578125 222.621094 289.933594 218.507812 C 305.289062 214.398438 317.773438 205.453125 325.527344 194.332031 Z M 274.585938 255.621094 C 262.304688 249.867188 247.011719 248.355469 231.660156 252.464844 C 216.304688 256.578125 178.078125 281.457031 178.078125 281.457031 C 178.078125 281.457031 223.632812 283.910156 238.988281 279.800781 C 254.34375 275.6875 266.832031 266.742188 274.585938 255.621094 Z M 191.351562 307.171875 C 175.457031 307.171875 132.085938 321.320312 132.085938 321.320312 C 132.085938 321.320312 175.457031 335.46875 191.351562 335.46875 C 207.25 335.46875 221.628906 330.054688 232 321.320312 C 221.628906 312.585938 207.25 307.171875 191.351562 307.171875 Z M 191.351562 307.171875 " fill-opacity="1" fill-rule="nonzero"/></g><path fill="#e8ceb0" d="M 204.15625 135.140625 L 202.796875 133.777344 L 272.125 64.519531 L 273.484375 65.878906 Z M 194.964844 163.507812 L 167.917969 69.359375 L 166.070312 69.890625 L 193.113281 164.039062 Z M 178.988281 202.296875 L 126.996094 119.25 L 125.363281 120.273438 L 177.355469 203.316406 Z M 141.929688 272.382812 L 89.9375 189.339844 L 88.304688 190.359375 L 140.296875 273.40625 Z M 324.640625 195.566406 L 324.140625 193.707031 L 229.433594 219.058594 L 229.933594 220.917969 Z M 273.695312 256.855469 L 273.195312 255 L 178.492188 280.351562 L 178.988281 282.207031 Z M 230.820312 320.359375 L 132.773438 320.359375 L 132.773438 322.285156 L 230.820312 322.285156 Z M 230.820312 320.359375 " fill-opacity="1" fill-rule="nonzero"/><path fill="#e8ceb0" d="M 61.261719 361.46875 C 73.058594 351.996094 84.070312 341.519531 94.378906 330.394531 C 104.683594 319.261719 114.292969 307.46875 123.277344 295.214844 C 141.234375 270.695312 156.703125 244.363281 169.96875 216.988281 C 176.617188 203.300781 182.636719 189.3125 188.050781 175.09375 C 193.464844 160.875 198.265625 146.421875 202.359375 131.765625 C 210.515625 102.472656 215.988281 72.320312 217.113281 41.90625 L 219.035156 41.964844 C 218.128906 72.582031 212.847656 102.9375 204.863281 132.453125 C 200.855469 147.21875 196.132812 161.789062 190.792969 176.125 C 185.453125 190.464844 179.503906 204.578125 172.917969 218.394531 C 159.769531 246.03125 144.394531 272.65625 126.460938 297.527344 C 117.488281 309.957031 107.871094 321.9375 97.523438 333.277344 C 87.171875 344.617188 76.089844 355.324219 64.148438 365.054688 Z M 61.261719 361.46875 " fill-opacity="1" fill-rule="nonzero"/><path fill="#bdb692" d="M 88.125 238.675781 C 82.363281 250.945312 80.851562 266.222656 84.964844 281.5625 C 89.078125 296.902344 113.984375 335.089844 113.984375 335.089844 C 113.984375 335.089844 116.4375 289.578125 112.324219 274.238281 C 108.210938 258.898438 99.253906 246.421875 88.125 238.675781 Z M 217.152344 197.359375 C 217.152344 213.238281 202.992188 256.566406 202.992188 256.566406 C 202.992188 256.566406 188.828125 213.238281 188.828125 197.359375 C 188.828125 181.476562 194.246094 167.113281 202.992188 156.75 C 211.734375 167.113281 217.152344 181.476562 217.152344 197.359375 Z M 146.25 200.71875 C 139.039062 212.195312 135.675781 227.175781 137.886719 242.898438 C 140.101562 258.625 160.167969 299.5625 160.167969 299.5625 C 160.167969 299.5625 168.152344 254.6875 165.9375 238.960938 C 163.722656 223.234375 156.355469 209.761719 146.25 200.71875 Z M 146.25 200.71875 " fill-opacity="1" fill-rule="nonzero"/><g clip-path="url(#b32ad7bf82)"><path fill="#e8ceb0" d="M 37.527344 369.222656 C 64.136719 360.410156 89.320312 347.324219 112.8125 331.839844 C 136.316406 316.3125 158.171875 298.285156 178.285156 278.5 C 198.320312 258.636719 216.636719 236.996094 232.496094 213.640625 C 248.304688 190.289062 261.757812 165.195312 270.964844 138.503906 L 272.792969 139.113281 C 263.824219 166.121094 250.570312 191.550781 234.914062 215.257812 C 219.210938 238.96875 201.007812 260.988281 181.039062 281.25 C 160.988281 301.433594 139.136719 319.894531 115.527344 335.890625 C 91.917969 351.84375 66.527344 365.4375 39.382812 374.78125 Z M 37.527344 369.222656 " fill-opacity="1" fill-rule="nonzero"/></g><path fill="#bdb692" d="M 278.808594 146.195312 C 273.371094 161.121094 245.230469 196.996094 245.230469 196.996094 C 245.230469 196.996094 246.757812 151.441406 252.195312 136.519531 C 257.628906 121.59375 267.640625 109.949219 279.402344 103.199219 C 284.074219 115.921875 284.246094 131.273438 278.808594 146.195312 Z M 220.175781 0.21875 C 210.5625 9.777344 203.910156 23.617188 202.523438 39.4375 C 201.140625 55.257812 211.980469 99.652344 211.980469 99.652344 C 211.980469 99.652344 229.355469 57.726562 230.742188 41.902344 C 232.125 26.082031 227.980469 11.300781 220.175781 0.21875 Z M 220.175781 0.21875 " fill-opacity="1" fill-rule="nonzero"/><path fill="#e8ceb0" d="M 246.371094 196.679688 L 244.5625 196.019531 L 278.09375 103.976562 L 279.902344 104.636719 Z M 221.03125 1.476562 L 219.113281 1.308594 L 211.078125 98.886719 L 212.996094 99.054688 Z M 221.03125 1.476562 " fill-opacity="1" fill-rule="nonzero"/><path fill="#e8ceb0" d="M 203.953125 255.878906 L 202.027344 255.878906 L 202.027344 157.929688 L 203.953125 157.929688 Z M 161.023438 298.746094 L 147.367188 201.75 L 145.460938 202.019531 L 159.117188 299.015625 Z M 114.734375 334.179688 L 89.359375 239.566406 L 87.5 240.066406 L 112.875 334.675781 Z M 114.734375 334.179688 " fill-opacity="1" fill-rule="nonzero"/></svg>