<svg xmlns="http://www.w3.org/2000/svg" width="500" viewBox="0 0 375 375" height="500" version="1.0"><defs><clipPath id="prefix__d"><path d="M175 118h51v126h-51zm0 0"/></clipPath><clipPath id="prefix__e"><path d="M-75.203 144.055L89.988-37.215 401.528 246.7 236.331 427.965zm0 0"/></clipPath><clipPath id="prefix__f"><path d="M-75.203 144.055L89.988-37.215 401.528 246.7 236.331 427.965zm0 0"/></clipPath><clipPath id="prefix__g"><path d="M19 162h276v203H19zm0 0"/></clipPath><clipPath id="prefix__h"><path d="M-75.203 144.055L89.988-37.215 401.528 246.7 236.331 427.965zm0 0"/></clipPath><clipPath id="prefix__i"><path d="M-75.203 144.055L89.988-37.215 401.528 246.7 236.331 427.965zm0 0"/></clipPath><clipPath id="prefix__j"><path d="M212 131h89v171h-89zm0 0"/></clipPath><clipPath id="prefix__k"><path d="M-75.203 144.055L89.988-37.215 401.528 246.7 236.331 427.965zm0 0"/></clipPath><clipPath id="prefix__l"><path d="M-75.203 144.055L89.988-37.215 401.528 246.7 236.331 427.965zm0 0"/></clipPath><clipPath id="prefix__m"><path d="M175 245h82v49h-82zm0 0"/></clipPath><clipPath id="prefix__n"><path d="M-75.203 144.055L89.988-37.215 401.528 246.7 236.331 427.965zm0 0"/></clipPath><clipPath id="prefix__o"><path d="M-75.203 144.055L89.988-37.215 401.528 246.7 236.331 427.965zm0 0"/></clipPath><clipPath id="prefix__p"><path d="M80 93h73v113H80zm0 0"/></clipPath><clipPath id="prefix__q"><path d="M-75.203 144.055L89.988-37.215 401.528 246.7 236.331 427.965zm0 0"/></clipPath><clipPath id="prefix__r"><path d="M-75.203 144.055L89.988-37.215 401.528 246.7 236.331 427.965zm0 0"/></clipPath><clipPath id="prefix__s"><path d="M93 53h23v57H93zm0 0"/></clipPath><clipPath id="prefix__t"><path d="M-75.203 144.055L89.988-37.215 401.528 246.7 236.331 427.965zm0 0"/></clipPath><clipPath id="prefix__u"><path d="M-75.203 144.055L89.988-37.215 401.528 246.7 236.331 427.965zm0 0"/></clipPath><clipPath id="prefix__v"><path d="M42 78h53v44H42zm0 0"/></clipPath><clipPath id="prefix__w"><path d="M-75.203 144.055L89.988-37.215 401.528 246.7 236.331 427.965zm0 0"/></clipPath><clipPath id="prefix__x"><path d="M-75.203 144.055L89.988-37.215 401.528 246.7 236.331 427.965zm0 0"/></clipPath><clipPath id="prefix__y"><path d="M119 74h29v41h-29zm0 0"/></clipPath><clipPath id="prefix__z"><path d="M-75.203 144.055L89.988-37.215 401.528 246.7 236.331 427.965zm0 0"/></clipPath><clipPath id="prefix__A"><path d="M-75.203 144.055L89.988-37.215 401.528 246.7 236.331 427.965zm0 0"/></clipPath><clipPath id="prefix__B"><path d="M19 199h44v27H19zm0 0"/></clipPath><clipPath id="prefix__C"><path d="M-75.203 144.055L89.988-37.215 401.528 246.7 236.331 427.965zm0 0"/></clipPath><clipPath id="prefix__D"><path d="M-75.203 144.055L89.988-37.215 401.528 246.7 236.331 427.965zm0 0"/></clipPath><clipPath id="prefix__E"><path d="M13 189h48v18H13zm0 0"/></clipPath><clipPath id="prefix__F"><path d="M-75.203 144.055L89.988-37.215 401.528 246.7 236.331 427.965zm0 0"/></clipPath><clipPath id="prefix__G"><path d="M-75.203 144.055L89.988-37.215 401.528 246.7 236.331 427.965zm0 0"/></clipPath><clipPath id="prefix__H"><path d="M21 208h43v26H21zm0 0"/></clipPath><clipPath id="prefix__I"><path d="M-75.203 144.055L89.988-37.215 401.528 246.7 236.331 427.965zm0 0"/></clipPath><clipPath id="prefix__J"><path d="M-75.203 144.055L89.988-37.215 401.528 246.7 236.331 427.965zm0 0"/></clipPath><clipPath id="prefix__K"><path d="M47 195h128v26H47zm0 0"/></clipPath><clipPath id="prefix__L"><path d="M-75.203 144.055L89.988-37.215 401.528 246.7 236.331 427.965zm0 0"/></clipPath><clipPath id="prefix__M"><path d="M-75.203 144.055L89.988-37.215 401.528 246.7 236.331 427.965zm0 0"/></clipPath><clipPath id="prefix__N"><path d="M36 24h139v191H36zm0 0"/></clipPath><clipPath id="prefix__O"><path d="M-75.203 144.055L89.988-37.215 401.528 246.7 236.331 427.965zm0 0"/></clipPath><clipPath id="prefix__P"><path d="M-75.203 144.055L89.988-37.215 401.528 246.7 236.331 427.965zm0 0"/></clipPath><clipPath id="prefix__Q"><path d="M128 118h1v1h-1zm0 0"/></clipPath><clipPath id="prefix__R"><path d="M-75.203 144.055L89.988-37.215 401.528 246.7 236.331 427.965zm0 0"/></clipPath><clipPath id="prefix__S"><path d="M-75.203 144.055L89.988-37.215 401.528 246.7 236.331 427.965zm0 0"/></clipPath><clipPath id="prefix__T"><path d="M128 118h2v1h-2zm0 0"/></clipPath><clipPath id="prefix__U"><path d="M-75.203 144.055L89.988-37.215 401.528 246.7 236.331 427.965zm0 0"/></clipPath><clipPath id="prefix__V"><path d="M-75.203 144.055L89.988-37.215 401.528 246.7 236.331 427.965zm0 0"/></clipPath><clipPath id="prefix__W"><path d="M164 252h20v21h-20zm0 0"/></clipPath><clipPath id="prefix__X"><path d="M-75.203 144.055L89.988-37.215 401.528 246.7 236.331 427.965zm0 0"/></clipPath><clipPath id="prefix__Y"><path d="M-75.203 144.055L89.988-37.215 401.528 246.7 236.331 427.965zm0 0"/></clipPath><clipPath id="prefix__Z"><path d="M183 270h17v17h-17zm0 0"/></clipPath><clipPath id="prefix__aa"><path d="M-75.203 144.055L89.988-37.215 401.528 246.7 236.331 427.965zm0 0"/></clipPath><clipPath id="prefix__ab"><path d="M-75.203 144.055L89.988-37.215 401.528 246.7 236.331 427.965zm0 0"/></clipPath><clipPath id="prefix__ac"><path d="M184 238h16v16h-16zm0 0"/></clipPath><clipPath id="prefix__ad"><path d="M-75.203 144.055L89.988-37.215 401.528 246.7 236.331 427.965zm0 0"/></clipPath><clipPath id="prefix__ae"><path d="M-75.203 144.055L89.988-37.215 401.528 246.7 236.331 427.965zm0 0"/></clipPath><clipPath id="prefix__af"><path d="M125 115h14v13h-14zm0 0"/></clipPath><clipPath id="prefix__ag"><path d="M-75.203 144.055L89.988-37.215 401.528 246.7 236.331 427.965zm0 0"/></clipPath><clipPath id="prefix__ah"><path d="M-75.203 144.055L89.988-37.215 401.528 246.7 236.331 427.965zm0 0"/></clipPath><clipPath id="prefix__ai"><path d="M137 129h11v11h-11zm0 0"/></clipPath><clipPath id="prefix__aj"><path d="M-75.203 144.055L89.988-37.215 401.528 246.7 236.331 427.965zm0 0"/></clipPath><clipPath id="prefix__ak"><path d="M-75.203 144.055L89.988-37.215 401.528 246.7 236.331 427.965zm0 0"/></clipPath><clipPath id="prefix__al"><path d="M152 115h12v13h-12zm0 0"/></clipPath><clipPath id="prefix__am"><path d="M-75.203 144.055L89.988-37.215 401.528 246.7 236.331 427.965zm0 0"/></clipPath><clipPath id="prefix__an"><path d="M-75.203 144.055L89.988-37.215 401.528 246.7 236.331 427.965zm0 0"/></clipPath><clipPath id="prefix__ao"><path d="M154 138h11v12h-11zm0 0"/></clipPath><clipPath id="prefix__ap"><path d="M-75.203 144.055L89.988-37.215 401.528 246.7 236.331 427.965zm0 0"/></clipPath><clipPath id="prefix__aq"><path d="M-75.203 144.055L89.988-37.215 401.528 246.7 236.331 427.965zm0 0"/></clipPath><clipPath id="prefix__ar"><path d="M35 46h19v19H35zm0 0"/></clipPath><clipPath id="prefix__as"><path d="M-75.203 144.055L89.988-37.215 401.528 246.7 236.331 427.965zm0 0"/></clipPath><clipPath id="prefix__at"><path d="M-75.203 144.055L89.988-37.215 401.528 246.7 236.331 427.965zm0 0"/></clipPath><clipPath id="prefix__au"><path d="M27 27h14v14H27zm0 0"/></clipPath><clipPath id="prefix__av"><path d="M-75.203 144.055L89.988-37.215 401.528 246.7 236.331 427.965zm0 0"/></clipPath><clipPath id="prefix__aw"><path d="M-75.203 144.055L89.988-37.215 401.528 246.7 236.331 427.965zm0 0"/></clipPath><clipPath id="prefix__ax"><path d="M40 15h14v14H40zm0 0"/></clipPath><clipPath id="prefix__ay"><path d="M-75.203 144.055L89.988-37.215 401.528 246.7 236.331 427.965zm0 0"/></clipPath><clipPath id="prefix__az"><path d="M-75.203 144.055L89.988-37.215 401.528 246.7 236.331 427.965zm0 0"/></clipPath><clipPath id="prefix__aA"><path d="M71 31h14v13H71zm0 0"/></clipPath><clipPath id="prefix__aB"><path d="M-75.203 144.055L89.988-37.215 401.528 246.7 236.331 427.965zm0 0"/></clipPath><clipPath id="prefix__aC"><path d="M-75.203 144.055L89.988-37.215 401.528 246.7 236.331 427.965zm0 0"/></clipPath><clipPath id="prefix__aD"><path d="M48 221h141v50H48zm0 0"/></clipPath><clipPath id="prefix__aE"><path d="M-75.203 144.055L89.988-37.215 401.528 246.7 236.331 427.965zm0 0"/></clipPath><clipPath id="prefix__aF"><path d="M-75.203 144.055L89.988-37.215 401.528 246.7 236.331 427.965zm0 0"/></clipPath><clipPath id="prefix__aG"><path d="M148 299h122v41H148zm0 0"/></clipPath><clipPath id="prefix__aH"><path d="M-75.203 144.055L89.988-37.215 401.528 246.7 236.331 427.965zm0 0"/></clipPath><clipPath id="prefix__aI"><path d="M-75.203 144.055L89.988-37.215 401.528 246.7 236.331 427.965zm0 0"/></clipPath><clipPath id="prefix__aJ"><path d="M68 233h103v16H68zm0 0"/></clipPath><clipPath id="prefix__aK"><path d="M-75.203 144.055L89.988-37.215 401.528 246.7 236.331 427.965zm0 0"/></clipPath><clipPath id="prefix__aL"><path d="M-75.203 144.055L89.988-37.215 401.528 246.7 236.331 427.965zm0 0"/></clipPath><clipPath id="prefix__aM"><path d="M188 140h24v82h-24zm0 0"/></clipPath><clipPath id="prefix__aN"><path d="M-75.203 144.055L89.988-37.215 401.528 246.7 236.331 427.965zm0 0"/></clipPath><clipPath id="prefix__aO"><path d="M-75.203 144.055L89.988-37.215 401.528 246.7 236.331 427.965zm0 0"/></clipPath><clipPath id="prefix__aP"><path d="M161 310h98v10h-98zm0 0"/></clipPath><clipPath id="prefix__aQ"><path d="M-75.203 144.055L89.988-37.215 401.528 246.7 236.331 427.965zm0 0"/></clipPath><clipPath id="prefix__aR"><path d="M-75.203 144.055L89.988-37.215 401.528 246.7 236.331 427.965zm0 0"/></clipPath><clipPath id="prefix__b"><path d="M0 0h375v375H0z"/></clipPath><filter x="0%" y="0%" width="100%" height="100%" id="prefix__a"><feColorMatrix values="0 0 0 0 1 0 0 0 0 1 0 0 0 0 1 0 0 0 1 0" color-interpolation-filters="sRGB"/></filter><mask id="prefix__c"><g filter="url(#prefix__a)"><path fill-opacity=".678" d="M-37.5-37.5h450v450h-450z"/></g></mask></defs><g clip-path="url(#prefix__b)" mask="url(#prefix__c)"><g clip-path="url(#prefix__d)"><g clip-path="url(#prefix__e)"><g clip-path="url(#prefix__f)"><path fill="#274c47" d="M212.871 243.926c-5.879-15.66-17.191-28.656-24.52-43.692-12.175-24.992-12.644-53.847-12.886-81.652 16.402 9.95 33.515 20.77 42.555 37.695 6.996 13.125 8.39 28.692 6.402 43.434-2 14.73-5.969 30.422-11.55 44.215zm0 0"/></g></g></g><g clip-path="url(#prefix__g)"><g clip-path="url(#prefix__h)"><g clip-path="url(#prefix__i)"><path fill="#9bb881" d="M19.887 164.512c-1.23-.657-.258-2.684 1.047-2.196 24.09 8.914 48.925 13.868 73.879 19.637 22.82 5.277 44.792 12.95 65.605 23.734 40.453 20.965 75.445 52.391 102.11 89.22 7.464 10.304 13.863 21.34 19.503 32.738 2.805 5.656 5.29 11.472 7.574 17.359 2.254 5.793 4.75 11.922 4.868 18.172.011 1-1.516 1.61-2.141.758-3.117-4.372-4.902-9.465-6.996-14.399-2.188-5.164-4.54-10.25-6.988-15.3-4.899-10.114-10.391-19.876-16.328-29.41-12.118-19.466-26.07-37.165-42.832-52.868-33.383-31.266-74.36-53.664-118.766-64.652-26.84-6.664-55.832-9.625-80.535-22.793zm0 0"/></g></g></g><g clip-path="url(#prefix__j)"><g clip-path="url(#prefix__k)"><g clip-path="url(#prefix__l)"><path fill="#898642" d="M255.309 288.488c2.496 4.438 5.28 9.575 9.171 12.957.243.203.598-.011.465-.32-2.847-6.64-6.73-9.957-9.5-22.602.684-15.09 11.188-25.078 20.938-35.742 4.129-4.511 8-9.246 10.664-14.793 1.465-3.039 2.75-6.25 3.523-9.539.297-1.258 1.168-3.52-.047-4.562-1.23-1.059-4.175.062-5.453.394-2.625.696-5.18 1.79-7.566 3.082-4.957 2.68-8.992 6.93-12.356 11.39-7.234 9.583-11.66 20.97-12.964 32.915-.414 3.824-.465 7.773-.07 11.637l-.262-.813c-2.954-9.805-4.368-20.008-4.098-30.238.105-4.152.43-8.281.941-12.383 1.723-4.527 4.422-8.277 8.953-11.101 5.473-3.403 11.332-5.942 16.594-9.723a80.049 80.049 0 0022.145-24.106c2-3.363 5.574-8.336 4.36-12.5-1.22-4.183-4.915-3.937-8.067-2.226-9.36 5.082-18.797 11.11-24.282 20.531-3.007 5.172-5.132 10.73-8.437 15.742-2.902 4.371-6.23 8.426-9.54 12.492.438-2.226.911-4.457 1.43-6.671a167.626 167.626 0 011.985-7.52c2.234-5.14 5.234-9.777 7.86-14.805 3.093-5.949 5.413-12.3 7.206-18.754 1.942-6.988 3.446-14.085 4.805-21.203 1.098-5.777 2.871-11.914 1.004-17.707-.149-.468-.637-.98-1.195-.785-6.43 2.113-10.649 8.172-14.707 13.29-4.09 5.152-7.711 10.816-9.336 17.265-1.735 6.933-1.508 14.351-1.18 21.43.328 7.207 1.176 14.359 2.594 21.43a393.252 393.252 0 00-2.2 8.757 225.32 225.32 0 00-.957 4.156c-1.078-8.476-4.523-16.937-8.566-23.851-3.375-5.766-7.57-11.098-12.508-15.602-3.375-3.074-8.422-7.75-13.234-4.879-.445.262-.805.813-.652 1.344 2.789 9.914 7.562 19.102 14.238 26.973 6.96 8.203 16.277 13.75 18.472 24.84.075.636.153 1.285.215 1.93-.75 5.03-1.21 10.1-1.261 15.163-.094 10.547 1.5 21.059 4.87 31.055 1.633 4.719 3.563 9.328 6.005 13.652zm0 0"/></g></g></g><g clip-path="url(#prefix__m)"><g clip-path="url(#prefix__n)"><g clip-path="url(#prefix__o)"><path fill="#9bb881" d="M176.871 262.594c6.871-2.32 15.395-1.348 22.445-.426a98.642 98.642 0 0112.086 2.336c-.55-.39-1.113-.79-1.664-1.2-5.633-4.206-11.945-9.421-15.172-15.8-.476-.926.692-2.152 1.598-1.438 5.66 4.442 10.29 10.121 15.945 14.625 3.328 2.649 6.836 5.086 10.418 7.426 6.582 2.594 12.914 5.863 18.77 9.848 5.375 3.656 12.953 8.539 15.605 14.73.121.285-.16.508-.43.387-3.23-1.543-5.964-4.336-8.742-6.566a91.75 91.75 0 00-8.183-5.848 100.891 100.891 0 00-13.32-7.16c-4.657-.758-9.204-1.813-14.075-1.621-6.851.27-13.398 2.215-19.714 4.765-1.079.434-1.813-1-.825-1.613 5.926-3.656 12.68-5.25 19.602-5.562a56.984 56.984 0 014.187-.04c-5.476-1.71-11.09-2.988-16.793-3.699-7.172-.898-14.449-.02-21.578-.894-1.34-.172-1.367-1.856-.16-2.25zm0 0"/></g></g></g><g clip-path="url(#prefix__p)"><g clip-path="url(#prefix__q)"><g clip-path="url(#prefix__r)"><path fill="#e09380" d="M81.98 107.258c5.555 3.25 10.258 8.375 14.891 12.793 4.817 4.582 9.5 9.324 13.879 14.336 3.633 4.152 6.98 8.476 9.957 13.02-1.957-7.739-2.684-15.673-4.207-23.54-1.988-10.215-5.855-19.629-10.41-28.937-.469-.97.887-1.598 1.457-.743 4.476 6.723 7.644 14.196 10.05 21.895.665-5.812 2.36-12.387 6.497-16.734.64-.668 1.886.129 1.535.988-2.36 5.906-4.668 11.2-5.387 17.613-.277 2.453-.316 4.887-.254 7.313 1.547 7.84 2.117 15.86 4.434 23.554 6.023 20.055 18.941 36.778 28.332 55.204.422.832-.723 1.648-1.348.937-6.742-7.625-11.89-16.676-16.719-25.598-3.894-7.18-7.699-14.515-10.71-22.129-4.618-7.82-10.125-15.117-16.196-21.855-4.16-4.637-8.578-9.031-13.113-13.309-4.617-4.347-10.063-8.308-13.895-13.379-.64-.835.239-1.992 1.207-1.43zm0 0"/></g></g></g><g clip-path="url(#prefix__s)"><g clip-path="url(#prefix__t)"><g clip-path="url(#prefix__u)"><path fill="#e09380" d="M102.227 95.434c1.492 2.011 3.148 3.843 4.898 5.644 2.188 2.262 3.98 4.836 6.133 7.086.043.04.105.063.152.074.281.461.586.914.922 1.367.41.528 1.262-.093.953-.664-5.523-10.144 1.887-21.296-.953-32.015-2.46-9.278-9.414-16.668-16.555-22.7-.504-.425-1.285-.37-1.527.333a45.837 45.837 0 00-.18 28.629c1.418 4.363 3.438 8.558 6.157 12.246zm0 0"/></g></g></g><g clip-path="url(#prefix__v)"><g clip-path="url(#prefix__w)"><g clip-path="url(#prefix__x)"><path fill="#e09380" d="M63.012 107.516c8.851 5.902 20.039 5.765 29.172 11.078.39.758.785 1.511 1.187 2.258.445.82 1.656.191 1.285-.657-4.945-11.082-9.781-23.222-20.082-30.379-9.129-6.347-20.258-8.93-31.023-10.894-.7-.125-1.133.754-.848 1.297 5.106 10.066 10.668 20.863 20.309 27.297zm0 0"/></g></g></g><g clip-path="url(#prefix__y)"><g clip-path="url(#prefix__z)"><g clip-path="url(#prefix__A)"><path fill="#e09380" d="M119.996 114.27c.29-.403.594-.793.902-1.165a.567.567 0 00.372-.44c2.668-3.032 5.93-5.06 9.293-7.438a39.73 39.73 0 008.113-7.665c4.972-6.242 7.91-13.796 8.617-21.734.043-.5-.363-.824-.8-.902-8.2-1.38-15.99 6.664-20.813 12.293-6.32 7.37-6.45 16.086-5.743 25.281a9.19 9.19 0 00-.464 1.488c-.059.344.328.551.523.282zm0 0"/></g></g></g><g clip-path="url(#prefix__B)"><g clip-path="url(#prefix__C)"><g clip-path="url(#prefix__D)"><path fill="#898642" d="M22.66 223.594c2.754 2.496 7.094 2.117 10.535 1.992 4.207-.16 8.239-.8 12.145-2.43 3.031-1.265 6.793-3.136 8.8-5.937 4.2-3.02 6.997-7.535 7.938-12.762.102-.527-.387-1.18-.894-1.305-8.5-2.097-18.266-4.793-27.051-3.132-7.274 1.359-13.73 6.539-14.594 14.25-.355 3.304.582 7.027 3.121 9.324zm0 0"/></g></g></g><g clip-path="url(#prefix__E)"><g clip-path="url(#prefix__F)"><g clip-path="url(#prefix__G)"><path fill="#f6cf9b" d="M17.98 201.742c3.567 2.36 7.743 3.715 11.973 4.242 4.844.606 9.75.098 14.488-.98 2.832-.649 6.325-2.418 9.297-1.89 1.914.343 3.399 1.316 5.41 1.222 1.23-.059 1.32-1.887.192-2.008-3.875-7.605-12.59-11.23-20.621-12.39-5.063-.731-10.563-1-15.653-.356-3.445.441-7.742 1.875-9.03 5.508-1.09 3.113 1.609 5.113 3.944 6.652zm0 0"/></g></g></g><g clip-path="url(#prefix__H)"><g clip-path="url(#prefix__I)"><g clip-path="url(#prefix__J)"><path fill="#f6cf9b" d="M21.941 230.879c2.305 3.094 6.84 3.164 10.258 2.555 5.055-.899 10.215-2.805 14.836-5.008 7.313-3.504 14.543-9.57 15.977-17.988 1.047-.45.418-2.168-.785-1.864-1.95.516-3.086 1.883-4.801 2.79-2.676 1.394-6.528.75-9.438.976-4.84.383-9.683 1.367-14.117 3.387-3.875 1.773-7.453 4.304-10.156 7.617-1.774 2.156-3.766 4.879-1.774 7.535zm0 0"/></g></g></g><g clip-path="url(#prefix__K)"><g clip-path="url(#prefix__L)"><g clip-path="url(#prefix__M)"><path fill="#9bb881" d="M53.082 220.23c5.52-2.195 10.645-5.164 15.207-8.98 1.066-.89 3.266-2.484 4.832-4.258 2.496-.781 4.988-1.613 7.473-2.246 4.46-1.137 8.969-2.156 13.508-2.906 9.617-1.598 19.406-2.242 29.148-1.598 17.715 1.168 35.387 6.387 50.855 15.121.61.344 1.137-.496.59-.91-14.726-11.101-32.328-16.973-50.656-18.308-9.848-.72-19.828-.196-29.566 1.48-5.133.879-10.235 2.04-15.22 3.563-1.03.312-2.085.628-3.167.964a1.127 1.127 0 00-.344-.218 69.105 69.105 0 00-2.629-1.028c-1.07-.625-2.488-1.043-3.89-1.336a72.304 72.304 0 00-20.453-3.215c-1.024-.007-1.293 1.18-.575 1.77.399.332.801.637 1.207.926.008.148.098.297.27.277.05 0 .086-.004.133-.004a24.203 24.203 0 005.793 2.953 57.685 57.685 0 00-6.856 1.918c-.68.239-1.117 1.258-.312 1.688 1.972 1.082 3.968 1.722 6.058 1.96a61.508 61.508 0 00-5.16 3.427c-.683.507-.187 1.69.606 1.714 2.14.024 4.257-.066 6.37-.273-1.964 1.742-3.648 3.695-4.714 6.242-.363.942.734 1.59 1.492 1.277zm0 0"/></g></g></g><g clip-path="url(#prefix__N)"><g clip-path="url(#prefix__O)"><g clip-path="url(#prefix__P)"><path fill="#274c47" d="M36.516 34.98c-.848-.312-.438-1.597.437-1.335 9.563 2.742 17.938 7.527 25.258 13.64-1.879-2.844-3.777-5.672-5.875-8.363-3.543-4.531-7.824-8.371-11.434-12.793-.609-.746.266-1.953 1.133-1.352 4.692 3.254 8.54 8.114 11.973 12.625 3.172 4.184 6.152 8.633 8.234 13.477 10 9.512 17.895 21.527 24.11 33.957-.786-2.703-1.559-5.418-2.352-8.129-3.559-12.25-7.066-24.52-9.793-36.984-.148-.692.828-.84 1.04-.215 4.226 12.078 7.702 24.383 11.112 36.707 2.012 7.262 4.051 14.484 5.965 21.75 6.137 14.605 11.258 29.633 17.281 44.273 6.043 14.676 12.551 29.106 22.387 41.7 4.578 5.859 9.817 11.32 15.625 16.09-1.023-1.13-1.84-2.508-2.629-3.735-1.695-2.645-3.168-5.45-4.472-8.313a77.471 77.471 0 01-5.758-18.363 77.684 77.684 0 01-.906-6.668c-2.082-1.96-3.368-5.023-4.5-7.535a47.863 47.863 0 01-3.403-10.887c-1.34-7.187-1.441-15.097 1.29-21.984.206-.527 1.128-.438 1.034.191-1.035 7.196-1.808 14.176-.476 21.41.668 3.583 1.703 7.106 3.144 10.454.72 1.691 1.75 3.3 2.66 4.957a71.773 71.773 0 01.067-8.649c.402-5.84 1.273-12.73 4.258-17.875.469-.812 1.824-.36 1.734.559-.562 5.7-2.23 11.23-2.66 16.98a79.631 79.631 0 00-.227 5.364c4.086-4.551 7.575-9.395 10.223-15.004 2.887-6.14 4.41-12.582 5.914-19.157.117-.496.867-.32.856.16-.434 12.387-6.79 25.407-14.961 34.915 4.449-4.094 11.644-6.086 14.597-11.688.254-.469.938-.086.809.387-2.18 8.312-12.461 9.066-17.32 15.098a72.29 72.29 0 00.902 8.335c1 5.907 2.691 11.7 5.078 17.2a75.039 75.039 0 003.777 7.488c1.313 2.277 3.606 4.844 3.922 7.504.04.34-.265.726-.632.57-.168-.074-.333-.176-.504-.27 6.351 4.962 13.34 9.083 20.84 11.958.816.312.417 1.43-.407 1.27-28.637-5.884-47.52-31.848-58.93-57.067-10.812-23.887-16.628-49.899-28.378-73.215-2.29-2.098-4.157-5.078-6.278-7.117-3.207-3.082-6.68-5.961-10.25-8.61-7.02-5.203-15.058-8.171-22.363-12.82-.64-.41-.328-1.523.469-1.437 8.738.976 17.27 6.601 24.113 11.804a72.13 72.13 0 018.227 7.32 118.44 118.44 0 00-5.836-8.546c-9.813-13-22.735-24.27-38.125-30.032zm0 0"/></g></g></g><g clip-path="url(#prefix__Q)"><g clip-path="url(#prefix__R)"><g clip-path="url(#prefix__S)"><path fill="#e09380" d="M128.766 118.46c-.223.161-.153.114 0 0zm0 0"/></g></g></g><g clip-path="url(#prefix__T)"><g clip-path="url(#prefix__U)"><g clip-path="url(#prefix__V)"><path fill="#898642" d="M128.766 118.46c.007-.007.007-.007.015-.019 1.172-.793.36-.23-.015.02zm0 0"/></g></g></g><g clip-path="url(#prefix__W)"><g clip-path="url(#prefix__X)"><g clip-path="url(#prefix__Y)"><path fill="#e09380" d="M180.633 255.164a9.737 9.737 0 012.273 3.086c.274.582.489 1.188.645 1.813.152.628.246 1.261.277 1.906a9.938 9.938 0 01-.101 1.926 9.884 9.884 0 01-1.3 3.605 9.614 9.614 0 01-1.154 1.543 9.814 9.814 0 01-10.594 2.621 9.828 9.828 0 01-3.281-1.977 10.152 10.152 0 01-1.289-1.43 10.208 10.208 0 01-.988-1.655 9.552 9.552 0 01-.64-1.817 9.474 9.474 0 01-.278-1.902 9.936 9.936 0 01.098-1.926 9.988 9.988 0 01.472-1.867 9.98 9.98 0 01.829-1.738 9.975 9.975 0 011.152-1.543 9.737 9.737 0 013.086-2.274 9.907 9.907 0 011.812-.644 9.844 9.844 0 015.696.293 9.93 9.93 0 013.285 1.98zm0 0"/></g></g></g><g clip-path="url(#prefix__Z)"><g clip-path="url(#prefix__aa)"><g clip-path="url(#prefix__ab)"><path fill="#e09380" d="M196.676 272.75a7.511 7.511 0 011.77 2.395 7.608 7.608 0 01.714 2.894c.024.5 0 .996-.078 1.492a7.634 7.634 0 01-1.008 2.805 7.682 7.682 0 01-2.008 2.2 7.512 7.512 0 01-2.695 1.269 7.634 7.634 0 01-5.781-.875 7.597 7.597 0 01-2.965-3.293 7.209 7.209 0 01-.5-1.41 7.568 7.568 0 01.227-4.426 7.658 7.658 0 013.938-4.32 7.605 7.605 0 014.387-.637c.495.074.98.195 1.448.367.473.168.922.383 1.352.644.43.258.832.555 1.199.895zm0 0"/></g></g></g><g clip-path="url(#prefix__ac)"><g clip-path="url(#prefix__ad)"><g clip-path="url(#prefix__ae)"><path fill="#e09380" d="M197.137 240.09c.37.34.707.71 1.004 1.113.297.402.55.832.765 1.285a7.605 7.605 0 01.637 4.387 7.488 7.488 0 01-1.012 2.8 7.44 7.44 0 01-.894 1.204 7.525 7.525 0 01-2.398 1.766 7.209 7.209 0 01-1.41.5 7.568 7.568 0 01-4.427-.227 7.658 7.658 0 01-4.32-3.938 7.605 7.605 0 01-.637-4.387 7.652 7.652 0 011.012-2.8 7.48 7.48 0 01.895-1.2 7.348 7.348 0 011.113-1.003 7.492 7.492 0 011.285-.766 7.562 7.562 0 012.89-.715c.5-.023 1 0 1.497.075a7.738 7.738 0 014 1.906zm0 0"/></g></g></g><g clip-path="url(#prefix__af)"><g clip-path="url(#prefix__ag)"><g clip-path="url(#prefix__ah)"><path fill="#898642" d="M136.254 116.688a6.14 6.14 0 011.941 5.469c-.062.398-.16.788-.297 1.167a6.331 6.331 0 01-.52 1.09 5.877 5.877 0 01-.722.965c-.27.3-.57.57-.894.808a6.037 6.037 0 01-1.035.618 6.174 6.174 0 01-2.332.578 6.2 6.2 0 01-1.204-.063 6.322 6.322 0 01-1.168-.297 5.814 5.814 0 01-1.09-.52 6.223 6.223 0 01-.968-.718 6.066 6.066 0 01-.805-.898 5.662 5.662 0 01-.617-1.035 6.156 6.156 0 01-.406-1.137 6.129 6.129 0 01-.172-1.192c-.02-.406 0-.808.062-1.207a6.114 6.114 0 01.817-2.258c.207-.343.445-.667.719-.964a6.042 6.042 0 011.933-1.426 5.78 5.78 0 011.137-.402 6.135 6.135 0 012.398-.114c.399.063.79.16 1.168.297a6.19 6.19 0 012.055 1.238zm0 0"/></g></g></g><g clip-path="url(#prefix__ai)"><g clip-path="url(#prefix__aj)"><g clip-path="url(#prefix__ak)"><path fill="#898642" d="M146.082 130.355a5.067 5.067 0 011.488 2.5c.078.32.13.645.14.973.017.328 0 .656-.05.98a5.006 5.006 0 01-.238.954 5 5 0 01-.426.886 4.976 4.976 0 01-3.086 2.278 5.075 5.075 0 01-1.953.09 5.092 5.092 0 01-1.84-.664 5.006 5.006 0 01-1.945-2.16 5.124 5.124 0 01-.332-.926 5.124 5.124 0 01-.14-.973 4.942 4.942 0 01.293-1.934 5.27 5.27 0 01.421-.886 5.037 5.037 0 012.16-1.95 5.04 5.04 0 012.883-.418c.324.047.64.13.95.243.312.109.605.25.886.422.285.167.547.363.789.585zm0 0"/></g></g></g><g clip-path="url(#prefix__al)"><g clip-path="url(#prefix__am)"><g clip-path="url(#prefix__an)"><path fill="#898642" d="M161.598 117.242a5.652 5.652 0 011.832 3.906c.015.368 0 .739-.059 1.102a5.58 5.58 0 01-1.406 2.953 5.521 5.521 0 01-1.77 1.305 5.49 5.49 0 01-1.039.37c-.36.09-.726.142-1.094.161a5.653 5.653 0 01-2.176-.328 5.552 5.552 0 01-.995-.477 5.62 5.62 0 01-2.66-5.668 5.552 5.552 0 01.746-2.066 5.62 5.62 0 012.43-2.191 5.63 5.63 0 011.038-.371 5.768 5.768 0 012.2-.102 5.664 5.664 0 012.066.746c.316.191.613.414.887.66zm0 0"/></g></g></g><g clip-path="url(#prefix__ao)"><g clip-path="url(#prefix__ap)"><g clip-path="url(#prefix__aq)"><path fill="#898642" d="M163.152 139.883c.258.23.489.484.692.765.207.278.383.57.527.883.149.313.262.637.344.973a5.37 5.37 0 01.098 2.05 5.208 5.208 0 01-.7 1.93 5.248 5.248 0 01-2.265 2.043 5.05 5.05 0 01-.973.344 5.37 5.37 0 01-2.05.098 5.48 5.48 0 01-.997-.254 5.249 5.249 0 01-2.45-1.824 5.645 5.645 0 01-.526-.887 5.306 5.306 0 01-.441-3.023 5.243 5.243 0 012.082-3.445c.277-.204.57-.38.882-.528a5.306 5.306 0 013.023-.441 5.208 5.208 0 011.93.7c.297.174.57.381.824.616zm0 0"/></g></g></g><g clip-path="url(#prefix__ar)"><g clip-path="url(#prefix__as)"><g clip-path="url(#prefix__at)"><path fill="#f6cf9b" d="M50.129 48.93a8.752 8.752 0 012.043 2.77c.246.523.441 1.066.578 1.628a8.813 8.813 0 01-1.008 6.68 8.819 8.819 0 01-2.32 2.543 8.772 8.772 0 01-4.828 1.715 8.813 8.813 0 01-4.965-1.258 8.956 8.956 0 01-1.387-1.035 9.026 9.026 0 01-1.156-1.285 8.772 8.772 0 01-1.715-4.829 8.813 8.813 0 011.258-4.964 8.823 8.823 0 012.32-2.547 8.602 8.602 0 011.489-.883 8.596 8.596 0 011.628-.578 8.737 8.737 0 013.438-.16 8.504 8.504 0 011.676.425 8.773 8.773 0 012.95 1.777zm0 0"/></g></g></g><g clip-path="url(#prefix__au)"><g clip-path="url(#prefix__av)"><g clip-path="url(#prefix__aw)"><path fill="#f6cf9b" d="M38.16 29.266a6.457 6.457 0 011.496 2.03 6.399 6.399 0 01.61 2.45c.02.426-.004.848-.067 1.27a6.583 6.583 0 01-.86 2.375 6.419 6.419 0 01-1.698 1.863 6.386 6.386 0 01-2.285 1.074 6.52 6.52 0 01-1.254.184 6.575 6.575 0 01-1.27-.067 6.565 6.565 0 01-2.375-.855 6.603 6.603 0 01-1.016-.758 6.487 6.487 0 01-.847-.945 6.126 6.126 0 01-.649-1.09 6.432 6.432 0 01-.23-4.945 6.2 6.2 0 01.547-1.145 6.13 6.13 0 01.758-1.016 6.368 6.368 0 012.031-1.5 6.69 6.69 0 011.195-.425 6.47 6.47 0 011.254-.18c.426-.02.848 0 1.266.062a6.415 6.415 0 012.375.86 6.45 6.45 0 011.02.758zm0 0"/></g></g></g><g clip-path="url(#prefix__ax)"><g clip-path="url(#prefix__ay)"><g clip-path="url(#prefix__az)"><path fill="#f6cf9b" d="M51.598 16.984a6.904 6.904 0 011.574 2.133 6.817 6.817 0 01.566 3.906 6.677 6.677 0 01-.328 1.293 6.52 6.52 0 01-.57 1.204 6.86 6.86 0 01-.797 1.07 6.934 6.934 0 01-2.137 1.574 6.817 6.817 0 01-5.2.242 6.933 6.933 0 01-1.202-.574 6.65 6.65 0 01-1.066-.797 6.734 6.734 0 01-.895-.992 6.767 6.767 0 01-1.25-5.05 6.749 6.749 0 01.902-2.497 6.65 6.65 0 01.797-1.066 6.705 6.705 0 012.133-1.575c.406-.19.824-.34 1.258-.449a7.127 7.127 0 011.32-.191 6.87 6.87 0 012.621.398 6.86 6.86 0 012.273 1.371zm0 0"/></g></g></g><g clip-path="url(#prefix__aA)"><g clip-path="url(#prefix__aB)"><g clip-path="url(#prefix__aC)"><path fill="#f6cf9b" d="M82.762 32.7c.316.284.597.597.851.94a6.386 6.386 0 011.07 2.285 6.466 6.466 0 01.118 2.525 6.35 6.35 0 01-.313 1.226 6.24 6.24 0 01-.543 1.148c-.218.364-.472.7-.757 1.016-.29.312-.602.597-.946.847-.34.254-.703.47-1.09.649a6.432 6.432 0 01-4.945.23 6.529 6.529 0 01-1.144-.543 6.514 6.514 0 01-2.516-2.793 6.386 6.386 0 01-.422-1.195 6.149 6.149 0 01-.184-1.254c-.02-.426 0-.847.067-1.265a6.307 6.307 0 01.855-2.375 6.66 6.66 0 01.758-1.02 6.69 6.69 0 01.942-.848 6.603 6.603 0 012.285-1.074 6.51 6.51 0 011.257-.18c.422-.023.844 0 1.266.063.422.066.828.168 1.23.313a6.546 6.546 0 012.16 1.304zm0 0"/></g></g></g><g clip-path="url(#prefix__aD)"><g clip-path="url(#prefix__aE)"><g clip-path="url(#prefix__aF)"><path fill="#274c47" d="M188.2 226.758c-17.997 1.094-35.766-4.328-53.798-4.922-29.96-.992-58.59 11.23-86.066 23.215 17.012 11.777 35.184 23.867 55.828 25.316 16.008 1.121 31.941-4.347 45.574-12.793 13.633-8.445 27.34-19.258 38.461-30.816zm0 0"/></g></g></g><g clip-path="url(#prefix__aG)"><g clip-path="url(#prefix__aH)"><g clip-path="url(#prefix__aI)"><path fill="#274c47" d="M269.016 310.785c-15.426-1.039-29.965-7.586-45.235-10.074-25.383-4.125-51.078 3.148-75.77 10.348 13.188 11.886 27.329 24.156 44.727 27.644 13.492 2.711 27.657-.203 40.176-5.906 12.52-5.7 25.379-13.387 36.102-22.012zm0 0"/></g></g></g><g clip-path="url(#prefix__aJ)"><g clip-path="url(#prefix__aK)"><g clip-path="url(#prefix__aL)"><path fill="#9bb881" d="M68.7 248.121c17.07-2.926 34.21-5.562 51.527-6.715 16.957-1.613 34.199-1.636 50.273-7.87l.266.444c-10.301 8.524-24.344 11.165-37.368 11.47l-13.015.077c-17.238.145-34.434 1.758-51.63 3.106.013-.008-.054-.512-.054-.512zm0 0"/></g></g></g><g clip-path="url(#prefix__aM)"><g clip-path="url(#prefix__aN)"><g clip-path="url(#prefix__aO)"><path fill="#9bb881" d="M211.555 221.234c-3.246-13.75-8.29-26.464-13.2-39.644-4.78-13.14-9.511-26.973-9.394-41.176 3.969 13.566 9.332 26.191 14.234 39.395 4.782 13.16 9.207 27.222 8.36 41.425zm0 0"/></g></g></g><g clip-path="url(#prefix__aP)"><g clip-path="url(#prefix__aQ)"><g clip-path="url(#prefix__aR)"><path fill="#f6cf9b" d="M161.68 313.07c12.164.852 23.945 2.246 35.984 1.246 16.074-1.363 32.266-4.562 48.535-3.187 4.09.402 8.203 1.058 12.047 2.465-20.375-1.395-39.976 4.73-60.266 5.722-12.382.555-24.777-2.03-36.3-6.246zm0 0"/></g></g></g></g></svg>